<?xml version="1.0" encoding="UTF-8" standalone="no"?>
<!DOCTYPE score-partwise PUBLIC "-//Recordare//DTD MusicXML 3.0 Partwise//EN" "http://www.musicxml.org/dtds/partwise.dtd"[]>
<score-partwise version="3.0">
	<movement-title>Great Are You Lord</movement-title>
	<identification>
		<creator type="composer">Jason Ingram, Leslie Jordan\r\nand David Leonard</creator>
		<encoding>
			<software>Finale 2014.5 for Windows</software>
			<software>Dolet Light for Finale 2014.5</software>
			<encoding-date>2021-01-29</encoding-date>
			<supports attribute="new-system" element="print" type="yes" value="yes" />
			<supports attribute="new-page" element="print" type="yes" value="yes" />
			<supports element="accidental" type="yes" />
			<supports element="beam" type="yes" />
			<supports element="stem" type="yes" />
		</encoding>
		<rights>CCLI Song # 6460220\r\n© 2012 Open Hands Music | So Essential Tunes | Integrity's Praise! Music | Little Way Creative\r\nFor use solely with the SongSelect® Terms of Use. All rights reserved. www.ccli.com\r\nCCLI License # 12345\r\n</rights>
	</identification>
	<defaults>
		<scaling>
			<millimeters>6.5088</millimeters>
			<tenths>40</tenths>
		</scaling>
		<page-layout>
			<page-height>1717</page-height>
			<page-width>1327</page-width>
			<page-margins type="both">
				<left-margin>78</left-margin>
				<right-margin>78</right-margin>
				<top-margin>78</top-margin>
				<bottom-margin>78</bottom-margin>
			</page-margins>
		</page-layout>
		<system-layout>
			<system-margins>
				<left-margin>0</left-margin>
				<right-margin>0</right-margin>
			</system-margins>
			<system-distance>190</system-distance>
			<top-system-distance>117</top-system-distance>
		</system-layout>
		<appearance>
			<line-width type="stem">1.4583</line-width>
			<line-width type="beam">5</line-width>
			<line-width type="staff">1.25</line-width>
			<line-width type="light barline">1.4583</line-width>
			<line-width type="heavy barline">5</line-width>
			<line-width type="leger">1.875</line-width>
			<line-width type="ending">1.4583</line-width>
			<line-width type="wedge">1.4583</line-width>
			<line-width type="enclosure">1.4583</line-width>
			<line-width type="tuplet bracket">1.4583</line-width>
			<note-size type="grace">50</note-size>
			<note-size type="cue">50</note-size>
			<distance type="hyphen">240</distance>
			<distance type="beam">8</distance>
		</appearance>
		<music-font font-family="Maestro,engraved" font-size="18.5" />
		<word-font font-family="Arial" font-size="9.2" />
		<lyric-font font-family="Arial" font-size="10.8" name="verse" />
		<lyric-font font-family="Arial" font-size="10.8" name="section" />
	</defaults>
	<credit page="1">
		<credit-type>title</credit-type>
		<credit-words default-x="663" default-y="1649" font-size="21.6" font-weight="bold" justify="center" valign="top">Great Are You Lord</credit-words>
	</credit>
	<credit page="1">
		<credit-words default-x="1249" default-y="1576" font-size="10.8" font-style="italic" justify="right" valign="top">Words and Music by</credit-words>
	</credit>
	<credit page="1">
		<credit-type>composer</credit-type>
		<credit-words default-x="1249" default-y="1552" font-size="10.8" font-weight="bold" justify="right" valign="top" xml:space="preserve">Jason Ingram, Leslie Jordan\r\nand David Leonard</credit-words>
	</credit>
	<credit page="2">
		<credit-type>title</credit-type>
		<credit-type>page number</credit-type>
		<credit-words default-x="663" default-y="1663" font-size="10.8" justify="center" valign="top">Great Are You Lord - 2</credit-words>
	</credit>
	<part-list>
		<score-part id="P1">
			<part-name print-object="no">Vocals</part-name>
			<score-instrument id="P1-I2">
				<instrument-name>Melody</instrument-name>
			</score-instrument>
			<midi-instrument id="P1-I2">
				<midi-channel>1</midi-channel>
				<midi-program>1</midi-program>
				<volume>80</volume>
				<pan>0</pan>
			</midi-instrument>
		</score-part>
	</part-list>
	<!--=========================================================-->
	<part id="P1">
		<measure number="1" width="305">
			<print page-number="1">
				<page-layout>
					<page-height>1717</page-height>
					<page-width>1327</page-width>
					<page-margins>
						<left-margin>78</left-margin>
						<right-margin>78</right-margin>
						<top-margin>190</top-margin>
						<bottom-margin>163</bottom-margin>
					</page-margins>
				</page-layout>
				<system-layout>
					<system-margins>
						<left-margin>68</left-margin>
						<right-margin>0</right-margin>
					</system-margins>
				</system-layout>
				<measure-numbering>system</measure-numbering>
			</print>
			<barline location="left">
				<bar-style>heavy-light</bar-style>
				<repeat direction="forward" winged="none" />
			</barline>
			<attributes>
				<divisions>4</divisions>
				<key>
					<fifths>3</fifths>
					<mode>major</mode>
				</key>
				<time>
					<beats>6</beats>
					<beat-type>8</beat-type>
				</time>
				<clef>
					<sign>G</sign>
					<line>2</line>
				</clef>
				<measure-style>
					<slash type="start" use-stems="no" />
				</measure-style>
			</attributes>
			<harmony default-y="36" font-size="10" font-weight="bold">
				<root>
					<root-step>D</root-step>
				</root>
				<kind halign="center" text="">major</kind>
			</harmony>
			<direction placement="above">
				<direction-type>
					<metronome default-y="59" halign="left" relative-x="-132">
						<beat-unit>eighth</beat-unit>
						<per-minute>144</per-minute>
					</metronome>
				</direction-type>
				<sound tempo="72" />
			</direction>
			<direction placement="above">
				<direction-type>
					<rehearsal default-y="69" font-weight="bold" relative-x="-5">INTRO</rehearsal>
				</direction-type>
			</direction>
			<note default-x="160">
				<rest />
				<duration>6</duration>
				<voice>1</voice>
				<type>quarter</type>
				<dot />
			</note>
			<note default-x="231">
				<rest />
				<duration>6</duration>
				<voice>1</voice>
				<type>quarter</type>
				<dot />
			</note>
		</measure>
		<!--=======================================================-->
		<measure number="2" width="177">
			<harmony default-y="36" font-size="10" font-weight="bold">
				<root>
					<root-step>F</root-step>
					<root-alter>1</root-alter>
				</root>
				<kind halign="center" text="m7">minor-seventh</kind>
			</harmony>
			<note default-x="30">
				<rest />
				<duration>6</duration>
				<voice>1</voice>
				<type>quarter</type>
				<dot />
			</note>
			<note default-x="102">
				<rest />
				<duration>6</duration>
				<voice>1</voice>
				<type>quarter</type>
				<dot />
			</note>
		</measure>
		<!--=======================================================-->
		<measure number="3" width="175">
			<harmony default-y="36" font-size="10" font-weight="bold">
				<root>
					<root-step>E</root-step>
				</root>
				<kind halign="center" text="sus">suspended-fourth</kind>
			</harmony>
			<note default-x="29">
				<rest />
				<duration>6</duration>
				<voice>1</voice>
				<type>quarter</type>
				<dot />
			</note>
			<note default-x="102">
				<rest />
				<duration>6</duration>
				<voice>1</voice>
				<type>quarter</type>
				<dot />
			</note>
		</measure>
		<!--=======================================================-->
		<measure number="4" width="185">
			<barline location="left">
				<ending default-y="71" end-length="71" font-size="6.2" number="1" print-object="yes" type="start" />
			</barline>
			<attributes>
				<measure-style>
					<slash type="stop" />
				</measure-style>
			</attributes>
			<note default-x="21">
				<rest />
				<duration>6</duration>
				<voice>1</voice>
				<type>quarter</type>
				<dot />
			</note>
			<note default-x="92">
				<rest />
				<duration>6</duration>
				<voice>1</voice>
				<type>quarter</type>
				<dot />
			</note>
			<barline location="right">
				<bar-style>light-heavy</bar-style>
				<ending number="1" print-object="yes" type="stop" />
				<repeat direction="backward" winged="none" />
			</barline>
		</measure>
		<!--=======================================================-->
		<measure number="5" width="261">
			<barline location="left">
				<ending default-y="71" end-length="71" font-size="6.2" number="2" print-object="yes" type="start" />
			</barline>
			<note default-x="19">
				<rest />
				<duration>6</duration>
				<voice>1</voice>
				<type>quarter</type>
				<dot />
			</note>
			<note default-x="105">
				<rest />
				<duration>2</duration>
				<voice>1</voice>
				<type>eighth</type>
			</note>
			<note default-x="144">
				<pitch>
					<step>F</step>
					<alter>1</alter>
					<octave>4</octave>
				</pitch>
				<duration>2</duration>
				<voice>1</voice>
				<type>eighth</type>
				<stem default-y="-4">up</stem>
				<beam number="1">begin</beam>
				<lyric default-y="-91" name="verse" number="1">
					<syllabic>single</syllabic>
					<text font-size="10.8">You</text>
				</lyric>
				<lyric default-y="-91" name="verse" number="1">
					<syllabic>single</syllabic>
					<text font-size="10.8">You</text>
				</lyric>
			</note>
			<note default-x="203">
				<pitch>
					<step>G</step>
					<alter>1</alter>
					<octave>4</octave>
				</pitch>
				<duration>2</duration>
				<voice>1</voice>
				<type>eighth</type>
				<stem default-y="1">up</stem>
				<beam number="1">end</beam>
				<lyric default-y="-91" name="verse" number="1">
					<syllabic>single</syllabic>
					<text font-size="10.8">give</text>
				</lyric>
			</note>
			<barline location="right">
				<bar-style>light-light</bar-style>
				<ending number="2" type="discontinue" />
			</barline>
		</measure>
		<!--=======================================================-->
		<measure number="6" width="360">
			<print new-system="yes">
				<system-layout>
					<system-distance>180</system-distance>
				</system-layout>
			</print>
			<barline location="left">
				<bar-style>heavy-light</bar-style>
				<repeat direction="forward" winged="none" />
			</barline>
			<harmony default-y="36" font-size="10" font-weight="bold">
				<root>
					<root-step>D</root-step>
				</root>
				<kind halign="center" text="">major</kind>
			</harmony>
			<direction placement="above">
				<direction-type>
					<rehearsal default-y="69" font-weight="bold" relative-x="-5">VERSE</rehearsal>
				</direction-type>
			</direction>
			<note default-x="128">
				<pitch>
					<step>A</step>
					<octave>4</octave>
				</pitch>
				<duration>6</duration>
				<voice>1</voice>
				<type>quarter</type>
				<dot />
				<stem default-y="7">up</stem>
				<lyric default-y="-91" name="verse" number="1">
					<syllabic>single</syllabic>
					<text font-size="10.8">life.</text>
				</lyric>
			</note>
			<note default-x="213">
				<rest />
				<duration>2</duration>
				<voice>1</voice>
				<type>eighth</type>
			</note>
			<note default-x="257">
				<pitch>
					<step>F</step>
					<alter>1</alter>
					<octave>4</octave>
				</pitch>
				<duration>2</duration>
				<voice>1</voice>
				<type>eighth</type>
				<stem default-y="-4">up</stem>
				<beam number="1">begin</beam>
				<lyric default-y="-91" name="verse" number="1">
					<syllabic>single</syllabic>
					<text font-size="10.8">You</text>
				</lyric>
			</note>
			<note default-x="311">
				<pitch>
					<step>G</step>
					<alter>1</alter>
					<octave>4</octave>
				</pitch>
				<duration>2</duration>
				<voice>1</voice>
				<type>eighth</type>
				<stem default-y="1">up</stem>
				<beam number="1">end</beam>
				<lyric default-y="-91" name="verse" number="1">
					<syllabic>single</syllabic>
					<text font-size="10.8">are</text>
				</lyric>
			</note>
		</measure>
		<!--=======================================================-->
		<measure number="7" width="283">
			<harmony default-y="36" font-size="10" font-weight="bold">
				<root>
					<root-step>F</root-step>
					<root-alter>1</root-alter>
				</root>
				<kind halign="center" text="m7">minor-seventh</kind>
			</harmony>
			<note default-x="30">
				<pitch>
					<step>A</step>
					<octave>4</octave>
				</pitch>
				<duration>6</duration>
				<voice>1</voice>
				<type>quarter</type>
				<dot />
				<stem default-y="7">up</stem>
				<lyric default-y="-91" name="verse" number="1">
					<syllabic>single</syllabic>
					<text font-size="10.8">love.</text>
				</lyric>
			</note>
			<note default-x="118">
				<rest />
				<duration>2</duration>
				<voice>1</voice>
				<type>eighth</type>
			</note>
			<note default-x="164">
				<pitch>
					<step>E</step>
					<octave>4</octave>
				</pitch>
				<duration>2</duration>
				<voice>1</voice>
				<type>eighth</type>
				<stem default-y="6.5">up</stem>
				<beam number="1">begin</beam>
				<lyric default-y="-91" name="verse" number="1">
					<syllabic>single</syllabic>
					<text font-size="10.8">You</text>
				</lyric>
			</note>
			<note default-x="226">
				<pitch>
					<step>B</step>
					<octave>4</octave>
				</pitch>
				<duration>2</duration>
				<voice>1</voice>
				<type>eighth</type>
				<stem default-y="11.5">up</stem>
				<beam number="1">end</beam>
				<lyric default-y="-91" name="verse" number="1">
					<syllabic>single</syllabic>
					<text font-size="10.8">bring</text>
				</lyric>
			</note>
		</measure>
		<!--=======================================================-->
		<measure number="8" width="209">
			<harmony default-y="36" font-size="10" font-weight="bold">
				<root>
					<root-step>E</root-step>
				</root>
				<kind halign="center" text="sus">suspended-fourth</kind>
			</harmony>
			<note default-x="29">
				<pitch>
					<step>B</step>
					<octave>4</octave>
				</pitch>
				<duration>6</duration>
				<voice>1</voice>
				<type>quarter</type>
				<dot />
				<stem default-y="-52">down</stem>
				<lyric default-y="-91" name="verse" number="1">
					<syllabic>single</syllabic>
					<text font-size="10.8">light</text>
				</lyric>
			</note>
			<note default-x="106">
				<pitch>
					<step>B</step>
					<octave>4</octave>
				</pitch>
				<duration>4</duration>
				<voice>1</voice>
				<type>quarter</type>
				<stem default-y="-52">down</stem>
				<lyric default-y="-91" name="verse" number="1">
					<syllabic>single</syllabic>
					<text font-size="10.8">to</text>
				</lyric>
			</note>
			<note default-x="166">
				<pitch>
					<step>A</step>
					<octave>4</octave>
				</pitch>
				<duration>2</duration>
				<voice>1</voice>
				<type>eighth</type>
				<stem default-y="7">up</stem>
				<lyric default-y="-91" name="verse" number="1">
					<syllabic>single</syllabic>
					<text font-size="10.8">the</text>
				</lyric>
			</note>
		</measure>
		<!--=======================================================-->
		<measure number="9" width="318">
			<note default-x="21">
				<pitch>
					<step>B</step>
					<octave>4</octave>
				</pitch>
				<duration>6</duration>
				<voice>1</voice>
				<type>quarter</type>
				<dot />
				<stem default-y="-52">down</stem>
				<lyric default-y="-91" name="verse" number="1">
					<syllabic>begin</syllabic>
					<text font-size="10.8">dark</text>
				</lyric>
			</note>
			<note default-x="132">
				<pitch>
					<step>A</step>
					<octave>4</octave>
				</pitch>
				<duration>2</duration>
				<voice>1</voice>
				<type>eighth</type>
				<stem default-y="6.5">up</stem>
				<beam number="1">begin</beam>
				<lyric default-y="-91" name="verse" number="1">
					<syllabic>end</syllabic>
					<text font-size="10.8">ness.</text>
				</lyric>
			</note>
			<note default-x="197">
				<pitch>
					<step>F</step>
					<alter>1</alter>
					<octave>4</octave>
				</pitch>
				<duration>2</duration>
				<voice>1</voice>
				<type>eighth</type>
				<stem default-y="4">up</stem>
				<beam number="1">continue</beam>
				<lyric default-y="-91" name="verse" number="1">
					<syllabic>single</syllabic>
					<text font-size="10.8">You</text>
				</lyric>
			</note>
			<note default-x="259">
				<pitch>
					<step>G</step>
					<alter>1</alter>
					<octave>4</octave>
				</pitch>
				<duration>2</duration>
				<voice>1</voice>
				<type>eighth</type>
				<stem default-y="1">up</stem>
				<beam number="1">end</beam>
				<lyric default-y="-91" name="verse" number="1">
					<syllabic>single</syllabic>
					<text font-size="10.8">give</text>
				</lyric>
			</note>
		</measure>
		<!--=======================================================-->
		<measure number="10" width="325">
			<print new-system="yes">
				<system-layout>
					<system-distance>180</system-distance>
				</system-layout>
			</print>
			<harmony default-y="36" font-size="10" font-weight="bold">
				<root>
					<root-step>D</root-step>
				</root>
				<kind halign="center" text="">major</kind>
			</harmony>
			<note default-x="108">
				<pitch>
					<step>A</step>
					<octave>4</octave>
				</pitch>
				<duration>6</duration>
				<voice>1</voice>
				<type>quarter</type>
				<dot />
				<stem default-y="7">up</stem>
				<lyric default-y="-91" name="verse" number="1">
					<syllabic>single</syllabic>
					<text font-size="10.8">hope.</text>
				</lyric>
			</note>
			<note default-x="192">
				<rest />
				<duration>2</duration>
				<voice>1</voice>
				<type>eighth</type>
			</note>
			<note default-x="234">
				<pitch>
					<step>F</step>
					<alter>1</alter>
					<octave>4</octave>
				</pitch>
				<duration>2</duration>
				<voice>1</voice>
				<type>eighth</type>
				<stem default-y="-3">up</stem>
				<beam number="1">begin</beam>
				<lyric default-y="-91" name="verse" number="1">
					<syllabic>single</syllabic>
					<text font-size="10.8">You</text>
				</lyric>
			</note>
			<note default-x="281">
				<pitch>
					<step>G</step>
					<alter>1</alter>
					<octave>4</octave>
				</pitch>
				<duration>2</duration>
				<voice>1</voice>
				<type>eighth</type>
				<stem default-y="1.5">up</stem>
				<beam number="1">end</beam>
				<lyric default-y="-91" name="verse" number="1">
					<syllabic>begin</syllabic>
					<text font-size="10.8">re</text>
				</lyric>
			</note>
		</measure>
		<!--=======================================================-->
		<measure number="11" width="238">
			<harmony default-y="36" font-size="10" font-weight="bold">
				<root>
					<root-step>F</root-step>
					<root-alter>1</root-alter>
				</root>
				<kind halign="center" text="m7">minor-seventh</kind>
			</harmony>
			<note default-x="30">
				<pitch>
					<step>A</step>
					<octave>4</octave>
				</pitch>
				<duration>6</duration>
				<voice>1</voice>
				<type>quarter</type>
				<dot />
				<stem default-y="7">up</stem>
				<lyric default-y="-91" name="verse" number="1">
					<syllabic>end</syllabic>
					<text font-size="10.8">store</text>
				</lyric>
			</note>
			<note default-x="112">
				<rest />
				<duration>2</duration>
				<voice>1</voice>
				<type>eighth</type>
			</note>
			<note default-x="150">
				<pitch>
					<step>E</step>
					<octave>4</octave>
				</pitch>
				<duration>2</duration>
				<voice>1</voice>
				<type>eighth</type>
				<stem default-y="6.5">up</stem>
				<beam number="1">begin</beam>
				<lyric default-y="-91" name="verse" number="1">
					<syllabic>begin</syllabic>
					<text font-size="10.8">ev</text>
				</lyric>
			</note>
			<note default-x="195">
				<pitch>
					<step>B</step>
					<octave>4</octave>
				</pitch>
				<duration>2</duration>
				<voice>1</voice>
				<type>eighth</type>
				<stem default-y="11">up</stem>
				<beam number="1">end</beam>
				<lyric default-y="-91" name="verse" number="1">
					<syllabic>end</syllabic>
					<text font-size="10.8">’ry</text>
				</lyric>
			</note>
		</measure>
		<!--=======================================================-->
		<measure number="12" width="215">
			<harmony default-y="36" font-size="10" font-weight="bold">
				<root>
					<root-step>E</root-step>
				</root>
				<kind halign="center" text="sus">suspended-fourth</kind>
			</harmony>
			<note default-x="29">
				<pitch>
					<step>B</step>
					<octave>4</octave>
				</pitch>
				<duration>6</duration>
				<voice>1</voice>
				<type>quarter</type>
				<dot />
				<stem default-y="-51.5">down</stem>
				<lyric default-y="-91" name="verse" number="1">
					<syllabic>single</syllabic>
					<text font-size="10.8">heart</text>
				</lyric>
			</note>
			<note default-x="112">
				<pitch>
					<step>B</step>
					<octave>4</octave>
				</pitch>
				<duration>4</duration>
				<voice>1</voice>
				<type>quarter</type>
				<stem default-y="-51.5">down</stem>
				<lyric default-y="-91" name="verse" number="1">
					<syllabic>single</syllabic>
					<text font-size="10.8">that</text>
				</lyric>
			</note>
			<note default-x="175">
				<pitch>
					<step>B</step>
					<octave>4</octave>
				</pitch>
				<duration>2</duration>
				<voice>1</voice>
				<type>eighth</type>
				<stem default-y="-51.5">down</stem>
				<lyric default-y="-91" name="verse" number="1">
					<syllabic>single</syllabic>
					<text font-size="10.8">is</text>
				</lyric>
			</note>
		</measure>
		<!--=======================================================-->
		<measure number="13" width="164">
			<note default-x="21">
				<pitch>
					<step>B</step>
					<octave>4</octave>
				</pitch>
				<duration>6</duration>
				<voice>1</voice>
				<type>quarter</type>
				<dot />
				<stem default-y="-51.5">down</stem>
				<lyric default-y="-91" name="verse" number="1">
					<syllabic>begin</syllabic>
					<text font-size="10.8">bro</text>
				</lyric>
			</note>
			<note default-x="92">
				<pitch>
					<step>A</step>
					<octave>4</octave>
				</pitch>
				<duration>6</duration>
				<tie type="start" />
				<voice>1</voice>
				<type>quarter</type>
				<dot />
				<stem default-y="7">up</stem>
				<notations>
					<tied type="start" />
				</notations>
				<lyric default-y="-91" name="verse" number="1">
					<syllabic>end</syllabic>
					<text font-size="10.8">ken.</text>
					<extend type="start" />
				</lyric>
			</note>
		</measure>
		<!--=======================================================-->
		<measure number="14" width="227">
			<harmony default-y="36" font-size="10" font-weight="bold">
				<root>
					<root-step>D</root-step>
				</root>
				<kind halign="center" text="">major</kind>
			</harmony>
			<note default-x="23">
				<pitch>
					<step>A</step>
					<octave>4</octave>
				</pitch>
				<duration>6</duration>
				<tie type="stop" />
				<voice>1</voice>
				<type>quarter</type>
				<dot />
				<stem default-y="7">up</stem>
				<notations>
					<tied type="stop" />
				</notations>
				<lyric name="verse" number="1">
					<extend type="stop" />
				</lyric>
			</note>
			<note default-x="98">
				<rest />
				<duration>2</duration>
				<voice>1</voice>
				<type>eighth</type>
			</note>
			<note default-x="133">
				<rest />
				<duration>3</duration>
				<voice>1</voice>
				<type>eighth</type>
				<dot />
			</note>
			<note default-x="180">
				<pitch>
					<step>E</step>
					<octave>4</octave>
				</pitch>
				<duration>1</duration>
				<voice>1</voice>
				<type>16th</type>
				<stem default-y="-8">up</stem>
				<lyric default-y="-91" name="verse" number="1">
					<syllabic>single</syllabic>
					<text font-size="10.8">And</text>
				</lyric>
			</note>
		</measure>
		<!--=======================================================-->
		<measure number="15" width="314">
			<print new-system="yes">
				<system-layout>
					<system-distance>180</system-distance>
				</system-layout>
			</print>
			<harmony default-y="36" font-size="10" font-weight="bold">
				<root>
					<root-step>F</root-step>
					<root-alter>1</root-alter>
				</root>
				<kind halign="center" text="m7">minor-seventh</kind>
			</harmony>
			<note default-x="115">
				<pitch>
					<step>C</step>
					<alter>1</alter>
					<octave>5</octave>
				</pitch>
				<duration>6</duration>
				<voice>1</voice>
				<type>quarter</type>
				<dot />
				<stem default-y="-47">down</stem>
				<lyric default-y="-91" name="verse" number="1">
					<syllabic>single</syllabic>
					<text font-size="10.8">great</text>
				</lyric>
			</note>
			<note default-x="201">
				<pitch>
					<step>D</step>
					<octave>5</octave>
				</pitch>
				<duration>4</duration>
				<voice>1</voice>
				<type>quarter</type>
				<stem default-y="-42">down</stem>
				<lyric default-y="-91" name="verse" number="1">
					<syllabic>single</syllabic>
					<text font-size="10.8">are</text>
				</lyric>
			</note>
			<note default-x="264">
				<pitch>
					<step>C</step>
					<alter>1</alter>
					<octave>5</octave>
				</pitch>
				<duration>1</duration>
				<voice>1</voice>
				<type>16th</type>
				<stem default-y="-46">down</stem>
				<beam number="1">begin</beam>
				<beam number="2">begin</beam>
				<notations>
					<slur number="1" placement="above" type="start" />
				</notations>
				<lyric default-y="-91" name="verse" number="1">
					<syllabic>single</syllabic>
					<text font-size="10.8">You,</text>
					<extend type="start" />
				</lyric>
			</note>
			<note default-x="288">
				<pitch>
					<step>B</step>
					<octave>4</octave>
				</pitch>
				<duration>1</duration>
				<voice>1</voice>
				<type>16th</type>
				<stem default-y="-51">down</stem>
				<beam number="1">end</beam>
				<beam number="2">end</beam>
				<notations>
					<slur number="1" type="stop" />
				</notations>
				<lyric name="verse" number="1">
					<extend type="stop" />
				</lyric>
			</note>
		</measure>
		<!--=======================================================-->
		<measure number="16" width="161">
			<harmony default-y="36" font-size="10" font-weight="bold">
				<root>
					<root-step>E</root-step>
				</root>
				<kind halign="center" text="sus">suspended-fourth</kind>
			</harmony>
			<note default-x="29">
				<pitch>
					<step>B</step>
					<octave>4</octave>
				</pitch>
				<duration>6</duration>
				<voice>1</voice>
				<type>quarter</type>
				<dot />
				<stem default-y="-51.5">down</stem>
				<lyric default-y="-91" name="verse" number="1">
					<syllabic>single</syllabic>
					<text font-size="10.8">Lord.</text>
				</lyric>
			</note>
			<note default-x="95">
				<rest />
				<duration>6</duration>
				<voice>1</voice>
				<type>quarter</type>
				<dot />
			</note>
		</measure>
		<!--=======================================================-->
		<measure number="17" width="247">
			<note default-x="21">
				<rest />
				<duration>6</duration>
				<voice>1</voice>
				<type>quarter</type>
				<dot />
			</note>
			<note default-x="95">
				<rest />
				<duration>2</duration>
				<voice>1</voice>
				<type>eighth</type>
			</note>
			<note default-x="130">
				<pitch>
					<step>A</step>
					<octave>4</octave>
				</pitch>
				<duration>2</duration>
				<voice>1</voice>
				<type>eighth</type>
				<stem default-y="-56">down</stem>
				<beam number="1">begin</beam>
				<lyric default-y="-91" name="verse" number="1">
					<syllabic>single</syllabic>
					<text font-size="10.8">It’s</text>
				</lyric>
			</note>
			<note default-x="187">
				<pitch>
					<step>E</step>
					<octave>5</octave>
				</pitch>
				<duration>2</duration>
				<voice>1</voice>
				<type>eighth</type>
				<stem default-y="-51">down</stem>
				<beam number="1">end</beam>
				<lyric default-y="-91" name="verse" number="1">
					<syllabic>single</syllabic>
					<text font-size="10.8">Your</text>
				</lyric>
			</note>
			<barline location="right">
				<bar-style>light-light</bar-style>
			</barline>
		</measure>
		<!--=======================================================-->
		<measure number="18" width="221">
			<direction placement="above">
				<direction-type>
					<segno default-x="-13" default-y="59" />
				</direction-type>
				<sound divisions="4" segno="18" />
			</direction>
			<harmony default-y="36" font-size="10" font-weight="bold">
				<root>
					<root-step>D</root-step>
				</root>
				<kind halign="center" text="">major</kind>
			</harmony>
			<direction placement="above">
				<direction-type>
					<rehearsal default-y="69" font-weight="bold" relative-x="21">CHORUS</rehearsal>
				</direction-type>
			</direction>
			<note default-x="24">
				<pitch>
					<step>E</step>
					<octave>5</octave>
				</pitch>
				<duration>6</duration>
				<voice>1</voice>
				<type>quarter</type>
				<dot />
				<stem default-y="-37">down</stem>
				<lyric default-y="-91" name="verse" number="1">
					<syllabic>single</syllabic>
					<text font-size="10.8">breath</text>
				</lyric>
			</note>
			<note default-x="98">
				<rest />
				<duration>2</duration>
				<voice>1</voice>
				<type>eighth</type>
			</note>
			<note default-x="133">
				<pitch>
					<step>A</step>
					<octave>4</octave>
				</pitch>
				<duration>2</duration>
				<voice>1</voice>
				<type>eighth</type>
				<stem default-y="-56">down</stem>
				<beam number="1">begin</beam>
				<lyric default-y="-91" name="verse" number="1">
					<syllabic>single</syllabic>
					<text font-size="10.8">in</text>
				</lyric>
			</note>
			<note default-x="176">
				<pitch>
					<step>E</step>
					<octave>5</octave>
				</pitch>
				<duration>2</duration>
				<voice>1</voice>
				<type>eighth</type>
				<stem default-y="-51">down</stem>
				<beam number="1">end</beam>
				<lyric default-y="-91" name="verse" number="1">
					<syllabic>single</syllabic>
					<text font-size="10.8">our</text>
				</lyric>
			</note>
		</measure>
		<!--=======================================================-->
		<measure number="19" width="228">
			<harmony default-y="36" font-size="10" font-weight="bold">
				<root>
					<root-step>F</root-step>
					<root-alter>1</root-alter>
				</root>
				<kind halign="center" text="m7">minor-seventh</kind>
			</harmony>
			<note default-x="30">
				<pitch>
					<step>E</step>
					<octave>5</octave>
				</pitch>
				<duration>6</duration>
				<voice>1</voice>
				<type>quarter</type>
				<dot />
				<stem default-y="-37">down</stem>
				<lyric default-y="-91" name="verse" number="1">
					<syllabic>single</syllabic>
					<text font-size="10.8">lungs,</text>
				</lyric>
			</note>
			<note default-x="103">
				<rest />
				<duration>2</duration>
				<voice>1</voice>
				<type>eighth</type>
			</note>
			<note default-x="137">
				<pitch>
					<step>A</step>
					<octave>4</octave>
				</pitch>
				<duration>2</duration>
				<voice>1</voice>
				<type>eighth</type>
				<stem default-y="-56">down</stem>
				<beam number="1">begin</beam>
				<lyric default-y="-91" name="verse" number="1">
					<syllabic>single</syllabic>
					<text font-size="10.8">so</text>
				</lyric>
			</note>
			<note default-x="183">
				<pitch>
					<step>E</step>
					<octave>5</octave>
				</pitch>
				<duration>2</duration>
				<voice>1</voice>
				<type>eighth</type>
				<stem default-y="-51">down</stem>
				<beam number="1">end</beam>
				<lyric default-y="-91" name="verse" number="1">
					<syllabic>single</syllabic>
					<text font-size="10.8">we</text>
				</lyric>
			</note>
		</measure>
		<!--=======================================================-->
		<measure number="20" width="409">
			<print new-system="yes">
				<system-layout>
					<system-distance>180</system-distance>
				</system-layout>
			</print>
			<harmony default-y="36" font-size="10" font-weight="bold">
				<root>
					<root-step>E</root-step>
				</root>
				<kind halign="center" text="sus">suspended-fourth</kind>
			</harmony>
			<note default-x="125">
				<pitch>
					<step>E</step>
					<octave>5</octave>
				</pitch>
				<duration>2</duration>
				<voice>1</voice>
				<type>eighth</type>
				<stem default-y="-36">down</stem>
				<beam number="1">begin</beam>
				<lyric default-y="-91" name="verse" number="1">
					<syllabic>single</syllabic>
					<text font-size="10.8">pour</text>
				</lyric>
			</note>
			<note default-x="184">
				<pitch>
					<step>E</step>
					<octave>5</octave>
				</pitch>
				<duration>2</duration>
				<voice>1</voice>
				<type>eighth</type>
				<stem default-y="-36">down</stem>
				<beam number="1">continue</beam>
				<lyric default-y="-91" name="verse" number="1">
					<syllabic>single</syllabic>
					<text font-size="10.8">out</text>
				</lyric>
			</note>
			<note default-x="236">
				<pitch>
					<step>E</step>
					<octave>5</octave>
				</pitch>
				<duration>2</duration>
				<voice>1</voice>
				<type>eighth</type>
				<stem default-y="-36">down</stem>
				<beam number="1">end</beam>
				<lyric default-y="-91" name="verse" number="1">
					<syllabic>single</syllabic>
					<text font-size="10.8">our</text>
				</lyric>
			</note>
			<note default-x="306">
				<pitch>
					<step>E</step>
					<octave>5</octave>
				</pitch>
				<duration>2</duration>
				<voice>1</voice>
				<type>eighth</type>
				<stem default-y="-51">down</stem>
				<beam number="1">begin</beam>
				<lyric default-y="-91" name="verse" number="1">
					<syllabic>single</syllabic>
					<text font-size="10.8">praise,</text>
				</lyric>
			</note>
			<note default-x="329">
				<rest />
				<duration>3</duration>
				<voice>1</voice>
				<type>eighth</type>
				<dot />
			</note>
			<note default-x="367">
				<pitch>
					<step>A</step>
					<octave>4</octave>
				</pitch>
				<duration>1</duration>
				<voice>1</voice>
				<type>16th</type>
				<stem default-y="-56">down</stem>
				<beam number="1">end</beam>
				<beam number="2">backward hook</beam>
				<lyric default-y="-91" name="verse" number="1">
					<syllabic>single</syllabic>
					<text font-size="10.8">we</text>
				</lyric>
			</note>
		</measure>
		<!--=======================================================-->
		<measure number="21" width="372">
			<note default-x="20">
				<pitch>
					<step>E</step>
					<octave>5</octave>
				</pitch>
				<duration>2</duration>
				<voice>1</voice>
				<type>eighth</type>
				<stem default-y="-36">down</stem>
				<beam number="1">begin</beam>
				<lyric default-y="-91" name="verse" number="1">
					<syllabic>single</syllabic>
					<text font-size="10.8">pour</text>
				</lyric>
			</note>
			<note default-x="79">
				<pitch>
					<step>E</step>
					<octave>5</octave>
				</pitch>
				<duration>2</duration>
				<voice>1</voice>
				<type>eighth</type>
				<stem default-y="-36">down</stem>
				<beam number="1">continue</beam>
				<lyric default-y="-91" name="verse" number="1">
					<syllabic>single</syllabic>
					<text font-size="10.8">out</text>
				</lyric>
			</note>
			<note default-x="130">
				<pitch>
					<step>E</step>
					<octave>5</octave>
				</pitch>
				<duration>2</duration>
				<voice>1</voice>
				<type>eighth</type>
				<stem default-y="-36">down</stem>
				<beam number="1">end</beam>
				<lyric default-y="-91" name="verse" number="1">
					<syllabic>single</syllabic>
					<text font-size="10.8">our</text>
				</lyric>
			</note>
			<note default-x="200">
				<pitch>
					<step>F</step>
					<alter>1</alter>
					<octave>5</octave>
				</pitch>
				<duration>2</duration>
				<voice>1</voice>
				<type>eighth</type>
				<stem default-y="-46">down</stem>
				<beam number="1">begin</beam>
				<lyric default-y="-91" name="verse" number="1">
					<syllabic>single</syllabic>
					<text font-size="10.8">praise.</text>
				</lyric>
			</note>
			<note default-x="264">
				<pitch>
					<step>C</step>
					<alter>1</alter>
					<octave>5</octave>
				</pitch>
				<duration>2</duration>
				<voice>1</voice>
				<type>eighth</type>
				<stem default-y="-46">down</stem>
				<beam number="1">continue</beam>
				<lyric default-y="-91" name="verse" number="1">
					<syllabic>single</syllabic>
					<text font-size="10.8">It’s</text>
				</lyric>
			</note>
			<note default-x="321">
				<pitch>
					<step>E</step>
					<octave>5</octave>
				</pitch>
				<duration>2</duration>
				<voice>1</voice>
				<type>eighth</type>
				<stem default-y="-46">down</stem>
				<beam number="1">end</beam>
				<lyric default-y="-91" name="verse" number="1">
					<syllabic>single</syllabic>
					<text font-size="10.8">Your</text>
				</lyric>
			</note>
		</measure>
		<!--=======================================================-->
		<measure number="22" width="192">
			<harmony default-y="36" font-size="10" font-weight="bold">
				<root>
					<root-step>D</root-step>
				</root>
				<kind halign="center" text="">major</kind>
			</harmony>
			<note default-x="25">
				<pitch>
					<step>E</step>
					<octave>5</octave>
				</pitch>
				<duration>6</duration>
				<voice>1</voice>
				<type>quarter</type>
				<dot />
				<stem default-y="-36.5">down</stem>
				<lyric default-y="-91" name="verse" number="1">
					<syllabic>single</syllabic>
					<text font-size="10.8">breath</text>
				</lyric>
			</note>
			<note default-x="79">
				<rest />
				<duration>2</duration>
				<voice>1</voice>
				<type>eighth</type>
			</note>
			<note default-x="104">
				<pitch>
					<step>A</step>
					<octave>4</octave>
				</pitch>
				<duration>2</duration>
				<voice>1</voice>
				<type>eighth</type>
				<stem default-y="-56">down</stem>
				<beam number="1">begin</beam>
				<lyric default-y="-91" name="verse" number="1">
					<syllabic>single</syllabic>
					<text font-size="10.8">in</text>
				</lyric>
			</note>
			<note default-x="147">
				<pitch>
					<step>E</step>
					<octave>5</octave>
				</pitch>
				<duration>2</duration>
				<voice>1</voice>
				<type>eighth</type>
				<stem default-y="-51">down</stem>
				<beam number="1">end</beam>
				<lyric default-y="-91" name="verse" number="1">
					<syllabic>single</syllabic>
					<text font-size="10.8">our</text>
				</lyric>
			</note>
		</measure>
		<!--=======================================================-->
		<measure number="23" width="197">
			<harmony default-y="36" font-size="10" font-weight="bold">
				<root>
					<root-step>F</root-step>
					<root-alter>1</root-alter>
				</root>
				<kind halign="center" text="m7">minor-seventh</kind>
			</harmony>
			<note default-x="30">
				<pitch>
					<step>E</step>
					<octave>5</octave>
				</pitch>
				<duration>6</duration>
				<voice>1</voice>
				<type>quarter</type>
				<dot />
				<stem default-y="-36.5">down</stem>
				<lyric default-y="-91" name="verse" number="1">
					<syllabic>single</syllabic>
					<text font-size="10.8">lungs,</text>
				</lyric>
			</note>
			<note default-x="83">
				<rest />
				<duration>2</duration>
				<voice>1</voice>
				<type>eighth</type>
			</note>
			<note default-x="109">
				<pitch>
					<step>A</step>
					<octave>4</octave>
				</pitch>
				<duration>2</duration>
				<voice>1</voice>
				<type>eighth</type>
				<stem default-y="-56">down</stem>
				<beam number="1">begin</beam>
				<lyric default-y="-91" name="verse" number="1">
					<syllabic>single</syllabic>
					<text font-size="10.8">so</text>
				</lyric>
			</note>
			<note default-x="155">
				<pitch>
					<step>E</step>
					<octave>5</octave>
				</pitch>
				<duration>2</duration>
				<voice>1</voice>
				<type>eighth</type>
				<stem default-y="-51">down</stem>
				<beam number="1">end</beam>
				<lyric default-y="-91" name="verse" number="1">
					<syllabic>single</syllabic>
					<text font-size="10.8">we</text>
				</lyric>
			</note>
			<direction placement="above">
				<direction-type>
					<words default-y="69" font-style="italic" justify="right">Last time to Coda </words>
				</direction-type>
				<direction-type>
					<coda />
				</direction-type>
				<sound time-only="5" tocoda="52" />
			</direction>
		</measure>
		<!--=======================================================-->
		<measure number="24" width="434">
			<print new-system="yes">
				<system-layout>
					<system-distance>180</system-distance>
				</system-layout>
			</print>
			<barline location="left">
				<ending default-y="84" end-length="84" font-size="6.2" number="1" print-object="yes" type="start" />
			</barline>
			<harmony default-y="36" font-size="10" font-weight="bold">
				<root>
					<root-step>E</root-step>
				</root>
				<kind halign="center" text="sus">suspended-fourth</kind>
			</harmony>
			<note default-x="124">
				<pitch>
					<step>E</step>
					<octave>5</octave>
				</pitch>
				<duration>2</duration>
				<voice>1</voice>
				<type>eighth</type>
				<stem default-y="-36">down</stem>
				<beam number="1">begin</beam>
				<lyric default-y="-91" name="verse" number="1">
					<syllabic>single</syllabic>
					<text font-size="10.8">pour</text>
				</lyric>
			</note>
			<note default-x="179">
				<pitch>
					<step>E</step>
					<octave>5</octave>
				</pitch>
				<duration>2</duration>
				<voice>1</voice>
				<type>eighth</type>
				<stem default-y="-36">down</stem>
				<beam number="1">continue</beam>
				<lyric default-y="-91" name="verse" number="1">
					<syllabic>single</syllabic>
					<text font-size="10.8">out</text>
				</lyric>
			</note>
			<note default-x="228">
				<pitch>
					<step>E</step>
					<octave>5</octave>
				</pitch>
				<duration>2</duration>
				<voice>1</voice>
				<type>eighth</type>
				<stem default-y="-36">down</stem>
				<beam number="1">end</beam>
				<lyric default-y="-91" name="verse" number="1">
					<syllabic>single</syllabic>
					<text font-size="10.8">our</text>
				</lyric>
			</note>
			<note default-x="290">
				<pitch>
					<step>E</step>
					<octave>5</octave>
				</pitch>
				<duration>3</duration>
				<voice>1</voice>
				<type>eighth</type>
				<dot />
				<stem default-y="-46">down</stem>
				<beam number="1">begin</beam>
				<lyric default-y="-91" name="verse" number="1">
					<syllabic>single</syllabic>
					<text font-size="10.8">praise</text>
				</lyric>
			</note>
			<note default-x="346">
				<pitch>
					<step>C</step>
					<alter>1</alter>
					<octave>5</octave>
				</pitch>
				<duration>1</duration>
				<voice>1</voice>
				<type>16th</type>
				<stem default-y="-46">down</stem>
				<beam number="1">continue</beam>
				<beam number="2">backward hook</beam>
				<lyric default-y="-91" name="verse" number="1">
					<syllabic>single</syllabic>
					<text font-size="10.8">to</text>
				</lyric>
			</note>
			<note default-x="391">
				<pitch>
					<step>C</step>
					<alter>1</alter>
					<octave>5</octave>
				</pitch>
				<duration>2</duration>
				<voice>1</voice>
				<type>eighth</type>
				<stem default-y="-46">down</stem>
				<beam number="1">end</beam>
				<lyric default-y="-91" name="verse" number="1">
					<syllabic>single</syllabic>
					<text font-size="10.8">You</text>
				</lyric>
			</note>
		</measure>
		<!--=======================================================-->
		<measure number="25" width="131">
			<note default-x="21">
				<pitch>
					<step>D</step>
					<octave>5</octave>
				</pitch>
				<duration>6</duration>
				<voice>1</voice>
				<type>quarter</type>
				<dot />
				<stem default-y="-42">down</stem>
				<lyric default-y="-91" name="verse" number="1">
					<syllabic>begin</syllabic>
					<text font-size="10.8">on</text>
				</lyric>
			</note>
			<note default-x="72">
				<pitch>
					<step>C</step>
					<alter>1</alter>
					<octave>5</octave>
				</pitch>
				<duration>6</duration>
				<voice>1</voice>
				<type>quarter</type>
				<dot />
				<stem default-y="-47">down</stem>
				<lyric default-y="-91" name="verse" number="1">
					<syllabic>end</syllabic>
					<text font-size="10.8">ly.</text>
				</lyric>
			</note>
			<barline location="right">
				<bar-style>light-light</bar-style>
			</barline>
		</measure>
		<!--=======================================================-->
		<measure number="26" width="125">
			<attributes>
				<measure-style>
					<slash type="start" use-stems="no" />
				</measure-style>
			</attributes>
			<harmony default-y="36" font-size="10" font-weight="bold">
				<root>
					<root-step>D</root-step>
				</root>
				<kind halign="center" text="">major</kind>
			</harmony>
			<direction placement="above">
				<direction-type>
					<rehearsal default-y="69" font-weight="bold" relative-x="-7">INSTRUMENTAL 1</rehearsal>
				</direction-type>
			</direction>
			<note default-x="21">
				<rest />
				<duration>6</duration>
				<voice>1</voice>
				<type>quarter</type>
				<dot />
			</note>
			<note default-x="72">
				<rest />
				<duration>6</duration>
				<voice>1</voice>
				<type>quarter</type>
				<dot />
			</note>
		</measure>
		<!--=======================================================-->
		<measure number="27" width="133">
			<harmony default-y="36" font-size="10" font-weight="bold">
				<root>
					<root-step>F</root-step>
					<root-alter>1</root-alter>
				</root>
				<kind halign="center" text="m7">minor-seventh</kind>
			</harmony>
			<note default-x="30">
				<rest />
				<duration>6</duration>
				<voice>1</voice>
				<type>quarter</type>
				<dot />
			</note>
			<note default-x="81">
				<rest />
				<duration>6</duration>
				<voice>1</voice>
				<type>quarter</type>
				<dot />
			</note>
		</measure>
		<!--=======================================================-->
		<measure number="28" width="132">
			<harmony default-y="36" font-size="10" font-weight="bold">
				<root>
					<root-step>E</root-step>
				</root>
				<kind halign="center" text="sus">suspended-fourth</kind>
			</harmony>
			<note default-x="29">
				<rest />
				<duration>6</duration>
				<voice>1</voice>
				<type>quarter</type>
				<dot />
			</note>
			<attributes>
				<measure-style>
					<slash type="stop" />
				</measure-style>
			</attributes>
			<note default-x="80">
				<rest />
				<duration>6</duration>
				<voice>1</voice>
				<type>quarter</type>
				<dot />
			</note>
		</measure>
		<!--=======================================================-->
		<measure number="29" width="215">
			<note default-x="21">
				<rest />
				<duration>6</duration>
				<voice>1</voice>
				<type>quarter</type>
				<dot />
			</note>
			<note default-x="67">
				<rest />
				<duration>2</duration>
				<voice>1</voice>
				<type>eighth</type>
			</note>
			<note default-x="90">
				<pitch>
					<step>F</step>
					<alter>1</alter>
					<octave>4</octave>
				</pitch>
				<duration>2</duration>
				<voice>1</voice>
				<type>eighth</type>
				<stem default-y="-3.5">up</stem>
				<beam number="1">begin</beam>
				<lyric default-y="-91" name="verse" number="1">
					<syllabic>single</syllabic>
					<text font-size="10.8">You</text>
				</lyric>
			</note>
			<note default-x="148">
				<pitch>
					<step>G</step>
					<alter>1</alter>
					<octave>4</octave>
				</pitch>
				<duration>2</duration>
				<voice>1</voice>
				<type>eighth</type>
				<stem default-y="1">up</stem>
				<beam number="1">end</beam>
				<lyric default-y="-91" name="verse" number="1">
					<syllabic>single</syllabic>
					<text font-size="10.8">give</text>
				</lyric>
			</note>
			<barline location="right">
				<bar-style>light-heavy</bar-style>
				<ending number="1" print-object="yes" type="stop" />
				<repeat direction="backward" winged="none" />
			</barline>
		</measure>
		<!--=======================================================-->
		<measure number="30" width="448">
			<print new-page="yes" page-number="2" />
			<barline location="left">
				<ending default-y="84" end-length="84" font-size="6.2" number="2, 4" print-object="yes" type="start" />
			</barline>
			<harmony default-y="36" font-size="10" font-weight="bold">
				<root>
					<root-step>E</root-step>
				</root>
				<kind halign="center" text="sus">suspended-fourth</kind>
			</harmony>
			<note default-x="125">
				<pitch>
					<step>E</step>
					<octave>5</octave>
				</pitch>
				<duration>2</duration>
				<voice>1</voice>
				<type>eighth</type>
				<stem default-y="-36">down</stem>
				<beam number="1">begin</beam>
				<lyric default-y="-91" name="verse" number="1">
					<syllabic>single</syllabic>
					<text font-size="10.8">pour</text>
				</lyric>
			</note>
			<note default-x="182">
				<pitch>
					<step>E</step>
					<octave>5</octave>
				</pitch>
				<duration>2</duration>
				<voice>1</voice>
				<type>eighth</type>
				<stem default-y="-36">down</stem>
				<beam number="1">continue</beam>
				<lyric default-y="-91" name="verse" number="1">
					<syllabic>single</syllabic>
					<text font-size="10.8">out</text>
				</lyric>
			</note>
			<note default-x="233">
				<pitch>
					<step>E</step>
					<octave>5</octave>
				</pitch>
				<duration>2</duration>
				<voice>1</voice>
				<type>eighth</type>
				<stem default-y="-36">down</stem>
				<beam number="1">end</beam>
				<lyric default-y="-91" name="verse" number="1">
					<syllabic>single</syllabic>
					<text font-size="10.8">our</text>
				</lyric>
			</note>
			<note default-x="298">
				<pitch>
					<step>E</step>
					<octave>5</octave>
				</pitch>
				<duration>3</duration>
				<voice>1</voice>
				<type>eighth</type>
				<dot />
				<stem default-y="-46">down</stem>
				<beam number="1">begin</beam>
				<lyric default-y="-91" name="verse" number="1">
					<syllabic>single</syllabic>
					<text font-size="10.8">praise</text>
				</lyric>
			</note>
			<note default-x="356">
				<pitch>
					<step>C</step>
					<alter>1</alter>
					<octave>5</octave>
				</pitch>
				<duration>1</duration>
				<voice>1</voice>
				<type>16th</type>
				<stem default-y="-46">down</stem>
				<beam number="1">continue</beam>
				<beam number="2">backward hook</beam>
				<lyric default-y="-91" name="verse" number="1">
					<syllabic>single</syllabic>
					<text font-size="10.8">to</text>
				</lyric>
			</note>
			<note default-x="403">
				<pitch>
					<step>C</step>
					<alter>1</alter>
					<octave>5</octave>
				</pitch>
				<duration>2</duration>
				<voice>1</voice>
				<type>eighth</type>
				<stem default-y="-46">down</stem>
				<beam number="1">end</beam>
				<lyric default-y="-91" name="verse" number="1">
					<syllabic>single</syllabic>
					<text font-size="10.8">You</text>
				</lyric>
			</note>
		</measure>
		<!--=======================================================-->
		<measure number="31" width="227">
			<note default-x="21">
				<pitch>
					<step>D</step>
					<octave>5</octave>
				</pitch>
				<duration>6</duration>
				<voice>1</voice>
				<type>quarter</type>
				<dot />
				<stem default-y="-42">down</stem>
				<lyric default-y="-91" name="verse" number="1">
					<syllabic>begin</syllabic>
					<text font-size="10.8">on</text>
				</lyric>
			</note>
			<note default-x="71">
				<pitch>
					<step>C</step>
					<alter>1</alter>
					<octave>5</octave>
				</pitch>
				<duration>2</duration>
				<voice>1</voice>
				<type>eighth</type>
				<stem default-y="-56">down</stem>
				<beam number="1">begin</beam>
				<lyric default-y="-91" name="verse" number="1">
					<syllabic>end</syllabic>
					<text font-size="10.8">ly.</text>
				</lyric>
			</note>
			<note default-x="112">
				<pitch>
					<step>A</step>
					<octave>4</octave>
				</pitch>
				<duration>2</duration>
				<voice>1</voice>
				<type>eighth</type>
				<stem default-y="-56">down</stem>
				<beam number="1">continue</beam>
				<lyric default-y="-91" name="verse" number="1">
					<syllabic>single</syllabic>
					<text font-size="10.8">It’s</text>
				</lyric>
			</note>
			<note default-x="169">
				<pitch>
					<step>E</step>
					<octave>5</octave>
				</pitch>
				<duration>2</duration>
				<voice>1</voice>
				<type>eighth</type>
				<stem default-y="-56">down</stem>
				<beam number="1">end</beam>
				<lyric default-y="-91" name="verse" number="1">
					<syllabic>single</syllabic>
					<text font-size="10.8">Your</text>
				</lyric>
			</note>
			<direction placement="above">
				<direction-type>
					<words default-x="211" default-y="29" font-style="italic" justify="right">D.S.</words>
				</direction-type>
				<sound dalsegno="18" />
			</direction>
			<barline location="right">
				<bar-style>light-light</bar-style>
				<ending number="2, 4" type="stop" />
			</barline>
		</measure>
		<!--=======================================================-->
		<measure number="32" width="360">
			<barline location="left">
				<ending default-y="84" end-length="84" font-size="6.2" number="3" print-object="yes" type="start" />
			</barline>
			<harmony default-y="36" font-size="10" font-weight="bold">
				<root>
					<root-step>E</root-step>
				</root>
				<kind halign="center" text="sus">suspended-fourth</kind>
			</harmony>
			<note default-x="38">
				<pitch>
					<step>E</step>
					<octave>5</octave>
				</pitch>
				<duration>2</duration>
				<voice>1</voice>
				<type>eighth</type>
				<stem default-y="-36">down</stem>
				<beam number="1">begin</beam>
				<lyric default-y="-91" name="verse" number="1">
					<syllabic>single</syllabic>
					<text font-size="10.8">pour</text>
				</lyric>
			</note>
			<note default-x="94">
				<pitch>
					<step>E</step>
					<octave>5</octave>
				</pitch>
				<duration>2</duration>
				<voice>1</voice>
				<type>eighth</type>
				<stem default-y="-36">down</stem>
				<beam number="1">continue</beam>
				<lyric default-y="-91" name="verse" number="1">
					<syllabic>single</syllabic>
					<text font-size="10.8">out</text>
				</lyric>
			</note>
			<note default-x="145">
				<pitch>
					<step>E</step>
					<octave>5</octave>
				</pitch>
				<duration>2</duration>
				<voice>1</voice>
				<type>eighth</type>
				<stem default-y="-36">down</stem>
				<beam number="1">end</beam>
				<lyric default-y="-91" name="verse" number="1">
					<syllabic>single</syllabic>
					<text font-size="10.8">our</text>
				</lyric>
			</note>
			<note default-x="210">
				<pitch>
					<step>E</step>
					<octave>5</octave>
				</pitch>
				<duration>3</duration>
				<voice>1</voice>
				<type>eighth</type>
				<dot />
				<stem default-y="-46">down</stem>
				<beam number="1">begin</beam>
				<lyric default-y="-91" name="verse" number="1">
					<syllabic>single</syllabic>
					<text font-size="10.8">praise</text>
				</lyric>
			</note>
			<note default-x="269">
				<pitch>
					<step>C</step>
					<alter>1</alter>
					<octave>5</octave>
				</pitch>
				<duration>1</duration>
				<voice>1</voice>
				<type>16th</type>
				<stem default-y="-46">down</stem>
				<beam number="1">continue</beam>
				<beam number="2">backward hook</beam>
				<lyric default-y="-91" name="verse" number="1">
					<syllabic>single</syllabic>
					<text font-size="10.8">to</text>
				</lyric>
			</note>
			<note default-x="316">
				<pitch>
					<step>C</step>
					<alter>1</alter>
					<octave>5</octave>
				</pitch>
				<duration>2</duration>
				<voice>1</voice>
				<type>eighth</type>
				<stem default-y="-46">down</stem>
				<beam number="1">end</beam>
				<lyric default-y="-91" name="verse" number="1">
					<syllabic>single</syllabic>
					<text font-size="10.8">You</text>
				</lyric>
			</note>
			<barline location="right">
				<ending number="3" type="discontinue" />
			</barline>
		</measure>
		<!--=======================================================-->
		<measure number="33" width="136">
			<note default-x="21">
				<pitch>
					<step>D</step>
					<octave>5</octave>
				</pitch>
				<duration>6</duration>
				<voice>1</voice>
				<type>quarter</type>
				<dot />
				<stem default-y="-42">down</stem>
				<lyric default-y="-91" name="verse" number="1">
					<syllabic>begin</syllabic>
					<text font-size="10.8">on</text>
				</lyric>
			</note>
			<note default-x="76">
				<pitch>
					<step>C</step>
					<alter>1</alter>
					<octave>5</octave>
				</pitch>
				<duration>6</duration>
				<voice>1</voice>
				<type>quarter</type>
				<dot />
				<stem default-y="-46.5">down</stem>
				<lyric default-y="-91" name="verse" number="1">
					<syllabic>end</syllabic>
					<text font-size="10.8">ly.</text>
				</lyric>
			</note>
			<barline location="right">
				<bar-style>light-light</bar-style>
			</barline>
		</measure>
		<!--=======================================================-->
		<measure number="34" width="215">
			<print new-system="yes">
				<system-layout>
					<system-distance>180</system-distance>
				</system-layout>
			</print>
			<attributes>
				<measure-style>
					<slash type="start" use-stems="no" />
				</measure-style>
			</attributes>
			<harmony default-y="36" font-size="10" font-weight="bold">
				<root>
					<root-step>A</root-step>
				</root>
				<kind halign="center" text="">major</kind>
			</harmony>
			<direction placement="above">
				<direction-type>
					<rehearsal default-y="69" font-weight="bold" relative-x="-5">INSTRUMENTAL 2</rehearsal>
				</direction-type>
			</direction>
			<note default-x="110">
				<rest />
				<duration>6</duration>
				<voice>1</voice>
				<type>quarter</type>
				<dot />
			</note>
			<note default-x="162">
				<rest />
				<duration>6</duration>
				<voice>1</voice>
				<type>quarter</type>
				<dot />
			</note>
		</measure>
		<!--=======================================================-->
		<measure number="35" width="126">
			<note default-x="20">
				<rest />
				<duration>6</duration>
				<voice>1</voice>
				<type>quarter</type>
				<dot />
			</note>
			<note default-x="72">
				<rest />
				<duration>6</duration>
				<voice>1</voice>
				<type>quarter</type>
				<dot />
			</note>
		</measure>
		<!--=======================================================-->
		<measure number="36" width="136">
			<harmony default-y="36" font-size="10" font-weight="bold">
				<root>
					<root-step>A</root-step>
				</root>
				<kind halign="center" text="sus">suspended-fourth</kind>
			</harmony>
			<note default-x="31">
				<rest />
				<duration>6</duration>
				<voice>1</voice>
				<type>quarter</type>
				<dot />
			</note>
			<note default-x="83">
				<rest />
				<duration>6</duration>
				<voice>1</voice>
				<type>quarter</type>
				<dot />
			</note>
		</measure>
		<!--=======================================================-->
		<measure number="37" width="126">
			<note default-x="20">
				<rest />
				<duration>6</duration>
				<voice>1</voice>
				<type>quarter</type>
				<dot />
			</note>
			<note default-x="72">
				<rest />
				<duration>6</duration>
				<voice>1</voice>
				<type>quarter</type>
				<dot />
			</note>
		</measure>
		<!--=======================================================-->
		<measure number="38" width="133">
			<harmony default-y="36" font-size="10" font-weight="bold">
				<root>
					<root-step>D</root-step>
				</root>
				<kind halign="center" text="2">major</kind>
				<degree print-object="no">
					<degree-value>2</degree-value>
					<degree-alter>0</degree-alter>
					<degree-type>add</degree-type>
				</degree>
			</harmony>
			<note default-x="28">
				<rest />
				<duration>6</duration>
				<voice>1</voice>
				<type>quarter</type>
				<dot />
			</note>
			<note default-x="80">
				<rest />
				<duration>6</duration>
				<voice>1</voice>
				<type>quarter</type>
				<dot />
			</note>
		</measure>
		<!--=======================================================-->
		<measure number="39" width="126">
			<note default-x="21">
				<rest />
				<duration>6</duration>
				<voice>1</voice>
				<type>quarter</type>
				<dot />
			</note>
			<attributes>
				<measure-style>
					<slash type="stop" />
				</measure-style>
			</attributes>
			<note default-x="73">
				<rest />
				<duration>6</duration>
				<voice>1</voice>
				<type>quarter</type>
				<dot />
			</note>
		</measure>
		<!--=======================================================-->
		<measure number="40" width="130">
			<harmony default-y="36" font-size="10" font-weight="bold">
				<root>
					<root-step>A</root-step>
				</root>
				<kind halign="center" text="">major</kind>
			</harmony>
			<note default-x="24">
				<rest />
				<duration>6</duration>
				<voice>1</voice>
				<type>quarter</type>
				<dot />
			</note>
			<note default-x="76">
				<rest />
				<duration>6</duration>
				<voice>1</voice>
				<type>quarter</type>
				<dot />
			</note>
		</measure>
		<!--=======================================================-->
		<measure number="41" width="179">
			<note default-x="21">
				<rest />
				<duration>6</duration>
				<voice>1</voice>
				<type>quarter</type>
				<dot />
			</note>
			<note default-x="70">
				<rest />
				<duration>2</duration>
				<voice>1</voice>
				<type>eighth</type>
			</note>
			<note default-x="94">
				<rest />
				<duration>3</duration>
				<voice>1</voice>
				<type>eighth</type>
				<dot />
			</note>
			<note default-x="127">
				<pitch>
					<step>E</step>
					<octave>4</octave>
				</pitch>
				<duration>1</duration>
				<voice>1</voice>
				<type>16th</type>
				<stem default-y="-8">up</stem>
				<lyric default-y="-91" name="verse" number="1">
					<syllabic>single</syllabic>
					<text font-size="10.8">And</text>
				</lyric>
			</note>
			<barline location="right">
				<bar-style>light-light</bar-style>
			</barline>
		</measure>
		<!--=======================================================-->
		<measure number="42" width="353">
			<print new-system="yes">
				<system-layout>
					<system-distance>180</system-distance>
				</system-layout>
			</print>
			<barline location="left">
				<bar-style>heavy-light</bar-style>
				<repeat direction="forward" winged="none" />
			</barline>
			<harmony default-y="36" font-size="10" font-weight="bold">
				<root>
					<root-step>A</root-step>
				</root>
				<kind halign="center" text="">major</kind>
			</harmony>
			<direction placement="above">
				<direction-type>
					<rehearsal default-y="69" font-weight="bold" relative-x="-5">BRIDGE</rehearsal>
				</direction-type>
			</direction>
			<note default-x="130">
				<pitch>
					<step>A</step>
					<octave>4</octave>
				</pitch>
				<duration>3</duration>
				<voice>1</voice>
				<type>eighth</type>
				<dot />
				<stem default-y="6">up</stem>
				<beam number="1">begin</beam>
				<lyric default-y="-91" name="verse" number="1">
					<syllabic>single</syllabic>
					<text font-size="10.8">all</text>
				</lyric>
			</note>
			<note default-x="182">
				<pitch>
					<step>A</step>
					<octave>4</octave>
				</pitch>
				<duration>3</duration>
				<voice>1</voice>
				<type>eighth</type>
				<dot />
				<stem default-y="6">up</stem>
				<beam number="1">end</beam>
				<lyric default-y="-91" name="verse" number="1">
					<syllabic>single</syllabic>
					<text font-size="10.8">the</text>
				</lyric>
			</note>
			<note default-x="243">
				<pitch>
					<step>A</step>
					<octave>4</octave>
				</pitch>
				<duration>3</duration>
				<voice>1</voice>
				<type>eighth</type>
				<dot />
				<stem default-y="6">up</stem>
				<beam number="1">begin</beam>
				<lyric default-y="-91" name="verse" number="1">
					<syllabic>single</syllabic>
					<text font-size="10.8">earth</text>
				</lyric>
			</note>
			<note default-x="304">
				<pitch>
					<step>A</step>
					<octave>4</octave>
				</pitch>
				<duration>3</duration>
				<voice>1</voice>
				<type>eighth</type>
				<dot />
				<stem default-y="6">up</stem>
				<beam number="1">end</beam>
				<lyric default-y="-91" name="verse" number="1">
					<syllabic>single</syllabic>
					<text font-size="10.8">will</text>
				</lyric>
			</note>
		</measure>
		<!--=======================================================-->
		<measure number="43" width="292">
			<note default-x="21">
				<pitch>
					<step>A</step>
					<octave>4</octave>
				</pitch>
				<duration>3</duration>
				<voice>1</voice>
				<type>eighth</type>
				<dot />
				<stem default-y="6">up</stem>
				<beam number="1">begin</beam>
				<lyric default-y="-91" name="verse" number="1">
					<syllabic>single</syllabic>
					<text font-size="10.8">shout</text>
				</lyric>
			</note>
			<note default-x="94">
				<pitch>
					<step>A</step>
					<octave>4</octave>
				</pitch>
				<duration>3</duration>
				<voice>1</voice>
				<type>eighth</type>
				<dot />
				<stem default-y="6">up</stem>
				<beam number="1">end</beam>
				<lyric default-y="-91" name="verse" number="1">
					<syllabic>single</syllabic>
					<text font-size="10.8">Your</text>
				</lyric>
			</note>
			<note default-x="172">
				<pitch>
					<step>E</step>
					<octave>4</octave>
				</pitch>
				<duration>2</duration>
				<voice>1</voice>
				<type>eighth</type>
				<stem default-y="1.5">up</stem>
				<beam number="1">begin</beam>
				<lyric default-y="-91" name="verse" number="1">
					<syllabic>single</syllabic>
					<text font-size="10.8">praise.</text>
				</lyric>
			</note>
			<note default-x="204">
				<rest />
				<duration>2</duration>
				<voice>1</voice>
				<type>eighth</type>
			</note>
			<note default-x="242">
				<pitch>
					<step>A</step>
					<octave>4</octave>
				</pitch>
				<duration>2</duration>
				<voice>1</voice>
				<type>eighth</type>
				<stem default-y="6">up</stem>
				<beam number="1">end</beam>
				<lyric default-y="-91" name="verse" number="1">
					<syllabic>single</syllabic>
					<text font-size="10.8">Our</text>
				</lyric>
			</note>
		</measure>
		<!--=======================================================-->
		<measure number="44" width="285">
			<harmony default-y="36" font-size="10" font-weight="bold">
				<root>
					<root-step>A</root-step>
				</root>
				<kind halign="center" text="sus">suspended-fourth</kind>
			</harmony>
			<note default-x="31">
				<pitch>
					<step>B</step>
					<octave>4</octave>
				</pitch>
				<duration>3</duration>
				<voice>1</voice>
				<type>eighth</type>
				<dot />
				<stem default-y="-51">down</stem>
				<beam number="1">begin</beam>
				<lyric default-y="-91" name="verse" number="1">
					<syllabic>single</syllabic>
					<text font-size="10.8">hearts</text>
				</lyric>
			</note>
			<note default-x="98">
				<pitch>
					<step>B</step>
					<octave>4</octave>
				</pitch>
				<duration>3</duration>
				<voice>1</voice>
				<type>eighth</type>
				<dot />
				<stem default-y="-51">down</stem>
				<beam number="1">end</beam>
				<lyric default-y="-91" name="verse" number="1">
					<syllabic>single</syllabic>
					<text font-size="10.8">will</text>
				</lyric>
			</note>
			<note default-x="157">
				<pitch>
					<step>B</step>
					<octave>4</octave>
				</pitch>
				<duration>3</duration>
				<voice>1</voice>
				<type>eighth</type>
				<dot />
				<stem default-y="-51">down</stem>
				<beam number="1">begin</beam>
				<lyric default-y="-91" name="verse" number="1">
					<syllabic>single</syllabic>
					<text font-size="10.8">cry,</text>
				</lyric>
			</note>
			<note default-x="223">
				<pitch>
					<step>B</step>
					<octave>4</octave>
				</pitch>
				<duration>3</duration>
				<voice>1</voice>
				<type>eighth</type>
				<dot />
				<stem default-y="-51">down</stem>
				<beam number="1">end</beam>
				<lyric default-y="-91" name="verse" number="1">
					<syllabic>single</syllabic>
					<text font-size="10.8">these</text>
				</lyric>
			</note>
		</measure>
		<!--=======================================================-->
		<measure number="45" width="241">
			<note default-x="24">
				<pitch>
					<step>B</step>
					<octave>4</octave>
				</pitch>
				<duration>3</duration>
				<voice>1</voice>
				<type>eighth</type>
				<dot />
				<stem default-y="-51">down</stem>
				<beam number="1">begin</beam>
				<lyric default-y="-91" name="verse" number="1">
					<syllabic>single</syllabic>
					<text font-size="10.8">bones</text>
				</lyric>
			</note>
			<note default-x="91">
				<pitch>
					<step>B</step>
					<octave>4</octave>
				</pitch>
				<duration>3</duration>
				<voice>1</voice>
				<type>eighth</type>
				<dot />
				<stem default-y="-51">down</stem>
				<beam number="1">end</beam>
				<lyric default-y="-91" name="verse" number="1">
					<syllabic>single</syllabic>
					<text font-size="10.8">will</text>
				</lyric>
			</note>
			<note default-x="150">
				<pitch>
					<step>B</step>
					<octave>4</octave>
				</pitch>
				<duration>2</duration>
				<voice>1</voice>
				<type>eighth</type>
				<stem default-y="11">up</stem>
				<beam number="1">begin</beam>
				<notations>
					<slur number="1" placement="below" type="start" />
				</notations>
				<lyric default-y="-91" name="verse" number="1">
					<syllabic>single</syllabic>
					<text font-size="10.8">sing,</text>
					<extend type="start" />
				</lyric>
			</note>
			<note default-x="180">
				<pitch>
					<step>A</step>
					<octave>4</octave>
				</pitch>
				<duration>2</duration>
				<voice>1</voice>
				<type>eighth</type>
				<stem default-y="6">up</stem>
				<beam number="1">end</beam>
				<notations>
					<slur number="1" type="stop" />
				</notations>
				<lyric name="verse" number="1">
					<extend type="stop" />
				</lyric>
			</note>
			<note default-x="210">
				<rest />
				<duration>2</duration>
				<voice>1</voice>
				<type>eighth</type>
			</note>
		</measure>
		<!--=======================================================-->
		<measure number="46" width="244">
			<print new-system="yes">
				<system-layout>
					<system-distance>180</system-distance>
				</system-layout>
			</print>
			<harmony default-y="36" font-size="10" font-weight="bold">
				<root>
					<root-step>D</root-step>
				</root>
				<kind halign="center" text="2">major</kind>
				<degree print-object="no">
					<degree-value>2</degree-value>
					<degree-alter>0</degree-alter>
					<degree-type>add</degree-type>
				</degree>
			</harmony>
			<note default-x="112">
				<pitch>
					<step>D</step>
					<octave>5</octave>
				</pitch>
				<duration>6</duration>
				<voice>1</voice>
				<type>quarter</type>
				<dot />
				<stem default-y="-42">down</stem>
				<lyric default-y="-91" name="verse" number="1">
					<syllabic>single</syllabic>
					<text font-size="10.8">"Great</text>
				</lyric>
			</note>
			<note default-x="177">
				<rest />
				<duration>6</duration>
				<voice>1</voice>
				<type>quarter</type>
				<dot />
			</note>
		</measure>
		<!--=======================================================-->
		<measure number="47" width="193">
			<note default-x="21">
				<pitch>
					<step>D</step>
					<octave>5</octave>
				</pitch>
				<duration>6</duration>
				<voice>1</voice>
				<type>quarter</type>
				<dot />
				<stem default-y="-42">down</stem>
				<lyric default-y="-91" name="verse" number="1">
					<syllabic>single</syllabic>
					<text font-size="10.8">are</text>
				</lyric>
			</note>
			<note default-x="93">
				<pitch>
					<step>E</step>
					<octave>5</octave>
				</pitch>
				<duration>4</duration>
				<tie type="start" />
				<voice>1</voice>
				<type>quarter</type>
				<stem default-y="-36.5">down</stem>
				<notations>
					<tied type="start" />
					<slur number="1" placement="above" type="start" />
				</notations>
				<lyric default-y="-91" name="verse" number="1">
					<syllabic>single</syllabic>
					<text font-size="10.8">You,</text>
					<extend type="start" />
				</lyric>
			</note>
			<note default-x="146">
				<pitch>
					<step>E</step>
					<octave>5</octave>
				</pitch>
				<duration>1</duration>
				<tie type="stop" />
				<voice>1</voice>
				<type>16th</type>
				<stem default-y="-41">down</stem>
				<beam number="1">begin</beam>
				<beam number="2">begin</beam>
				<notations>
					<tied type="stop" />
				</notations>
			</note>
			<note default-x="169">
				<pitch>
					<step>C</step>
					<alter>1</alter>
					<octave>5</octave>
				</pitch>
				<duration>1</duration>
				<voice>1</voice>
				<type>16th</type>
				<stem default-y="-46">down</stem>
				<beam number="1">end</beam>
				<beam number="2">end</beam>
				<notations>
					<slur number="1" type="stop" />
				</notations>
				<lyric name="verse" number="1">
					<extend type="stop" />
				</lyric>
			</note>
		</measure>
		<!--=======================================================-->
		<measure number="48" width="129">
			<barline location="left">
				<ending default-y="71" end-length="71" font-size="6.2" number="1, 2" print-object="yes" type="start" />
			</barline>
			<harmony default-y="36" font-size="10" font-weight="bold">
				<root>
					<root-step>A</root-step>
				</root>
				<kind halign="center" text="">major</kind>
			</harmony>
			<note default-x="23">
				<pitch>
					<step>C</step>
					<alter>1</alter>
					<octave>5</octave>
				</pitch>
				<duration>12</duration>
				<tie type="start" />
				<voice>1</voice>
				<type>half</type>
				<dot />
				<stem default-y="-47">down</stem>
				<notations>
					<tied type="start" />
				</notations>
				<lyric default-y="-91" name="verse" number="1">
					<syllabic>single</syllabic>
					<text font-size="10.8">Lord!"</text>
					<extend type="start" />
				</lyric>
			</note>
		</measure>
		<!--=======================================================-->
		<measure number="49" width="230">
			<note default-x="22">
				<pitch>
					<step>C</step>
					<alter>1</alter>
					<octave>5</octave>
				</pitch>
				<duration>6</duration>
				<tie type="stop" />
				<voice>1</voice>
				<type>quarter</type>
				<dot />
				<stem default-y="-47">down</stem>
				<notations>
					<tied type="stop" />
				</notations>
				<lyric name="verse" number="1">
					<extend type="stop" />
				</lyric>
			</note>
			<note default-x="90">
				<rest />
				<duration>2</duration>
				<voice>1</voice>
				<type>eighth</type>
			</note>
			<note default-x="121">
				<rest />
				<duration>3</duration>
				<voice>1</voice>
				<type>eighth</type>
				<dot />
			</note>
			<note default-x="163">
				<pitch>
					<step>E</step>
					<octave>4</octave>
				</pitch>
				<duration>1</duration>
				<voice>1</voice>
				<type>16th</type>
				<stem default-y="-8">up</stem>
				<lyric default-y="-91" name="verse" number="1">
					<syllabic>single</syllabic>
					<text font-size="10.8">And</text>
				</lyric>
			</note>
			<barline location="right">
				<bar-style>light-heavy</bar-style>
				<ending number="1, 2" print-object="yes" type="stop" />
				<repeat direction="backward" winged="none" />
			</barline>
		</measure>
		<!--=======================================================-->
		<measure number="50" width="128">
			<barline location="left">
				<ending default-y="71" end-length="71" font-size="6.2" number="3" print-object="yes" type="start" />
			</barline>
			<harmony default-y="36" font-size="10" font-weight="bold">
				<root>
					<root-step>A</root-step>
				</root>
				<kind halign="center" text="">major</kind>
			</harmony>
			<note default-x="21">
				<pitch>
					<step>E</step>
					<octave>5</octave>
				</pitch>
				<duration>12</duration>
				<tie type="start" />
				<voice>1</voice>
				<type>half</type>
				<dot />
				<stem default-y="-36.5">down</stem>
				<notations>
					<tied type="start" />
				</notations>
				<lyric default-y="-91" name="verse" number="1">
					<syllabic>single</syllabic>
					<text font-size="10.8">Lord!"</text>
					<extend type="start" />
				</lyric>
			</note>
			<barline location="right">
				<ending number="3" type="discontinue" />
			</barline>
		</measure>
		<!--=======================================================-->
		<measure number="51" width="247">
			<note default-x="21">
				<pitch>
					<step>E</step>
					<octave>5</octave>
				</pitch>
				<duration>6</duration>
				<tie type="stop" />
				<voice>1</voice>
				<type>quarter</type>
				<dot />
				<stem default-y="-36.5">down</stem>
				<notations>
					<tied type="stop" />
				</notations>
				<lyric name="verse" number="1">
					<extend type="stop" />
				</lyric>
			</note>
			<note default-x="97">
				<rest />
				<duration>2</duration>
				<voice>1</voice>
				<type>eighth</type>
			</note>
			<note default-x="131">
				<pitch>
					<step>A</step>
					<octave>4</octave>
				</pitch>
				<duration>2</duration>
				<voice>1</voice>
				<type>eighth</type>
				<stem default-y="-56">down</stem>
				<beam number="1">begin</beam>
				<lyric default-y="-91" name="verse" number="1">
					<syllabic>single</syllabic>
					<text font-size="10.8">It’s</text>
				</lyric>
			</note>
			<note default-x="188">
				<pitch>
					<step>E</step>
					<octave>5</octave>
				</pitch>
				<duration>2</duration>
				<voice>1</voice>
				<type>eighth</type>
				<stem default-y="-51">down</stem>
				<beam number="1">end</beam>
				<lyric default-y="-91" name="verse" number="1">
					<syllabic>single</syllabic>
					<text font-size="10.8">Your</text>
				</lyric>
			</note>
			<direction placement="above">
				<direction-type>
					<words default-x="239" default-y="15" font-style="italic" justify="right">D.S. al Coda</words>
				</direction-type>
				<sound dalsegno="18" />
			</direction>
			<barline location="right">
				<bar-style>light-light</bar-style>
			</barline>
		</measure>
		<!--=======================================================-->
		<measure number="52" width="567">
			<print new-system="yes">
				<system-layout>
					<system-margins>
						<left-margin>70</left-margin>
						<right-margin>0</right-margin>
					</system-margins>
					<system-distance>180</system-distance>
				</system-layout>
			</print>
			<direction placement="above">
				<direction-type>
					<coda default-x="2" default-y="66" />
				</direction-type>
				<sound coda="52" divisions="4" />
			</direction>
			<direction placement="above">
				<direction-type>
					<words default-x="29" default-y="64" font-style="italic">Coda</words>
				</direction-type>
			</direction>
			<harmony default-y="36" font-size="10" font-weight="bold">
				<root>
					<root-step>E</root-step>
				</root>
				<kind halign="center" text="sus">suspended-fourth</kind>
			</harmony>
			<note default-x="126">
				<pitch>
					<step>E</step>
					<octave>5</octave>
				</pitch>
				<duration>2</duration>
				<voice>1</voice>
				<type>eighth</type>
				<stem default-y="-36">down</stem>
				<beam number="1">begin</beam>
				<lyric default-y="-91" name="verse" number="1">
					<syllabic>single</syllabic>
					<text font-size="10.8">pour</text>
				</lyric>
			</note>
			<note default-x="200">
				<pitch>
					<step>E</step>
					<octave>5</octave>
				</pitch>
				<duration>2</duration>
				<voice>1</voice>
				<type>eighth</type>
				<stem default-y="-36">down</stem>
				<beam number="1">continue</beam>
				<lyric default-y="-91" name="verse" number="1">
					<syllabic>single</syllabic>
					<text font-size="10.8">out</text>
				</lyric>
			</note>
			<note default-x="274">
				<pitch>
					<step>E</step>
					<octave>5</octave>
				</pitch>
				<duration>2</duration>
				<voice>1</voice>
				<type>eighth</type>
				<stem default-y="-36">down</stem>
				<beam number="1">end</beam>
				<lyric default-y="-91" name="verse" number="1">
					<syllabic>single</syllabic>
					<text font-size="10.8">our</text>
				</lyric>
			</note>
			<note default-x="349">
				<pitch>
					<step>E</step>
					<octave>5</octave>
				</pitch>
				<duration>3</duration>
				<voice>1</voice>
				<type>eighth</type>
				<dot />
				<stem default-y="-46">down</stem>
				<beam number="1">begin</beam>
				<lyric default-y="-91" name="verse" number="1">
					<syllabic>single</syllabic>
					<text font-size="10.8">praise</text>
				</lyric>
			</note>
			<note default-x="447">
				<pitch>
					<step>C</step>
					<alter>1</alter>
					<octave>5</octave>
				</pitch>
				<duration>1</duration>
				<voice>1</voice>
				<type>16th</type>
				<stem default-y="-46">down</stem>
				<beam number="1">continue</beam>
				<beam number="2">backward hook</beam>
				<lyric default-y="-91" name="verse" number="1">
					<syllabic>single</syllabic>
					<text font-size="10.8">to</text>
				</lyric>
			</note>
			<note default-x="492">
				<pitch>
					<step>C</step>
					<alter>1</alter>
					<octave>5</octave>
				</pitch>
				<duration>2</duration>
				<voice>1</voice>
				<type>eighth</type>
				<stem default-y="-46">down</stem>
				<beam number="1">end</beam>
				<lyric default-y="-91" name="verse" number="1">
					<syllabic>single</syllabic>
					<text font-size="10.8">You</text>
				</lyric>
			</note>
		</measure>
		<!--=======================================================-->
		<measure number="53" width="178">
			<note default-x="22">
				<pitch>
					<step>D</step>
					<octave>5</octave>
				</pitch>
				<duration>6</duration>
				<voice>1</voice>
				<type>quarter</type>
				<dot />
				<stem default-y="-41.5">down</stem>
				<lyric default-y="-91" name="verse" number="1">
					<syllabic>begin</syllabic>
					<text font-size="10.8">on</text>
				</lyric>
			</note>
			<note default-x="96">
				<pitch>
					<step>C</step>
					<alter>1</alter>
					<octave>5</octave>
				</pitch>
				<duration>6</duration>
				<voice>1</voice>
				<type>quarter</type>
				<dot />
				<stem default-y="-47">down</stem>
				<lyric default-y="-91" name="verse" number="1">
					<syllabic>end</syllabic>
					<text font-size="10.8">ly.</text>
				</lyric>
			</note>
			<barline location="right">
				<bar-style>light-light</bar-style>
			</barline>
		</measure>
		<!--=======================================================-->
		<measure number="54" width="172">
			<attributes>
				<measure-style>
					<slash type="start" use-stems="no" />
				</measure-style>
			</attributes>
			<harmony default-y="36" font-size="10" font-weight="bold">
				<root>
					<root-step>D</root-step>
				</root>
				<kind halign="center" text="">major</kind>
			</harmony>
			<direction placement="above">
				<direction-type>
					<rehearsal default-y="69" font-weight="bold" relative-x="-5">ENDING</rehearsal>
				</direction-type>
			</direction>
			<note default-x="21">
				<rest />
				<duration>6</duration>
				<voice>1</voice>
				<type>quarter</type>
				<dot />
			</note>
			<note default-x="96">
				<rest />
				<duration>6</duration>
				<voice>1</voice>
				<type>quarter</type>
				<dot />
			</note>
		</measure>
		<!--=======================================================-->
		<measure number="55" width="183">
			<harmony default-y="36" font-size="10" font-weight="bold">
				<root>
					<root-step>F</root-step>
					<root-alter>1</root-alter>
				</root>
				<kind halign="center" text="m7">minor-seventh</kind>
			</harmony>
			<note default-x="30">
				<rest />
				<duration>6</duration>
				<voice>1</voice>
				<type>quarter</type>
				<dot />
			</note>
			<note default-x="105">
				<rest />
				<duration>6</duration>
				<voice>1</voice>
				<type>quarter</type>
				<dot />
			</note>
		</measure>
		<!--=======================================================-->
		<measure number="56" width="281">
			<print new-system="yes">
				<system-layout>
					<system-distance>180</system-distance>
				</system-layout>
			</print>
			<harmony default-y="36" font-size="10" font-weight="bold">
				<root>
					<root-step>E</root-step>
				</root>
				<kind halign="center" text="sus">suspended-fourth</kind>
			</harmony>
			<note default-x="115">
				<rest />
				<duration>6</duration>
				<voice>1</voice>
				<type>quarter</type>
				<dot />
			</note>
			<note default-x="197">
				<rest />
				<duration>6</duration>
				<voice>1</voice>
				<type>quarter</type>
				<dot />
			</note>
		</measure>
		<!--=======================================================-->
		<measure number="57" width="184">
			<note default-x="20">
				<rest />
				<duration>6</duration>
				<voice>1</voice>
				<type>quarter</type>
				<dot />
			</note>
			<note default-x="102">
				<rest />
				<duration>6</duration>
				<voice>1</voice>
				<type>quarter</type>
				<dot />
			</note>
		</measure>
		<!--=======================================================-->
		<measure number="58" width="187">
			<harmony default-y="36" font-size="10" font-weight="bold">
				<root>
					<root-step>D</root-step>
				</root>
				<kind halign="center" text="">major</kind>
			</harmony>
			<note default-x="23">
				<rest />
				<duration>6</duration>
				<voice>1</voice>
				<type>quarter</type>
				<dot />
			</note>
			<note default-x="104">
				<rest />
				<duration>6</duration>
				<voice>1</voice>
				<type>quarter</type>
				<dot />
			</note>
			<attributes>
				<measure-style>
					<slash type="stop" />
				</measure-style>
			</attributes>
		</measure>
		<!--=======================================================-->
		<measure number="59" width="197">
			<harmony default-y="36" font-size="10" font-weight="bold">
				<root>
					<root-step>F</root-step>
					<root-alter>1</root-alter>
				</root>
				<kind halign="center" text="m7">minor-seventh</kind>
			</harmony>
			<note default-x="30">
				<rest />
				<duration>6</duration>
				<voice>1</voice>
				<type>quarter</type>
				<dot />
			</note>
			<note default-x="113">
				<rest />
				<duration>6</duration>
				<voice>1</voice>
				<type>quarter</type>
				<dot />
			</note>
		</measure>
		<!--=======================================================-->
		<measure number="60" width="165">
			<attributes>
				<measure-style>
					<slash type="start" use-stems="yes" />
				</measure-style>
			</attributes>
			<harmony default-y="36" font-size="10" font-weight="bold">
				<root>
					<root-step>E</root-step>
				</root>
				<kind halign="center" text="sus">suspended-fourth</kind>
			</harmony>
			<note default-x="29">
				<pitch>
					<step>E</step>
					<octave>4</octave>
				</pitch>
				<duration>12</duration>
				<tie type="start" />
				<voice>1</voice>
				<type size="cue">half</type>
				<dot />
				<stem default-y="-61.5">down</stem>
				<notations>
					<tied type="start" />
				</notations>
			</note>
		</measure>
		<!--=======================================================-->
		<measure number="61" width="156">
			<note default-x="22">
				<pitch>
					<step>E</step>
					<octave>4</octave>
				</pitch>
				<duration>12</duration>
				<tie type="stop" />
				<voice>1</voice>
				<type size="cue">half</type>
				<dot />
				<stem default-y="-61.5">down</stem>
				<notations>
					<tied type="stop" />
				</notations>
			</note>
			<attributes>
				<measure-style>
					<slash type="stop" />
				</measure-style>
			</attributes>
			<barline location="right">
				<bar-style>light-heavy</bar-style>
			</barline>
		</measure>
	</part>
	<!--=========================================================-->
</score-partwise>