<?xml version="1.0" encoding="UTF-8" standalone="no"?>
<!DOCTYPE score-partwise PUBLIC "-//Recordare//DTD MusicXML 3.0 Partwise//EN" "http://www.musicxml.org/dtds/partwise.dtd"[]>
<score-partwise version="3.0">
	<movement-title>6th Sunday In Ordinary Time: Psalm 32 -\r\nI Turn To You Lord In Time Of Trouble</movement-title>
	<identification>
		<creator type="composer">Jake Blair</creator>
		<creator type="lyricist">ICEL\r\nCCD</creator>
		<encoding>
			<software>Finale 2014.5 for Windows</software>
			<software>Dolet Light for Finale 2014.5</software>
			<encoding-date>2020-11-20</encoding-date>
			<supports attribute="new-system" element="print" type="yes" value="yes" />
			<supports attribute="new-page" element="print" type="yes" value="yes" />
			<supports element="accidental" type="yes" />
			<supports element="beam" type="yes" />
			<supports element="stem" type="yes" />
		</encoding>
		<rights>CCLI Song # 7163264\r\n© 2020 CCD | ICEL | NOVUM PUBLISHING\r\nFor use solely with the SongSelect® Terms of Use. All rights reserved. www.ccli.com\r\nCCLI License # 12345\r\n</rights>
	</identification>
	<defaults>
		<scaling>
			<millimeters>6.5088</millimeters>
			<tenths>40</tenths>
		</scaling>
		<page-layout>
			<page-height>1717</page-height>
			<page-width>1327</page-width>
			<page-margins type="both">
				<left-margin>78</left-margin>
				<right-margin>78</right-margin>
				<top-margin>78</top-margin>
				<bottom-margin>78</bottom-margin>
			</page-margins>
		</page-layout>
		<system-layout>
			<system-margins>
				<left-margin>0</left-margin>
				<right-margin>0</right-margin>
			</system-margins>
			<system-distance>190</system-distance>
			<top-system-distance>117</top-system-distance>
		</system-layout>
		<appearance>
			<line-width type="stem">1.4583</line-width>
			<line-width type="beam">5</line-width>
			<line-width type="staff">1.25</line-width>
			<line-width type="light barline">1.4583</line-width>
			<line-width type="heavy barline">5</line-width>
			<line-width type="leger">1.875</line-width>
			<line-width type="ending">1.4583</line-width>
			<line-width type="wedge">1.4583</line-width>
			<line-width type="enclosure">1.4583</line-width>
			<line-width type="tuplet bracket">1.4583</line-width>
			<note-size type="grace">50</note-size>
			<note-size type="cue">50</note-size>
			<distance type="hyphen">240</distance>
			<distance type="beam">8</distance>
		</appearance>
		<music-font font-family="Maestro,engraved" font-size="18.5" />
		<word-font font-family="Arial" font-size="9.2" />
		<lyric-font font-family="Georgia" font-size="10.8" name="verse" />
		<lyric-font font-family="Arial" font-size="10.8" name="section" />
	</defaults>
	<credit page="1">
		<credit-type>title</credit-type>
		<credit-words default-x="663" default-y="1681" font-size="21.6" font-weight="bold" justify="center" valign="top" xml:space="preserve">6th Sunday In Ordinary Time: Psalm 32 -\r\nI Turn To You Lord In Time Of Trouble</credit-words>
	</credit>
	<credit page="1">
		<credit-words default-x="1249" default-y="1576" font-size="10.8" font-style="italic" justify="right" valign="top">Music by</credit-words>
	</credit>
	<credit page="1">
		<credit-words default-x="78" default-y="1576" font-size="10.8" font-style="italic" valign="top">Words:</credit-words>
	</credit>
	<credit page="1">
		<credit-type>lyricist</credit-type>
		<credit-words default-x="78" default-y="1552" font-size="10.8" font-weight="bold" valign="top" xml:space="preserve">ICEL\r\nCCD</credit-words>
	</credit>
	<credit page="1">
		<credit-type>composer</credit-type>
		<credit-words default-x="1249" default-y="1549" font-size="10.8" font-weight="bold" justify="right" valign="top">Jake Blair</credit-words>
	</credit>
	<part-list>
		<score-part id="P1">
			<part-name print-object="no">Vocals</part-name>
			<score-instrument id="P1-I2">
				<instrument-name>Melody</instrument-name>
			</score-instrument>
			<midi-instrument id="P1-I2">
				<midi-channel>1</midi-channel>
				<midi-program>1</midi-program>
				<volume>80</volume>
				<pan>0</pan>
			</midi-instrument>
		</score-part>
	</part-list>
	<!--=========================================================-->
	<part id="P1">
		<measure implicit="yes" number="0" width="230">
			<print>
				<page-layout>
					<page-height>1717</page-height>
					<page-width>1327</page-width>
					<page-margins>
						<left-margin>78</left-margin>
						<right-margin>78</right-margin>
						<top-margin>190</top-margin>
						<bottom-margin>163</bottom-margin>
					</page-margins>
				</page-layout>
				<system-layout>
					<system-margins>
						<left-margin>68</left-margin>
						<right-margin>0</right-margin>
					</system-margins>
				</system-layout>
				<measure-numbering>system</measure-numbering>
			</print>
			<attributes>
				<divisions>8</divisions>
				<key>
					<fifths>1</fifths>
					<mode>major</mode>
				</key>
				<time>
					<beats>4</beats>
					<beat-type>4</beat-type>
				</time>
				<clef>
					<sign>G</sign>
					<line>2</line>
				</clef>
			</attributes>
			<direction directive="yes" placement="above">
				<direction-type>
					<words default-y="41" font-style="italic" relative-x="-109" xml:space="preserve">Year B\r\nPsalm 32:1-2, 5, 11</words>
				</direction-type>
			</direction>
			<direction directive="yes" placement="above">
				<direction-type>
					<metronome default-y="59" halign="right">
						<beat-unit>quarter</beat-unit>
						<per-minute>68</per-minute>
					</metronome>
				</direction-type>
				<sound tempo="68" />
			</direction>
			<note default-x="106">
				<rest />
				<duration>4</duration>
				<voice>1</voice>
				<type>eighth</type>
			</note>
			<note default-x="164">
				<pitch>
					<step>G</step>
					<octave>4</octave>
				</pitch>
				<duration>4</duration>
				<voice>1</voice>
				<type>eighth</type>
				<stem default-y="2">up</stem>
				<lyric default-y="-91" name="verse" number="1">
					<syllabic>single</syllabic>
					<text font-size="10.8">I</text>
				</lyric>
			</note>
			<direction placement="above">
				<direction-type>
					<words default-y="169" font-style="italic" valign="top">(as published by Liturgy Resources)</words>
				</direction-type>
				<offset>9</offset>
			</direction>
			<barline location="right">
				<bar-style>light-light</bar-style>
			</barline>
		</measure>
		<!--=======================================================-->
		<measure number="1" width="431">
			<harmony default-y="36" font-size="10" font-weight="bold">
				<root>
					<root-step>G</root-step>
				</root>
				<kind halign="center" text="sus">suspended-fourth</kind>
			</harmony>
			<direction placement="above">
				<direction-type>
					<rehearsal default-y="69" font-weight="bold" relative-x="-5">REFRAIN</rehearsal>
				</direction-type>
			</direction>
			<note default-x="29">
				<pitch>
					<step>C</step>
					<octave>5</octave>
				</pitch>
				<duration>8</duration>
				<voice>1</voice>
				<type>quarter</type>
				<stem default-y="-46.5">down</stem>
				<lyric default-y="-91" name="verse" number="1">
					<syllabic>single</syllabic>
					<text font-size="10.8">turn</text>
				</lyric>
			</note>
			<note default-x="96">
				<pitch>
					<step>B</step>
					<octave>4</octave>
				</pitch>
				<duration>2</duration>
				<voice>1</voice>
				<type>16th</type>
				<stem default-y="11.5">up</stem>
				<beam number="1">begin</beam>
				<beam number="2">forward hook</beam>
				<lyric default-y="-91" name="verse" number="1">
					<syllabic>single</syllabic>
					<text font-size="10.8">to</text>
				</lyric>
			</note>
			<note default-x="162">
				<pitch>
					<step>A</step>
					<octave>4</octave>
				</pitch>
				<duration>4</duration>
				<voice>1</voice>
				<type>eighth</type>
				<stem default-y="11.5">up</stem>
				<beam number="1">continue</beam>
				<lyric default-y="-91" name="verse" number="1">
					<syllabic>single</syllabic>
					<text font-size="10.8">you,</text>
				</lyric>
			</note>
			<note default-x="229">
				<pitch>
					<step>B</step>
					<octave>4</octave>
				</pitch>
				<duration>2</duration>
				<tie type="start" />
				<voice>1</voice>
				<type>16th</type>
				<stem default-y="11.5">up</stem>
				<beam number="1">end</beam>
				<beam number="2">backward hook</beam>
				<notations>
					<tied type="start" />
				</notations>
				<lyric default-y="-91" name="verse" number="1">
					<syllabic>single</syllabic>
					<text font-size="10.8">Lord,</text>
					<extend type="start" />
				</lyric>
			</note>
			<harmony default-y="36" font-size="10" font-weight="bold">
				<root>
					<root-step>G</root-step>
				</root>
				<kind halign="center" text="">major</kind>
			</harmony>
			<note default-x="296">
				<pitch>
					<step>B</step>
					<octave>4</octave>
				</pitch>
				<duration>12</duration>
				<tie type="stop" />
				<voice>1</voice>
				<type>quarter</type>
				<dot />
				<stem default-y="-52">down</stem>
				<notations>
					<tied type="stop" />
				</notations>
				<lyric name="verse" number="1">
					<extend type="stop" />
				</lyric>
			</note>
			<note default-x="363">
				<pitch>
					<step>B</step>
					<octave>4</octave>
				</pitch>
				<duration>4</duration>
				<voice>1</voice>
				<type>eighth</type>
				<stem default-y="-52">down</stem>
				<lyric default-y="-91" name="verse" number="1">
					<syllabic>single</syllabic>
					<text font-size="10.8">in</text>
				</lyric>
			</note>
		</measure>
		<!--=======================================================-->
		<measure number="2" width="442">
			<harmony default-y="36" font-size="10" font-weight="bold">
				<root>
					<root-step>E</root-step>
				</root>
				<kind halign="center" text="m">minor</kind>
			</harmony>
			<note default-x="21">
				<pitch>
					<step>B</step>
					<octave>4</octave>
				</pitch>
				<duration>12</duration>
				<voice>1</voice>
				<type>quarter</type>
				<dot />
				<stem default-y="-52">down</stem>
				<lyric default-y="-91" name="verse" number="1">
					<syllabic>single</syllabic>
					<text font-size="10.8">time</text>
				</lyric>
			</note>
			<note default-x="91">
				<pitch>
					<step>A</step>
					<octave>4</octave>
				</pitch>
				<duration>4</duration>
				<voice>1</voice>
				<type>eighth</type>
				<stem default-y="7">up</stem>
				<lyric default-y="-91" name="verse" number="1">
					<syllabic>single</syllabic>
					<text font-size="10.8">of</text>
				</lyric>
			</note>
			<note default-x="160">
				<pitch>
					<step>A</step>
					<octave>4</octave>
				</pitch>
				<duration>4</duration>
				<voice>1</voice>
				<type>eighth</type>
				<stem default-y="7">up</stem>
				<lyric default-y="-91" name="verse" number="1">
					<syllabic>begin</syllabic>
					<text font-size="10.8">trou</text>
				</lyric>
			</note>
			<note default-x="231">
				<pitch>
					<step>B</step>
					<octave>4</octave>
				</pitch>
				<duration>8</duration>
				<voice>1</voice>
				<type>quarter</type>
				<stem default-y="-52">down</stem>
				<lyric default-y="-91" name="verse" number="1">
					<syllabic>end</syllabic>
					<text font-size="10.8">ble,</text>
				</lyric>
			</note>
			<note default-x="300">
				<pitch>
					<step>A</step>
					<octave>4</octave>
				</pitch>
				<duration>2</duration>
				<voice>1</voice>
				<type>16th</type>
				<stem default-y="6">up</stem>
				<beam number="1">begin</beam>
				<beam number="2">begin</beam>
				<lyric default-y="-91" name="verse" number="1">
					<syllabic>single</syllabic>
					<text font-size="10.8">and</text>
				</lyric>
			</note>
			<note default-x="371">
				<pitch>
					<step>A</step>
					<octave>4</octave>
				</pitch>
				<duration>2</duration>
				<voice>1</voice>
				<type>16th</type>
				<stem default-y="6">up</stem>
				<beam number="1">end</beam>
				<beam number="2">end</beam>
				<lyric default-y="-91" name="verse" number="1">
					<syllabic>single</syllabic>
					<text font-size="10.8">you</text>
				</lyric>
			</note>
		</measure>
		<!--=======================================================-->
		<measure number="3" width="865">
			<print new-system="yes">
				<system-layout>
					<system-distance>180</system-distance>
				</system-layout>
			</print>
			<harmony default-y="36" font-size="10" font-weight="bold">
				<root>
					<root-step>D</root-step>
				</root>
				<kind halign="center" text="sus">suspended-fourth</kind>
			</harmony>
			<note default-x="92">
				<pitch>
					<step>A</step>
					<octave>4</octave>
				</pitch>
				<duration>4</duration>
				<voice>1</voice>
				<type>eighth</type>
				<stem default-y="7">up</stem>
				<lyric default-y="-91" name="verse" number="1">
					<syllabic>single</syllabic>
					<text font-size="10.8">fill</text>
				</lyric>
			</note>
			<note default-x="189">
				<pitch>
					<step>G</step>
					<octave>4</octave>
				</pitch>
				<duration>8</duration>
				<voice>1</voice>
				<type>quarter</type>
				<stem default-y="2">up</stem>
				<lyric default-y="-91" name="verse" number="1">
					<syllabic>single</syllabic>
					<text font-size="10.8">me</text>
				</lyric>
			</note>
			<note default-x="285">
				<pitch>
					<step>A</step>
					<octave>4</octave>
				</pitch>
				<duration>2</duration>
				<voice>1</voice>
				<type>16th</type>
				<stem default-y="6.5">up</stem>
				<beam number="1">begin</beam>
				<beam number="2">begin</beam>
				<lyric default-y="-91" name="verse" number="1">
					<syllabic>single</syllabic>
					<text font-size="10.8">with</text>
				</lyric>
			</note>
			<note default-x="382">
				<pitch>
					<step>B</step>
					<octave>4</octave>
				</pitch>
				<duration>2</duration>
				<voice>1</voice>
				<type>16th</type>
				<stem default-y="11.5">up</stem>
				<beam number="1">end</beam>
				<beam number="2">end</beam>
				<lyric default-y="-91" name="verse" number="1">
					<syllabic>single</syllabic>
					<text font-size="10.8">the</text>
				</lyric>
			</note>
			<harmony default-y="36" font-size="10" font-weight="bold">
				<root>
					<root-step>D</root-step>
				</root>
				<kind halign="center" text="">major</kind>
			</harmony>
			<note default-x="478">
				<pitch>
					<step>C</step>
					<octave>5</octave>
				</pitch>
				<duration>6</duration>
				<voice>1</voice>
				<type>eighth</type>
				<dot />
				<stem default-y="-46">down</stem>
				<beam number="1">begin</beam>
				<lyric default-y="-91" name="verse" number="1">
					<syllabic>single</syllabic>
					<text font-size="10.8">joy</text>
				</lyric>
			</note>
			<note default-x="574">
				<pitch>
					<step>B</step>
					<octave>4</octave>
				</pitch>
				<duration>2</duration>
				<tie type="start" />
				<voice>1</voice>
				<type>16th</type>
				<stem default-y="-51">down</stem>
				<beam number="1">end</beam>
				<beam number="2">backward hook</beam>
				<notations>
					<tied type="start" />
				</notations>
				<lyric default-y="-91" name="verse" number="1">
					<syllabic>single</syllabic>
					<text font-size="10.8">of</text>
					<extend type="start" />
				</lyric>
			</note>
			<note default-x="671">
				<pitch>
					<step>B</step>
					<octave>4</octave>
				</pitch>
				<duration>4</duration>
				<tie type="stop" />
				<voice>1</voice>
				<type>eighth</type>
				<stem default-y="11.5">up</stem>
				<beam number="1">begin</beam>
				<notations>
					<tied type="stop" />
				</notations>
				<lyric name="verse" number="1">
					<extend type="stop" />
				</lyric>
			</note>
			<note default-x="767">
				<pitch>
					<step>A</step>
					<octave>4</octave>
				</pitch>
				<duration>4</duration>
				<voice>1</voice>
				<type>eighth</type>
				<stem default-y="6.5">up</stem>
				<beam number="1">end</beam>
				<lyric default-y="-91" name="verse" number="1">
					<syllabic>begin</syllabic>
					<text font-size="10.8">sal</text>
				</lyric>
			</note>
		</measure>
		<!--=======================================================-->
		<measure number="4" width="305">
			<harmony default-y="36" font-size="10" font-weight="bold">
				<root>
					<root-step>C</root-step>
				</root>
				<kind halign="center" text="">major</kind>
			</harmony>
			<note default-x="13">
				<pitch>
					<step>A</step>
					<octave>4</octave>
				</pitch>
				<duration>4</duration>
				<voice>1</voice>
				<type>eighth</type>
				<stem default-y="6.5">up</stem>
				<beam number="1">begin</beam>
				<lyric default-y="-91" name="verse" number="1">
					<syllabic>middle</syllabic>
					<text font-size="10.8">va</text>
				</lyric>
			</note>
			<note default-x="107">
				<pitch>
					<step>G</step>
					<octave>4</octave>
				</pitch>
				<duration>4</duration>
				<tie type="start" />
				<voice>1</voice>
				<type>eighth</type>
				<stem default-y="1">up</stem>
				<beam number="1">end</beam>
				<notations>
					<tied type="start" />
				</notations>
				<lyric default-y="-91" name="verse" number="1">
					<syllabic>end</syllabic>
					<text font-size="10.8">tion.</text>
					<extend type="start" />
				</lyric>
			</note>
			<note default-x="201">
				<pitch>
					<step>G</step>
					<octave>4</octave>
				</pitch>
				<duration>24</duration>
				<tie type="stop" />
				<voice>1</voice>
				<type>half</type>
				<dot />
				<stem default-y="2">up</stem>
				<notations>
					<tied type="stop" />
					<fermata default-x="-6" default-y="12" type="upright" />
				</notations>
				<lyric name="verse" number="1">
					<extend type="stop" />
				</lyric>
			</note>
			<direction placement="above">
				<direction-type>
					<words default-x="294" default-y="13" font-style="italic" justify="right">Fine</words>
				</direction-type>
			</direction>
			<barline location="right">
				<bar-style>light-heavy</bar-style>
			</barline>
		</measure>
		<!--=======================================================-->
		<measure number="5" width="1171">
			<print new-system="yes">
				<system-layout>
					<system-distance>180</system-distance>
				</system-layout>
			</print>
			<harmony default-y="36" font-size="10" font-weight="bold">
				<root>
					<root-step>E</root-step>
				</root>
				<kind halign="center" text="m">minor</kind>
			</harmony>
			<direction placement="above">
				<direction-type>
					<rehearsal default-y="69" font-weight="bold" relative-x="-5">VERSE</rehearsal>
				</direction-type>
			</direction>
			<direction placement="below">
				<direction-type>
					<bracket default-y="-138" line-end="none" line-type="solid" number="1" relative-x="27" type="start" />
				</direction-type>
			</direction>
			<note default-x="121">
				<pitch>
					<step>G</step>
					<octave>4</octave>
				</pitch>
				<duration>32</duration>
				<voice>1</voice>
				<type>whole</type>
			</note>
			<note default-x="919">
				<pitch>
					<step>A</step>
					<octave>4</octave>
				</pitch>
				<duration>8</duration>
				<voice>1</voice>
				<type>quarter</type>
				<stem>none</stem>
				<notations>
					<slur number="1" placement="below" type="start" />
				</notations>
			</note>
			<note default-x="1002">
				<pitch>
					<step>G</step>
					<octave>4</octave>
				</pitch>
				<duration>8</duration>
				<voice>1</voice>
				<type>quarter</type>
				<stem>none</stem>
				<notations>
					<slur number="1" type="stop" />
				</notations>
			</note>
			<harmony default-y="36" font-size="10" font-weight="bold">
				<root>
					<root-step>D</root-step>
				</root>
				<kind halign="center" text="">major</kind>
			</harmony>
			<direction placement="below">
				<direction-type>
					<bracket line-end="none" number="1" relative-x="28" type="stop" />
				</direction-type>
			</direction>
			<note default-x="1084">
				<pitch>
					<step>F</step>
					<alter>1</alter>
					<octave>4</octave>
				</pitch>
				<duration>16</duration>
				<voice>1</voice>
				<type>half</type>
				<stem>none</stem>
			</note>
			<backup>
				<duration>64</duration>
			</backup>
			<note print-object="no">
				<pitch>
					<step>G</step>
					<octave>4</octave>
				</pitch>
				<duration>8</duration>
				<voice>2</voice>
				<type>quarter</type>
				<stem>down</stem>
				<lyric default-y="-91" name="verse" number="1">
					<syllabic>single</syllabic>
					<text font-size="10.8">1.</text>
					<elision></elision>
					<syllabic>single</syllabic>
					<text font-size="10.8">Blessed</text>
					<elision></elision>
					<syllabic>single</syllabic>
					<text font-size="10.8" />
					<elision></elision>
					<syllabic>single</syllabic>
					<text font-size="10.8" />
					<elision></elision>
					<syllabic>single</syllabic>
					<text font-size="10.8" />
					<elision></elision>
					<syllabic>single</syllabic>
					<text font-size="10.8" />
				</lyric>
				<lyric default-y="-115" name="verse" number="2">
					<syllabic>single</syllabic>
					<text font-size="10.8">2.</text>
					<elision></elision>
					<syllabic>single</syllabic>
					<text font-size="10.8">Then</text>
					<elision></elision>
					<syllabic>single</syllabic>
					<text font-size="10.8" />
					<elision></elision>
					<syllabic>single</syllabic>
					<text font-size="10.8" />
					<elision></elision>
					<syllabic>single</syllabic>
					<text font-size="10.8" />
					<elision></elision>
					<syllabic>single</syllabic>
					<text font-size="10.8" />
					<elision></elision>
					<syllabic>single</syllabic>
					<text font-size="10.8" />
					<elision></elision>
					<syllabic>single</syllabic>
					<text font-size="10.8" />
					<elision></elision>
					<syllabic>single</syllabic>
					<text font-size="10.8" />
					<elision></elision>
					<syllabic>single</syllabic>
					<text font-size="10.8" />
				</lyric>
				<lyric default-y="-140" name="verse" number="3">
					<syllabic>single</syllabic>
					<text font-size="10.8">(3.)</text>
				</lyric>
			</note>
			<note print-object="no">
				<pitch>
					<step>G</step>
					<octave>4</octave>
				</pitch>
				<duration>4</duration>
				<voice>2</voice>
				<type>eighth</type>
				<stem>up</stem>
				<beam number="1">begin</beam>
				<lyric default-y="-91" name="verse" number="1">
					<syllabic>single</syllabic>
					<text font-size="10.8">is</text>
				</lyric>
				<lyric default-y="-115" name="verse" number="2">
					<syllabic>single</syllabic>
					<text font-size="10.8">I</text>
				</lyric>
			</note>
			<note print-object="no">
				<pitch>
					<step>G</step>
					<octave>4</octave>
				</pitch>
				<duration>4</duration>
				<voice>2</voice>
				<type>eighth</type>
				<stem>up</stem>
				<beam number="1">end</beam>
				<lyric default-y="-91" name="verse" number="1">
					<syllabic>single</syllabic>
					<text font-size="10.8">he</text>
				</lyric>
				<lyric default-y="-115" name="verse" number="2">
					<syllabic>single</syllabic>
					<text font-size="10.8">acknowledged</text>
				</lyric>
			</note>
			<note print-object="no">
				<pitch>
					<step>G</step>
					<octave>4</octave>
				</pitch>
				<duration>4</duration>
				<voice>2</voice>
				<type>eighth</type>
				<stem>up</stem>
				<beam number="1">begin</beam>
				<lyric default-y="-91" name="verse" number="1">
					<syllabic>single</syllabic>
					<text font-size="10.8">whose</text>
				</lyric>
				<lyric default-y="-115" name="verse" number="2">
					<syllabic>single</syllabic>
					<text font-size="10.8" />
					<elision></elision>
					<syllabic>single</syllabic>
					<text font-size="10.8" />
					<elision></elision>
					<syllabic>single</syllabic>
					<text font-size="10.8" />
					<elision></elision>
					<syllabic>single</syllabic>
					<text font-size="10.8" />
					<elision></elision>
					<syllabic>single</syllabic>
					<text font-size="10.8" />
					<elision></elision>
					<syllabic>single</syllabic>
					<text font-size="10.8" />
					<elision></elision>
					<syllabic>single</syllabic>
					<text font-size="10.8" />
					<elision></elision>
					<syllabic>single</syllabic>
					<text font-size="10.8" />
					<elision></elision>
					<syllabic>single</syllabic>
					<text font-size="10.8" />
					<elision></elision>
					<syllabic>single</syllabic>
					<text font-size="10.8" />
					<elision></elision>
					<syllabic>single</syllabic>
					<text font-size="10.8" />
					<elision></elision>
					<syllabic>single</syllabic>
					<text font-size="10.8" />
					<elision></elision>
					<syllabic>single</syllabic>
					<text font-size="10.8" />
					<elision></elision>
					<syllabic>single</syllabic>
					<text font-size="10.8" />
					<elision></elision>
					<syllabic>single</syllabic>
					<text font-size="10.8" />
					<elision></elision>
					<syllabic>single</syllabic>
					<text font-size="10.8" />
					<elision></elision>
					<syllabic>single</syllabic>
					<text font-size="10.8" />
					<elision></elision>
					<syllabic>single</syllabic>
					<text font-size="10.8" />
					<elision></elision>
					<syllabic>single</syllabic>
					<text font-size="10.8" />
					<elision></elision>
					<syllabic>single</syllabic>
					<text font-size="10.8" />
				</lyric>
			</note>
			<note print-object="no">
				<pitch>
					<step>G</step>
					<octave>4</octave>
				</pitch>
				<duration>4</duration>
				<voice>2</voice>
				<type>eighth</type>
				<stem>up</stem>
				<beam number="1">end</beam>
				<lyric default-y="-91" name="verse" number="1">
					<syllabic>single</syllabic>
					<text font-size="10.8">fault</text>
				</lyric>
				<lyric default-y="-115" name="verse" number="2">
					<syllabic>single</syllabic>
					<text font-size="10.8">my</text>
				</lyric>
			</note>
			<note print-object="no">
				<pitch>
					<step>G</step>
					<octave>4</octave>
				</pitch>
				<duration>4</duration>
				<voice>2</voice>
				<type>eighth</type>
				<stem>up</stem>
				<beam number="1">begin</beam>
				<lyric default-y="-91" name="verse" number="1">
					<syllabic>single</syllabic>
					<text font-size="10.8">is</text>
				</lyric>
				<lyric default-y="-115" name="verse" number="2">
					<syllabic>single</syllabic>
					<text font-size="10.8">sin</text>
				</lyric>
			</note>
			<note print-object="no">
				<pitch>
					<step>G</step>
					<octave>4</octave>
				</pitch>
				<duration>4</duration>
				<voice>2</voice>
				<type>eighth</type>
				<stem>up</stem>
				<beam number="1">end</beam>
				<lyric default-y="-91" name="verse" number="1">
					<syllabic>single</syllabic>
					<text font-size="10.8">taken</text>
				</lyric>
				<lyric default-y="-115" name="verse" number="2">
					<syllabic>single</syllabic>
					<text font-size="10.8" />
					<elision></elision>
					<syllabic>single</syllabic>
					<text font-size="10.8" />
					<elision></elision>
					<syllabic>single</syllabic>
					<text font-size="10.8" />
					<elision></elision>
					<syllabic>single</syllabic>
					<text font-size="10.8" />
					<elision></elision>
					<syllabic>single</syllabic>
					<text font-size="10.8" />
					<elision></elision>
					<syllabic>single</syllabic>
					<text font-size="10.8" />
					<elision></elision>
					<syllabic>single</syllabic>
					<text font-size="10.8" />
					<elision></elision>
					<syllabic>single</syllabic>
					<text font-size="10.8" />
					<elision></elision>
					<syllabic>single</syllabic>
					<text font-size="10.8" />
					<elision></elision>
					<syllabic>single</syllabic>
					<text font-size="10.8" />
					<elision></elision>
					<syllabic>single</syllabic>
					<text font-size="10.8" />
					<elision></elision>
					<syllabic>single</syllabic>
					<text font-size="10.8" />
					<elision></elision>
					<syllabic>single</syllabic>
					<text font-size="10.8" />
					<elision></elision>
					<syllabic>single</syllabic>
					<text font-size="10.8" />
					<elision></elision>
					<syllabic>single</syllabic>
					<text font-size="10.8" />
					<elision></elision>
					<syllabic>single</syllabic>
					<text font-size="10.8" />
					<elision></elision>
					<syllabic>single</syllabic>
					<text font-size="10.8" />
					<elision></elision>
					<syllabic>single</syllabic>
					<text font-size="10.8" />
					<elision></elision>
					<syllabic>single</syllabic>
					<text font-size="10.8" />
					<elision></elision>
					<syllabic>single</syllabic>
					<text font-size="10.8" />
				</lyric>
			</note>
			<note print-object="no">
				<pitch>
					<step>A</step>
					<octave>4</octave>
				</pitch>
				<duration>8</duration>
				<voice>2</voice>
				<type>quarter</type>
				<stem>up</stem>
				<lyric default-y="-91" name="verse" number="1">
					<syllabic>begin</syllabic>
					<text font-size="10.8">a</text>
				</lyric>
				<lyric default-y="-115" name="verse" number="2">
					<syllabic>single</syllabic>
					<text font-size="10.8">to</text>
					<extend type="start" />
				</lyric>
			</note>
			<note print-object="no">
				<pitch>
					<step>G</step>
					<octave>4</octave>
				</pitch>
				<duration>8</duration>
				<voice>2</voice>
				<type>quarter</type>
				<stem>up</stem>
				<lyric name="verse" number="2">
					<extend type="stop" />
				</lyric>
			</note>
			<note print-object="no">
				<pitch>
					<step>F</step>
					<alter>1</alter>
					<octave>4</octave>
				</pitch>
				<duration>16</duration>
				<voice>2</voice>
				<type>half</type>
				<stem>up</stem>
				<lyric default-y="-91" name="verse" number="1">
					<syllabic>end</syllabic>
					<text font-size="10.8">way,</text>
				</lyric>
				<lyric default-y="-115" name="verse" number="2">
					<syllabic>single</syllabic>
					<text font-size="10.8">you,</text>
				</lyric>
			</note>
		</measure>
		<!--=======================================================-->
		<measure number="6" width="1171">
			<print new-system="yes">
				<system-layout>
					<system-distance>180</system-distance>
				</system-layout>
			</print>
			<harmony default-y="36" font-size="10" font-weight="bold">
				<root>
					<root-step>B</root-step>
				</root>
				<kind halign="center" text="m">minor</kind>
			</harmony>
			<direction placement="below">
				<direction-type>
					<bracket default-y="-138" line-end="none" line-type="solid" number="1" relative-x="30" type="start" />
				</direction-type>
			</direction>
			<note default-x="89">
				<pitch>
					<step>F</step>
					<alter>1</alter>
					<octave>4</octave>
				</pitch>
				<duration>32</duration>
				<voice>1</voice>
				<type>whole</type>
			</note>
			<note default-x="682">
				<pitch>
					<step>E</step>
					<octave>4</octave>
				</pitch>
				<duration>8</duration>
				<voice>1</voice>
				<type>quarter</type>
				<stem>none</stem>
				<notations>
					<slur number="1" placement="below" type="start" />
				</notations>
			</note>
			<note default-x="840">
				<pitch>
					<step>F</step>
					<alter>1</alter>
					<octave>4</octave>
				</pitch>
				<duration>8</duration>
				<voice>1</voice>
				<type>quarter</type>
				<stem>none</stem>
				<notations>
					<slur number="1" type="stop" />
				</notations>
			</note>
			<harmony default-y="36" font-size="10" font-weight="bold">
				<root>
					<root-step>C</root-step>
				</root>
				<kind halign="center" text="">major</kind>
			</harmony>
			<direction placement="below">
				<direction-type>
					<bracket line-end="none" number="1" relative-x="29" type="stop" />
				</direction-type>
			</direction>
			<note default-x="1008">
				<pitch>
					<step>G</step>
					<octave>4</octave>
				</pitch>
				<duration>16</duration>
				<voice>1</voice>
				<type>half</type>
				<stem>none</stem>
			</note>
			<backup>
				<duration>64</duration>
			</backup>
			<note print-object="no">
				<pitch>
					<step>F</step>
					<alter>1</alter>
					<octave>4</octave>
				</pitch>
				<duration>8</duration>
				<voice>2</voice>
				<type>quarter</type>
				<stem>down</stem>
				<lyric default-y="-91" name="verse" number="1">
					<syllabic>single</syllabic>
					<text font-size="10.8">whose</text>
				</lyric>
				<lyric default-y="-115" name="verse" number="2">
					<syllabic>single</syllabic>
					<text font-size="10.8">my</text>
				</lyric>
				<lyric default-y="-140" name="verse" number="3">
					<syllabic>single</syllabic>
					<text font-size="10.8">(3.)</text>
				</lyric>
			</note>
			<note print-object="no">
				<pitch>
					<step>F</step>
					<alter>1</alter>
					<octave>4</octave>
				</pitch>
				<duration>8</duration>
				<voice>2</voice>
				<type>quarter</type>
				<stem>up</stem>
				<lyric default-y="-91" name="verse" number="1">
					<syllabic>single</syllabic>
					<text font-size="10.8" />
					<elision></elision>
					<syllabic>single</syllabic>
					<text font-size="10.8" />
					<elision></elision>
					<syllabic>single</syllabic>
					<text font-size="10.8" />
					<elision></elision>
					<syllabic>single</syllabic>
					<text font-size="10.8" />
					<elision></elision>
					<syllabic>single</syllabic>
					<text font-size="10.8" />
					<elision></elision>
					<syllabic>single</syllabic>
					<text font-size="10.8" />
					<elision></elision>
					<syllabic>single</syllabic>
					<text font-size="10.8" />
					<elision></elision>
					<syllabic>single</syllabic>
					<text font-size="10.8" />
					<elision></elision>
					<syllabic>single</syllabic>
					<text font-size="10.8" />
					<elision></elision>
					<syllabic>single</syllabic>
					<text font-size="10.8" />
					<elision></elision>
					<syllabic>single</syllabic>
					<text font-size="10.8" />
					<elision></elision>
					<syllabic>single</syllabic>
					<text font-size="10.8" />
					<elision></elision>
					<syllabic>single</syllabic>
					<text font-size="10.8" />
					<elision></elision>
					<syllabic>single</syllabic>
					<text font-size="10.8" />
					<elision></elision>
					<syllabic>single</syllabic>
					<text font-size="10.8" />
					<elision></elision>
					<syllabic>single</syllabic>
					<text font-size="10.8" />
					<elision></elision>
					<syllabic>single</syllabic>
					<text font-size="10.8" />
					<elision></elision>
					<syllabic>single</syllabic>
					<text font-size="10.8" />
					<elision></elision>
					<syllabic>single</syllabic>
					<text font-size="10.8" />
					<elision></elision>
					<syllabic>single</syllabic>
					<text font-size="10.8" />
					<elision></elision>
					<syllabic>single</syllabic>
					<text font-size="10.8" />
					<elision></elision>
					<syllabic>single</syllabic>
					<text font-size="10.8" />
					<elision></elision>
					<syllabic>single</syllabic>
					<text font-size="10.8" />
					<elision></elision>
					<syllabic>single</syllabic>
					<text font-size="10.8" />
					<elision></elision>
					<syllabic>single</syllabic>
					<text font-size="10.8" />
					<elision></elision>
					<syllabic>single</syllabic>
					<text font-size="10.8" />
					<elision></elision>
					<syllabic>single</syllabic>
					<text font-size="10.8" />
					<elision></elision>
					<syllabic>single</syllabic>
					<text font-size="10.8" />
					<elision></elision>
					<syllabic>single</syllabic>
					<text font-size="10.8" />
					<elision></elision>
					<syllabic>single</syllabic>
					<text font-size="10.8" />
					<elision></elision>
					<syllabic>single</syllabic>
					<text font-size="10.8" />
					<elision></elision>
					<syllabic>single</syllabic>
					<text font-size="10.8" />
					<elision></elision>
					<syllabic>single</syllabic>
					<text font-size="10.8" />
					<elision></elision>
					<syllabic>single</syllabic>
					<text font-size="10.8" />
					<elision></elision>
					<syllabic>single</syllabic>
					<text font-size="10.8" />
					<elision></elision>
					<syllabic>single</syllabic>
					<text font-size="10.8" />
					<elision></elision>
					<syllabic>single</syllabic>
					<text font-size="10.8" />
					<elision></elision>
					<syllabic>single</syllabic>
					<text font-size="10.8" />
					<elision></elision>
					<syllabic>single</syllabic>
					<text font-size="10.8" />
					<elision></elision>
					<syllabic>single</syllabic>
					<text font-size="10.8" />
					<elision></elision>
					<syllabic>single</syllabic>
					<text font-size="10.8" />
					<elision></elision>
					<syllabic>single</syllabic>
					<text font-size="10.8" />
					<elision></elision>
					<syllabic>single</syllabic>
					<text font-size="10.8" />
					<elision></elision>
					<syllabic>single</syllabic>
					<text font-size="10.8" />
					<elision></elision>
					<syllabic>single</syllabic>
					<text font-size="10.8" />
					<elision></elision>
					<syllabic>single</syllabic>
					<text font-size="10.8" />
					<elision></elision>
					<syllabic>single</syllabic>
					<text font-size="10.8" />
					<elision></elision>
					<syllabic>single</syllabic>
					<text font-size="10.8" />
					<elision></elision>
					<syllabic>single</syllabic>
					<text font-size="10.8" />
					<elision></elision>
					<syllabic>single</syllabic>
					<text font-size="10.8" />
					<elision></elision>
					<syllabic>single</syllabic>
					<text font-size="10.8" />
					<elision></elision>
					<syllabic>single</syllabic>
					<text font-size="10.8" />
					<elision></elision>
					<syllabic>single</syllabic>
					<text font-size="10.8" />
					<elision></elision>
					<syllabic>single</syllabic>
					<text font-size="10.8" />
					<elision></elision>
					<syllabic>single</syllabic>
					<text font-size="10.8" />
					<elision></elision>
					<syllabic>single</syllabic>
					<text font-size="10.8" />
					<elision></elision>
					<syllabic>single</syllabic>
					<text font-size="10.8" />
					<elision></elision>
					<syllabic>single</syllabic>
					<text font-size="10.8" />
					<elision></elision>
					<syllabic>single</syllabic>
					<text font-size="10.8" />
					<elision></elision>
					<syllabic>single</syllabic>
					<text font-size="10.8" />
					<elision></elision>
					<syllabic>single</syllabic>
					<text font-size="10.8" />
					<elision></elision>
					<syllabic>single</syllabic>
					<text font-size="10.8" />
				</lyric>
				<lyric default-y="-115" name="verse" number="2">
					<syllabic>single</syllabic>
					<text font-size="10.8">guilt</text>
				</lyric>
			</note>
			<note print-object="no">
				<pitch>
					<step>F</step>
					<alter>1</alter>
					<octave>4</octave>
				</pitch>
				<duration>16</duration>
				<voice>2</voice>
				<type>half</type>
				<stem>up</stem>
				<lyric default-y="-91" name="verse" number="1">
					<syllabic>single</syllabic>
					<text font-size="10.8">sin</text>
				</lyric>
				<lyric default-y="-115" name="verse" number="2">
					<syllabic>single</syllabic>
					<text font-size="10.8">I</text>
				</lyric>
			</note>
			<note print-object="no">
				<pitch>
					<step>E</step>
					<octave>4</octave>
				</pitch>
				<duration>8</duration>
				<voice>2</voice>
				<type>quarter</type>
				<stem>up</stem>
				<lyric default-y="-91" name="verse" number="1">
					<syllabic>single</syllabic>
					<text font-size="10.8">is</text>
					<extend type="start" />
				</lyric>
				<lyric default-y="-115" name="verse" number="2">
					<syllabic>begin</syllabic>
					<text font-size="10.8">cov</text>
				</lyric>
			</note>
			<note print-object="no">
				<pitch>
					<step>F</step>
					<alter>1</alter>
					<octave>4</octave>
				</pitch>
				<duration>8</duration>
				<voice>2</voice>
				<type>quarter</type>
				<stem>up</stem>
				<lyric default-y="-115" name="verse" number="2">
					<syllabic>end</syllabic>
					<text font-size="10.8">ered</text>
				</lyric>
				<lyric name="verse" number="1">
					<extend type="stop" />
				</lyric>
			</note>
			<note print-object="no">
				<pitch>
					<step>G</step>
					<octave>4</octave>
				</pitch>
				<duration>16</duration>
				<voice>2</voice>
				<type>half</type>
				<stem>up</stem>
				<lyric default-y="-91" name="verse" number="1">
					<syllabic>single</syllabic>
					<text font-size="10.8">covered.</text>
				</lyric>
				<lyric default-y="-115" name="verse" number="2">
					<syllabic>single</syllabic>
					<text font-size="10.8">not.</text>
				</lyric>
			</note>
		</measure>
		<!--=======================================================-->
		<measure number="7" width="1171">
			<print new-system="yes">
				<system-layout>
					<system-distance>180</system-distance>
				</system-layout>
			</print>
			<harmony default-y="36" font-size="10" font-weight="bold">
				<root>
					<root-step>E</root-step>
				</root>
				<kind halign="center" text="m">minor</kind>
			</harmony>
			<note default-x="96">
				<pitch>
					<step>G</step>
					<octave>4</octave>
				</pitch>
				<duration>32</duration>
				<voice>1</voice>
				<type>whole</type>
			</note>
			<note default-x="958">
				<pitch>
					<step>A</step>
					<octave>4</octave>
				</pitch>
				<duration>8</duration>
				<voice>1</voice>
				<type>quarter</type>
				<stem>none</stem>
			</note>
			<note default-x="1025">
				<pitch>
					<step>G</step>
					<octave>4</octave>
				</pitch>
				<duration>8</duration>
				<voice>1</voice>
				<type>quarter</type>
				<stem>none</stem>
			</note>
			<harmony default-y="36" font-size="10" font-weight="bold">
				<root>
					<root-step>B</root-step>
				</root>
				<kind halign="center" text="m">minor</kind>
			</harmony>
			<note default-x="1102">
				<pitch>
					<step>F</step>
					<alter>1</alter>
					<octave>4</octave>
				</pitch>
				<duration>16</duration>
				<voice>1</voice>
				<type>half</type>
				<stem>none</stem>
			</note>
			<backup>
				<duration>64</duration>
			</backup>
			<note print-object="no">
				<pitch>
					<step>G</step>
					<octave>4</octave>
				</pitch>
				<duration>4</duration>
				<voice>2</voice>
				<type>eighth</type>
				<stem>down</stem>
				<beam number="1">begin</beam>
				<lyric default-y="-91" name="verse" number="1">
					<syllabic>single</syllabic>
					<text font-size="10.8">Blessed</text>
				</lyric>
				<lyric default-y="-115" name="verse" number="2">
					<syllabic>single</syllabic>
					<text font-size="10.8">I</text>
				</lyric>
				<lyric default-y="-140" name="verse" number="3">
					<syllabic>single</syllabic>
					<text font-size="10.8">3.</text>
					<elision></elision>
					<syllabic>single</syllabic>
					<text font-size="10.8">Be</text>
					<elision></elision>
					<syllabic>single</syllabic>
					<text font-size="10.8" />
					<elision></elision>
					<syllabic>single</syllabic>
					<text font-size="10.8" />
					<elision></elision>
					<syllabic>single</syllabic>
					<text font-size="10.8" />
					<elision></elision>
					<syllabic>single</syllabic>
					<text font-size="10.8" />
				</lyric>
			</note>
			<note print-object="no">
				<pitch>
					<step>G</step>
					<octave>4</octave>
				</pitch>
				<duration>4</duration>
				<voice>2</voice>
				<type>eighth</type>
				<stem>down</stem>
				<beam number="1">end</beam>
				<lyric default-y="-91" name="verse" number="1">
					<syllabic>single</syllabic>
					<text font-size="10.8">the</text>
				</lyric>
				<lyric default-y="-115" name="verse" number="2">
					<syllabic>single</syllabic>
					<text font-size="10.8">said,</text>
				</lyric>
				<lyric default-y="-140" name="verse" number="3">
					<syllabic>single</syllabic>
					<text font-size="10.8">glad</text>
				</lyric>
			</note>
			<note print-object="no">
				<pitch>
					<step>G</step>
					<octave>4</octave>
				</pitch>
				<duration>4</duration>
				<voice>2</voice>
				<type>eighth</type>
				<stem>up</stem>
				<beam number="1">begin</beam>
				<lyric default-y="-91" name="verse" number="1">
					<syllabic>single</syllabic>
					<text font-size="10.8">man</text>
				</lyric>
				<lyric default-y="-115" name="verse" number="2">
					<syllabic>single</syllabic>
					<text font-size="10.8" />
					<elision></elision>
					<syllabic>single</syllabic>
					<text font-size="10.8" />
					<elision></elision>
					<syllabic>single</syllabic>
					<text font-size="10.8" />
					<elision></elision>
					<syllabic>single</syllabic>
					<text font-size="10.8" />
					<elision></elision>
					<syllabic>single</syllabic>
					<text font-size="10.8" />
					<elision></elision>
					<syllabic>single</syllabic>
					<text font-size="10.8" />
					<elision></elision>
					<syllabic>single</syllabic>
					<text font-size="10.8" />
					<elision></elision>
					<syllabic>single</syllabic>
					<text font-size="10.8" />
					<elision></elision>
					<syllabic>single</syllabic>
					<text font-size="10.8" />
					<elision></elision>
					<syllabic>single</syllabic>
					<text font-size="10.8" />
					<elision></elision>
					<syllabic>single</syllabic>
					<text font-size="10.8" />
					<elision></elision>
					<syllabic>single</syllabic>
					<text font-size="10.8" />
					<elision></elision>
					<syllabic>single</syllabic>
					<text font-size="10.8" />
					<elision></elision>
					<syllabic>single</syllabic>
					<text font-size="10.8" />
					<elision></elision>
					<syllabic>single</syllabic>
					<text font-size="10.8" />
					<elision></elision>
					<syllabic>single</syllabic>
					<text font-size="10.8" />
					<elision></elision>
					<syllabic>single</syllabic>
					<text font-size="10.8" />
					<elision></elision>
					<syllabic>single</syllabic>
					<text font-size="10.8" />
					<elision></elision>
					<syllabic>single</syllabic>
					<text font-size="10.8" />
					<elision></elision>
					<syllabic>single</syllabic>
					<text font-size="10.8" />
					<elision></elision>
					<syllabic>single</syllabic>
					<text font-size="10.8" />
					<elision></elision>
					<syllabic>single</syllabic>
					<text font-size="10.8" />
					<elision></elision>
					<syllabic>single</syllabic>
					<text font-size="10.8" />
					<elision></elision>
					<syllabic>single</syllabic>
					<text font-size="10.8" />
					<elision></elision>
					<syllabic>single</syllabic>
					<text font-size="10.8" />
					<elision></elision>
					<syllabic>single</syllabic>
					<text font-size="10.8" />
					<elision></elision>
					<syllabic>single</syllabic>
					<text font-size="10.8" />
					<elision></elision>
					<syllabic>single</syllabic>
					<text font-size="10.8" />
					<elision></elision>
					<syllabic>single</syllabic>
					<text font-size="10.8" />
					<elision></elision>
					<syllabic>single</syllabic>
					<text font-size="10.8" />
					<elision></elision>
					<syllabic>single</syllabic>
					<text font-size="10.8" />
					<elision></elision>
					<syllabic>single</syllabic>
					<text font-size="10.8" />
					<elision></elision>
					<syllabic>single</syllabic>
					<text font-size="10.8" />
				</lyric>
				<lyric default-y="-140" name="verse" number="3">
					<syllabic>single</syllabic>
					<text font-size="10.8">in</text>
				</lyric>
			</note>
			<note print-object="no">
				<pitch>
					<step>G</step>
					<octave>4</octave>
				</pitch>
				<duration>4</duration>
				<voice>2</voice>
				<type>eighth</type>
				<stem>up</stem>
				<beam number="1">end</beam>
				<lyric default-y="-91" name="verse" number="1">
					<syllabic>single</syllabic>
					<text font-size="10.8">to</text>
				</lyric>
				<lyric default-y="-115" name="verse" number="2">
					<syllabic>single</syllabic>
					<text font-size="10.8">"I</text>
				</lyric>
				<lyric default-y="-140" name="verse" number="3">
					<syllabic>single</syllabic>
					<text font-size="10.8">the</text>
				</lyric>
			</note>
			<note print-object="no">
				<pitch>
					<step>G</step>
					<octave>4</octave>
				</pitch>
				<duration>4</duration>
				<voice>2</voice>
				<type>eighth</type>
				<stem>up</stem>
				<beam number="1">begin</beam>
				<lyric default-y="-91" name="verse" number="1">
					<syllabic>single</syllabic>
					<text font-size="10.8">whom</text>
				</lyric>
				<lyric default-y="-115" name="verse" number="2">
					<syllabic>single</syllabic>
					<text font-size="10.8">confess</text>
				</lyric>
				<lyric default-y="-140" name="verse" number="3">
					<syllabic>single</syllabic>
					<text font-size="10.8">LORD</text>
				</lyric>
			</note>
			<note print-object="no">
				<pitch>
					<step>G</step>
					<octave>4</octave>
				</pitch>
				<duration>4</duration>
				<voice>2</voice>
				<type>eighth</type>
				<stem>up</stem>
				<beam number="1">end</beam>
				<lyric default-y="-91" name="verse" number="1">
					<syllabic>single</syllabic>
					<text font-size="10.8">the</text>
				</lyric>
				<lyric default-y="-115" name="verse" number="2">
					<syllabic>single</syllabic>
					<text font-size="10.8">my</text>
				</lyric>
				<lyric default-y="-140" name="verse" number="3">
					<syllabic>single</syllabic>
					<text font-size="10.8">and</text>
				</lyric>
			</note>
			<note print-object="no">
				<pitch>
					<step>G</step>
					<octave>4</octave>
				</pitch>
				<duration>4</duration>
				<voice>2</voice>
				<type>eighth</type>
				<stem>up</stem>
				<beam number="1">begin</beam>
				<lyric default-y="-91" name="verse" number="1">
					<syllabic>single</syllabic>
					<text font-size="10.8">LORD</text>
				</lyric>
				<lyric default-y="-115" name="verse" number="2">
					<syllabic>single</syllabic>
					<text font-size="10.8">faults</text>
				</lyric>
				<lyric default-y="-140" name="verse" number="3">
					<syllabic>single</syllabic>
					<text font-size="10.8" />
					<elision></elision>
					<syllabic>single</syllabic>
					<text font-size="10.8" />
					<elision></elision>
					<syllabic>single</syllabic>
					<text font-size="10.8" />
					<elision></elision>
					<syllabic>single</syllabic>
					<text font-size="10.8" />
					<elision></elision>
					<syllabic>single</syllabic>
					<text font-size="10.8" />
					<elision></elision>
					<syllabic>single</syllabic>
					<text font-size="10.8" />
					<elision></elision>
					<syllabic>single</syllabic>
					<text font-size="10.8" />
					<elision></elision>
					<syllabic>single</syllabic>
					<text font-size="10.8" />
					<elision></elision>
					<syllabic>single</syllabic>
					<text font-size="10.8" />
					<elision></elision>
					<syllabic>single</syllabic>
					<text font-size="10.8" />
					<elision></elision>
					<syllabic>single</syllabic>
					<text font-size="10.8" />
					<elision></elision>
					<syllabic>single</syllabic>
					<text font-size="10.8" />
					<elision></elision>
					<syllabic>single</syllabic>
					<text font-size="10.8" />
					<elision></elision>
					<syllabic>single</syllabic>
					<text font-size="10.8" />
					<elision></elision>
					<syllabic>single</syllabic>
					<text font-size="10.8" />
					<elision></elision>
					<syllabic>single</syllabic>
					<text font-size="10.8" />
					<elision></elision>
					<syllabic>single</syllabic>
					<text font-size="10.8" />
					<elision></elision>
					<syllabic>single</syllabic>
					<text font-size="10.8" />
					<elision></elision>
					<syllabic>single</syllabic>
					<text font-size="10.8" />
					<elision></elision>
					<syllabic>single</syllabic>
					<text font-size="10.8" />
					<elision></elision>
					<syllabic>single</syllabic>
					<text font-size="10.8" />
					<elision></elision>
					<syllabic>single</syllabic>
					<text font-size="10.8" />
					<elision></elision>
					<syllabic>single</syllabic>
					<text font-size="10.8" />
				</lyric>
			</note>
			<note print-object="no">
				<pitch>
					<step>G</step>
					<octave>4</octave>
				</pitch>
				<duration>4</duration>
				<voice>2</voice>
				<type>eighth</type>
				<stem>up</stem>
				<beam number="1">end</beam>
				<lyric default-y="-91" name="verse" number="1">
					<syllabic>begin</syllabic>
					<text font-size="10.8">im</text>
				</lyric>
				<lyric default-y="-115" name="verse" number="2">
					<syllabic>single</syllabic>
					<text font-size="10.8" />
					<elision></elision>
					<syllabic>single</syllabic>
					<text font-size="10.8" />
					<elision></elision>
					<syllabic>single</syllabic>
					<text font-size="10.8" />
					<elision></elision>
					<syllabic>single</syllabic>
					<text font-size="10.8" />
					<elision></elision>
					<syllabic>single</syllabic>
					<text font-size="10.8" />
					<elision></elision>
					<syllabic>single</syllabic>
					<text font-size="10.8" />
					<elision></elision>
					<syllabic>single</syllabic>
					<text font-size="10.8" />
					<elision></elision>
					<syllabic>single</syllabic>
					<text font-size="10.8" />
					<elision></elision>
					<syllabic>single</syllabic>
					<text font-size="10.8" />
					<elision></elision>
					<syllabic>single</syllabic>
					<text font-size="10.8" />
					<elision></elision>
					<syllabic>single</syllabic>
					<text font-size="10.8" />
					<elision></elision>
					<syllabic>single</syllabic>
					<text font-size="10.8" />
					<elision></elision>
					<syllabic>single</syllabic>
					<text font-size="10.8" />
					<elision></elision>
					<syllabic>single</syllabic>
					<text font-size="10.8" />
					<elision></elision>
					<syllabic>single</syllabic>
					<text font-size="10.8" />
					<elision></elision>
					<syllabic>single</syllabic>
					<text font-size="10.8" />
					<elision></elision>
					<syllabic>single</syllabic>
					<text font-size="10.8" />
					<elision></elision>
					<syllabic>single</syllabic>
					<text font-size="10.8" />
					<elision></elision>
					<syllabic>single</syllabic>
					<text font-size="10.8" />
					<elision></elision>
					<syllabic>single</syllabic>
					<text font-size="10.8" />
					<elision></elision>
					<syllabic>single</syllabic>
					<text font-size="10.8" />
					<elision></elision>
					<syllabic>single</syllabic>
					<text font-size="10.8" />
					<elision></elision>
					<syllabic>single</syllabic>
					<text font-size="10.8" />
					<elision></elision>
					<syllabic>single</syllabic>
					<text font-size="10.8" />
					<elision></elision>
					<syllabic>single</syllabic>
					<text font-size="10.8" />
				</lyric>
				<lyric default-y="-140" name="verse" number="3">
					<syllabic>begin</syllabic>
					<text font-size="10.8">re</text>
				</lyric>
			</note>
			<note print-object="no">
				<pitch>
					<step>A</step>
					<octave>4</octave>
				</pitch>
				<duration>8</duration>
				<voice>2</voice>
				<type>quarter</type>
				<stem>up</stem>
				<lyric default-y="-91" name="verse" number="1">
					<syllabic>end</syllabic>
					<text font-size="10.8">putes</text>
				</lyric>
				<lyric default-y="-115" name="verse" number="2">
					<syllabic>single</syllabic>
					<text font-size="10.8">to</text>
				</lyric>
				<lyric default-y="-140" name="verse" number="3">
					<syllabic>end</syllabic>
					<text font-size="10.8">joice,</text>
				</lyric>
			</note>
			<note print-object="no">
				<pitch>
					<step>G</step>
					<octave>4</octave>
				</pitch>
				<duration>8</duration>
				<voice>2</voice>
				<type>quarter</type>
				<stem>up</stem>
				<lyric default-y="-91" name="verse" number="1">
					<syllabic>single</syllabic>
					<text font-size="10.8">not</text>
				</lyric>
				<lyric default-y="-115" name="verse" number="2">
					<syllabic>single</syllabic>
					<text font-size="10.8">the</text>
				</lyric>
				<lyric default-y="-140" name="verse" number="3">
					<syllabic>single</syllabic>
					<text font-size="10.8">you</text>
				</lyric>
			</note>
			<note print-object="no">
				<pitch>
					<step>F</step>
					<alter>1</alter>
					<octave>4</octave>
				</pitch>
				<duration>16</duration>
				<voice>2</voice>
				<type>half</type>
				<stem>up</stem>
				<lyric default-y="-91" name="verse" number="1">
					<syllabic>single</syllabic>
					<text font-size="10.8">guilt,</text>
				</lyric>
				<lyric default-y="-115" name="verse" number="2">
					<syllabic>single</syllabic>
					<text font-size="10.8">LORD,"</text>
				</lyric>
				<lyric default-y="-140" name="verse" number="3">
					<syllabic>single</syllabic>
					<text font-size="10.8">just;</text>
				</lyric>
			</note>
		</measure>
		<!--=======================================================-->
		<measure number="8" width="953">
			<print new-system="yes">
				<system-layout>
					<system-distance>180</system-distance>
				</system-layout>
			</print>
			<harmony default-y="36" font-size="10" font-weight="bold">
				<root>
					<root-step>C</root-step>
				</root>
				<kind halign="center" text="">major</kind>
			</harmony>
			<note default-x="86">
				<pitch>
					<step>E</step>
					<octave>4</octave>
				</pitch>
				<duration>32</duration>
				<voice>1</voice>
				<type>whole</type>
			</note>
			<note default-x="776">
				<pitch>
					<step>F</step>
					<alter>1</alter>
					<octave>4</octave>
				</pitch>
				<duration>8</duration>
				<voice>1</voice>
				<type>quarter</type>
				<stem>none</stem>
			</note>
			<note default-x="867">
				<pitch>
					<step>G</step>
					<octave>4</octave>
				</pitch>
				<duration>8</duration>
				<voice>1</voice>
				<type>quarter</type>
				<stem>none</stem>
			</note>
			<backup>
				<duration>48</duration>
			</backup>
			<note print-object="no">
				<pitch>
					<step>E</step>
					<octave>4</octave>
				</pitch>
				<duration>4</duration>
				<voice>2</voice>
				<type>eighth</type>
				<stem>down</stem>
				<beam number="1">begin</beam>
				<lyric default-y="-91" name="verse" number="1">
					<syllabic>single</syllabic>
					<text font-size="10.8">in</text>
				</lyric>
				<lyric default-y="-115" name="verse" number="2">
					<syllabic>single</syllabic>
					<text font-size="10.8">and</text>
				</lyric>
				<lyric default-y="-140" name="verse" number="3">
					<syllabic>single</syllabic>
					<text font-size="10.8">exult,</text>
				</lyric>
			</note>
			<note print-object="no">
				<pitch>
					<step>E</step>
					<octave>4</octave>
				</pitch>
				<duration>4</duration>
				<voice>2</voice>
				<type>eighth</type>
				<stem>down</stem>
				<beam number="1">end</beam>
				<lyric default-y="-91" name="verse" number="1">
					<syllabic>single</syllabic>
					<text font-size="10.8">whose</text>
				</lyric>
				<lyric default-y="-115" name="verse" number="2">
					<syllabic>single</syllabic>
					<text font-size="10.8">you</text>
				</lyric>
			</note>
			<note print-object="no">
				<pitch>
					<step>E</step>
					<octave>4</octave>
				</pitch>
				<duration>8</duration>
				<voice>2</voice>
				<type>quarter</type>
				<stem>up</stem>
				<lyric default-y="-91" name="verse" number="1">
					<syllabic>single</syllabic>
					<text font-size="10.8" />
					<elision></elision>
					<syllabic>single</syllabic>
					<text font-size="10.8" />
					<elision></elision>
					<syllabic>single</syllabic>
					<text font-size="10.8" />
					<elision></elision>
					<syllabic>single</syllabic>
					<text font-size="10.8" />
					<elision></elision>
					<syllabic>single</syllabic>
					<text font-size="10.8" />
					<elision></elision>
					<syllabic>single</syllabic>
					<text font-size="10.8" />
					<elision></elision>
					<syllabic>single</syllabic>
					<text font-size="10.8" />
					<elision></elision>
					<syllabic>single</syllabic>
					<text font-size="10.8" />
					<elision></elision>
					<syllabic>single</syllabic>
					<text font-size="10.8" />
					<elision></elision>
					<syllabic>single</syllabic>
					<text font-size="10.8" />
					<elision></elision>
					<syllabic>single</syllabic>
					<text font-size="10.8" />
					<elision></elision>
					<syllabic>single</syllabic>
					<text font-size="10.8" />
					<elision></elision>
					<syllabic>single</syllabic>
					<text font-size="10.8" />
					<elision></elision>
					<syllabic>single</syllabic>
					<text font-size="10.8" />
					<elision></elision>
					<syllabic>single</syllabic>
					<text font-size="10.8" />
					<elision></elision>
					<syllabic>single</syllabic>
					<text font-size="10.8" />
					<elision></elision>
					<syllabic>single</syllabic>
					<text font-size="10.8" />
					<elision></elision>
					<syllabic>single</syllabic>
					<text font-size="10.8" />
					<elision></elision>
					<syllabic>single</syllabic>
					<text font-size="10.8" />
					<elision></elision>
					<syllabic>single</syllabic>
					<text font-size="10.8" />
					<elision></elision>
					<syllabic>single</syllabic>
					<text font-size="10.8" />
					<elision></elision>
					<syllabic>single</syllabic>
					<text font-size="10.8" />
					<elision></elision>
					<syllabic>single</syllabic>
					<text font-size="10.8" />
					<elision></elision>
					<syllabic>single</syllabic>
					<text font-size="10.8" />
					<elision></elision>
					<syllabic>single</syllabic>
					<text font-size="10.8" />
					<elision></elision>
					<syllabic>single</syllabic>
					<text font-size="10.8" />
					<elision></elision>
					<syllabic>single</syllabic>
					<text font-size="10.8" />
					<elision></elision>
					<syllabic>single</syllabic>
					<text font-size="10.8" />
				</lyric>
				<lyric default-y="-115" name="verse" number="2">
					<syllabic>single</syllabic>
					<text font-size="10.8">took</text>
				</lyric>
			</note>
			<note print-object="no">
				<pitch>
					<step>E</step>
					<octave>4</octave>
				</pitch>
				<duration>4</duration>
				<voice>2</voice>
				<type>eighth</type>
				<stem>up</stem>
				<beam number="1">begin</beam>
				<lyric default-y="-91" name="verse" number="1">
					<syllabic>single</syllabic>
					<text font-size="10.8">spirit</text>
				</lyric>
				<lyric default-y="-115" name="verse" number="2">
					<syllabic>single</syllabic>
					<text font-size="10.8">away</text>
				</lyric>
				<lyric default-y="-140" name="verse" number="3">
					<syllabic>single</syllabic>
					<text font-size="10.8">all</text>
				</lyric>
			</note>
			<note print-object="no">
				<pitch>
					<step>E</step>
					<octave>4</octave>
				</pitch>
				<duration>4</duration>
				<voice>2</voice>
				<type>eighth</type>
				<stem>up</stem>
				<beam number="1">end</beam>
				<lyric default-y="-91" name="verse" number="1">
					<syllabic>single</syllabic>
					<text font-size="10.8" />
					<elision></elision>
					<syllabic>single</syllabic>
					<text font-size="10.8" />
					<elision></elision>
					<syllabic>single</syllabic>
					<text font-size="10.8" />
					<elision></elision>
					<syllabic>single</syllabic>
					<text font-size="10.8" />
					<elision></elision>
					<syllabic>single</syllabic>
					<text font-size="10.8" />
					<elision></elision>
					<syllabic>single</syllabic>
					<text font-size="10.8" />
					<elision></elision>
					<syllabic>single</syllabic>
					<text font-size="10.8" />
					<elision></elision>
					<syllabic>single</syllabic>
					<text font-size="10.8" />
					<elision></elision>
					<syllabic>single</syllabic>
					<text font-size="10.8" />
					<elision></elision>
					<syllabic>single</syllabic>
					<text font-size="10.8" />
					<elision></elision>
					<syllabic>single</syllabic>
					<text font-size="10.8" />
					<elision></elision>
					<syllabic>single</syllabic>
					<text font-size="10.8" />
					<elision></elision>
					<syllabic>single</syllabic>
					<text font-size="10.8" />
					<elision></elision>
					<syllabic>single</syllabic>
					<text font-size="10.8" />
					<elision></elision>
					<syllabic>single</syllabic>
					<text font-size="10.8" />
					<elision></elision>
					<syllabic>single</syllabic>
					<text font-size="10.8" />
					<elision></elision>
					<syllabic>single</syllabic>
					<text font-size="10.8" />
					<elision></elision>
					<syllabic>single</syllabic>
					<text font-size="10.8" />
					<elision></elision>
					<syllabic>single</syllabic>
					<text font-size="10.8" />
					<elision></elision>
					<syllabic>single</syllabic>
					<text font-size="10.8" />
					<elision></elision>
					<syllabic>single</syllabic>
					<text font-size="10.8" />
					<elision></elision>
					<syllabic>single</syllabic>
					<text font-size="10.8" />
					<elision></elision>
					<syllabic>single</syllabic>
					<text font-size="10.8" />
					<elision></elision>
					<syllabic>single</syllabic>
					<text font-size="10.8" />
				</lyric>
				<lyric default-y="-115" name="verse" number="2">
					<syllabic>single</syllabic>
					<text font-size="10.8">the</text>
				</lyric>
				<lyric default-y="-140" name="verse" number="3">
					<syllabic>single</syllabic>
					<text font-size="10.8">you</text>
				</lyric>
			</note>
			<note print-object="no">
				<pitch>
					<step>E</step>
					<octave>4</octave>
				</pitch>
				<duration>8</duration>
				<voice>2</voice>
				<type>quarter</type>
				<stem>up</stem>
				<lyric default-y="-91" name="verse" number="1">
					<syllabic>single</syllabic>
					<text font-size="10.8">there</text>
				</lyric>
				<lyric default-y="-115" name="verse" number="2">
					<syllabic>single</syllabic>
					<text font-size="10.8">guilt</text>
				</lyric>
				<lyric default-y="-140" name="verse" number="3">
					<syllabic>begin</syllabic>
					<text font-size="10.8">up</text>
				</lyric>
			</note>
			<note print-object="no">
				<pitch>
					<step>F</step>
					<alter>1</alter>
					<octave>4</octave>
				</pitch>
				<duration>8</duration>
				<voice>2</voice>
				<type>quarter</type>
				<stem>up</stem>
				<lyric default-y="-91" name="verse" number="1">
					<syllabic>single</syllabic>
					<text font-size="10.8">is</text>
				</lyric>
				<lyric default-y="-115" name="verse" number="2">
					<syllabic>single</syllabic>
					<text font-size="10.8">of</text>
				</lyric>
				<lyric default-y="-140" name="verse" number="3">
					<syllabic>end</syllabic>
					<text font-size="10.8">right</text>
				</lyric>
			</note>
			<note print-object="no">
				<pitch>
					<step>G</step>
					<octave>4</octave>
				</pitch>
				<duration>8</duration>
				<voice>2</voice>
				<type>quarter</type>
				<stem>up</stem>
				<lyric default-y="-91" name="verse" number="1">
					<syllabic>single</syllabic>
					<text font-size="10.8">no</text>
				</lyric>
				<lyric default-y="-115" name="verse" number="2">
					<syllabic>single</syllabic>
					<text font-size="10.8">my</text>
				</lyric>
				<lyric default-y="-140" name="verse" number="3">
					<syllabic>single</syllabic>
					<text font-size="10.8">of</text>
				</lyric>
			</note>
		</measure>
		<!--=======================================================-->
		<measure number="9" width="218">
			<attributes>
				<time>
					<beats>4</beats>
					<beat-type>4</beat-type>
				</time>
			</attributes>
			<harmony default-y="36" font-size="10" font-weight="bold">
				<root>
					<root-step>D</root-step>
				</root>
				<kind halign="center" text="">major</kind>
			</harmony>
			<note default-x="55">
				<pitch>
					<step>A</step>
					<octave>4</octave>
				</pitch>
				<duration>24</duration>
				<voice>1</voice>
				<type>half</type>
				<dot />
				<stem default-y="7">up</stem>
			</note>
			<note default-x="107">
				<rest />
				<duration>4</duration>
				<voice>1</voice>
				<type>eighth</type>
			</note>
			<note default-x="159">
				<pitch>
					<step>G</step>
					<octave>4</octave>
				</pitch>
				<duration>4</duration>
				<voice>1</voice>
				<type>eighth</type>
				<stem default-y="2">up</stem>
				<lyric default-y="-91" name="verse" number="1">
					<syllabic>single</syllabic>
					<text font-size="10.8">I</text>
				</lyric>
			</note>
			<backup>
				<duration>32</duration>
			</backup>
			<note print-object="no">
				<pitch>
					<step>A</step>
					<octave>4</octave>
				</pitch>
				<duration>24</duration>
				<voice>2</voice>
				<type>half</type>
				<dot />
				<stem>up</stem>
				<lyric default-y="-91" name="verse" number="1">
					<syllabic>single</syllabic>
					<text font-size="10.8">guile.</text>
				</lyric>
				<lyric default-y="-115" name="verse" number="2">
					<syllabic>single</syllabic>
					<text font-size="10.8">sin.</text>
				</lyric>
				<lyric default-y="-140" name="verse" number="3">
					<syllabic>single</syllabic>
					<text font-size="10.8">heart.</text>
				</lyric>
			</note>
			<forward>
				<duration>8</duration>
				<voice>2</voice>
			</forward>
			<direction placement="above">
				<direction-type>
					<words default-x="214" default-y="14" font-style="italic" justify="right">D.C. al Fine</words>
				</direction-type>
				<sound dalsegno="2" />
			</direction>
			<direction placement="below">
				<direction-type>
					<words default-x="-709" default-y="-176" xml:space="preserve">Music: © 2020 NOVUM PUBLISHING\r\nResponse Text: © 1969, 1981, 1997, ICEL. All rights reserved. Used with Permission.\r\nVerses Text: © 1970, 1997, 1998, CCD. All rights reserved. Used with Permission.</words>
				</direction-type>
			</direction>
			<barline location="right">
				<bar-style>light-light</bar-style>
			</barline>
		</measure>
	</part>
	<!--=========================================================-->
</score-partwise>