<?xml version="1.0" encoding="UTF-8" standalone="no"?>
<!DOCTYPE score-partwise PUBLIC "-//Recordare//DTD MusicXML 3.0 Partwise//EN" "http://www.musicxml.org/dtds/3.0/partwise.dtd">
<score-partwise version="3.0">
  <movement-title>10th Sunday In Ordinary Time:
Psalm 30 - I Will Praise You Lord</movement-title>
  <identification>
    <creator type="composer">Ashley Dean and Thomas Coppola</creator>
    <creator type="lyricist">CCD, ICEL</creator>
    <rights>CCLI Song #1234567
©2006 CCLI Sheet Music Template  2.10.14
For use solely with the creation process to determine spacing of Copyright.
CCLI License #2572230</rights>
    <encoding>
      <software>Finale v26.3 for Windows</software>
      <encoding-date>2022-06-21</encoding-date>
      <supports attribute="new-system" element="print" type="yes" value="yes"/>
      <supports attribute="new-page" element="print" type="yes" value="yes"/>
      <supports element="accidental" type="yes"/>
      <supports element="beam" type="yes"/>
      <supports element="stem" type="yes"/>
    </encoding>
  </identification>
  <defaults>
    <scaling>
      <millimeters>6.5088</millimeters>
      <tenths>40</tenths>
    </scaling>
    <page-layout>
      <page-height>1717</page-height>
      <page-width>1327</page-width>
      <page-margins type="both">
        <left-margin>78</left-margin>
        <right-margin>78</right-margin>
        <top-margin>78</top-margin>
        <bottom-margin>78</bottom-margin>
      </page-margins>
    </page-layout>
    <system-layout>
      <system-margins>
        <left-margin>0</left-margin>
        <right-margin>0</right-margin>
      </system-margins>
      <system-distance>190</system-distance>
      <top-system-distance>117</top-system-distance>
    </system-layout>
    <appearance>
      <line-width type="stem">1.4583</line-width>
      <line-width type="beam">5</line-width>
      <line-width type="staff">1.25</line-width>
      <line-width type="light barline">1.4583</line-width>
      <line-width type="heavy barline">5</line-width>
      <line-width type="leger">1.875</line-width>
      <line-width type="ending">1.4583</line-width>
      <line-width type="wedge">1.4583</line-width>
      <line-width type="enclosure">1.4583</line-width>
      <line-width type="tuplet bracket">1.4583</line-width>
      <note-size type="grace">50</note-size>
      <note-size type="cue">50</note-size>
      <distance type="hyphen">240</distance>
      <distance type="beam">7.5</distance>
    </appearance>
    <music-font font-family="Maestro,engraved" font-size="18.5"/>
    <word-font font-family="Arial" font-size="9.2"/>
    <lyric-font font-family="Georgia" font-size="10.8" name="verse"/>
    <lyric-font font-family="Arial" font-size="10.8" name="section"/>
  </defaults>
  <credit page="1">
    <credit-type>title</credit-type>
    <credit-words default-x="663" default-y="1694" font-size="21.6" font-weight="bold" justify="center" valign="top">10th Sunday In Ordinary Time:
Psalm 30 - I Will Praise You Lord</credit-words>
  </credit>
  <credit page="1">
    <credit-words default-x="1249" default-y="1576" font-size="10.8" font-style="italic" justify="right" valign="top">Music by</credit-words>
  </credit>
  <credit page="1">
    <credit-words default-x="78" default-y="1576" font-size="10.8" font-style="italic" valign="top">Words:</credit-words>
  </credit>
  <credit page="1">
    <credit-type>lyricist</credit-type>
    <credit-words default-x="78" default-y="1552" font-size="10.8" font-weight="bold" valign="top">CCD, ICEL</credit-words>
  </credit>
  <credit page="1">
    <credit-type>composer</credit-type>
    <credit-words default-x="1249" default-y="1552" font-size="10.8" font-weight="bold" justify="right" valign="top">Ashley Dean and Thomas Coppola</credit-words>
  </credit>
  <part-list>
    <score-part id="P1">
      <part-name print-object="no">Vocals</part-name>
      <score-instrument id="P1-I2">
        <instrument-name>Melody</instrument-name>
      </score-instrument>
      <midi-instrument id="P1-I2">
        <midi-channel>1</midi-channel>
        <midi-program>1</midi-program>
        <volume>80</volume>
        <pan>0</pan>
      </midi-instrument>
    </score-part>
  </part-list>
  <!--=========================================================-->
  <part id="P1">
    <measure number="1" width="364">
      <print>
        <page-layout>
          <page-height>1717</page-height>
          <page-width>1327</page-width>
          <page-margins>
            <left-margin>78</left-margin>
            <right-margin>78</right-margin>
            <top-margin>190</top-margin>
            <bottom-margin>163</bottom-margin>
          </page-margins>
        </page-layout>
        <system-layout>
          <system-margins>
            <left-margin>68</left-margin>
            <right-margin>0</right-margin>
          </system-margins>
        </system-layout>
        <measure-numbering>system</measure-numbering>
      </print>
      <attributes>
        <divisions>8</divisions>
        <key>
          <fifths>0</fifths>
          <mode>major</mode>
        </key>
        <time symbol="cut">
          <beats>2</beats>
          <beat-type>2</beat-type>
        </time>
        <clef>
          <sign>G</sign>
          <line>2</line>
        </clef>
      </attributes>
      <harmony default-y="36" font-size="10" font-weight="bold">
        <root>
          <root-step>A</root-step>
        </root>
        <kind halign="center" text="m">minor</kind>
      </harmony>
      <direction directive="yes" placement="above">
        <direction-type>
          <metronome default-y="59" font-family="EngraverTextT" font-size="7.7" halign="right">
            <beat-unit>quarter</beat-unit>
            <per-minute font-family="Times New Roman" font-weight="bold">75</per-minute>
          </metronome>
        </direction-type>
        <sound tempo="75"/>
      </direction>
      <direction placement="above">
        <direction-type>
          <rehearsal default-y="69" font-weight="bold" relative-x="-5">REFRAIN</rehearsal>
        </direction-type>
      </direction>
      <direction directive="yes" placement="above">
        <direction-type>
          <words default-y="124" font-style="italic" relative-x="-49">Year C
Psalm 30:2, 4, 5-6, 11, 12, 13; R:2a</words>
        </direction-type>
      </direction>
      <note default-x="93">
        <pitch>
          <step>A</step>
          <octave>4</octave>
        </pitch>
        <duration>8</duration>
        <voice>1</voice>
        <type>quarter</type>
        <stem default-y="6">up</stem>
        <lyric default-y="-91" name="verse" number="1">
          <syllabic>single</syllabic>
          <text font-size="10.8">I</text>
        </lyric>
      </note>
      <note default-x="158">
        <pitch>
          <step>A</step>
          <octave>4</octave>
        </pitch>
        <duration>8</duration>
        <voice>1</voice>
        <type>quarter</type>
        <stem default-y="6">up</stem>
        <lyric default-y="-91" name="verse" number="1">
          <syllabic>single</syllabic>
          <text font-size="10.8">will</text>
        </lyric>
      </note>
      <harmony default-y="36" font-size="10" font-weight="bold">
        <root>
          <root-step>C</root-step>
        </root>
        <kind halign="center" text="">major</kind>
      </harmony>
      <note default-x="227">
        <pitch>
          <step>C</step>
          <octave>5</octave>
        </pitch>
        <duration>8</duration>
        <voice>1</voice>
        <type>quarter</type>
        <stem default-y="-46">down</stem>
        <lyric default-y="-91" name="verse" number="1">
          <syllabic>single</syllabic>
          <text font-size="10.8">praise</text>
        </lyric>
      </note>
      <note default-x="297">
        <pitch>
          <step>C</step>
          <octave>5</octave>
        </pitch>
        <duration>8</duration>
        <voice>1</voice>
        <type>quarter</type>
        <stem default-y="-46">down</stem>
        <lyric default-y="-91" name="verse" number="1">
          <syllabic>single</syllabic>
          <text font-size="10.8">you,</text>
        </lyric>
      </note>
      <direction placement="above">
        <direction-type>
          <words default-y="180" font-style="italic" valign="top">(as published by Liturgy Resources)</words>
        </direction-type>
        <offset>3</offset>
      </direction>
    </measure>
    <!--=======================================================-->
    <measure number="2" width="445">
      <harmony default-y="36" font-size="10" font-weight="bold">
        <root>
          <root-step>G</root-step>
        </root>
        <kind halign="center" text="">major</kind>
      </harmony>
      <note default-x="22">
        <pitch>
          <step>B</step>
          <octave>4</octave>
        </pitch>
        <duration>8</duration>
        <voice>1</voice>
        <type>quarter</type>
        <stem default-y="-51">down</stem>
        <lyric default-y="-91" name="verse" number="1">
          <syllabic>single</syllabic>
          <text font-size="10.8">Lord,</text>
        </lyric>
      </note>
      <note default-x="82">
        <rest/>
        <duration>4</duration>
        <voice>1</voice>
        <type>eighth</type>
      </note>
      <note default-x="142">
        <pitch>
          <step>G</step>
          <octave>4</octave>
        </pitch>
        <duration>4</duration>
        <voice>1</voice>
        <type>eighth</type>
        <stem default-y="1">up</stem>
        <lyric default-y="-91" name="verse" number="1">
          <syllabic>single</syllabic>
          <text font-size="10.8">for</text>
        </lyric>
      </note>
      <harmony default-y="36" font-size="10" font-weight="bold">
        <root>
          <root-step>G</root-step>
        </root>
        <kind halign="center" text="">major</kind>
        <bass>
          <bass-step>D</bass-step>
        </bass>
      </harmony>
      <note default-x="202">
        <pitch>
          <step>B</step>
          <octave>4</octave>
        </pitch>
        <duration>4</duration>
        <voice>1</voice>
        <type>eighth</type>
        <stem default-y="-51">down</stem>
        <beam number="1">begin</beam>
        <lyric default-y="-91" name="verse" number="1">
          <syllabic>single</syllabic>
          <text font-size="10.8">you</text>
        </lyric>
      </note>
      <note default-x="263">
        <pitch>
          <step>C</step>
          <octave>5</octave>
        </pitch>
        <duration>4</duration>
        <voice>1</voice>
        <type>eighth</type>
        <stem default-y="-46">down</stem>
        <beam number="1">end</beam>
        <lyric default-y="-91" name="verse" number="1">
          <syllabic>single</syllabic>
          <text font-size="10.8">have</text>
        </lyric>
      </note>
      <note default-x="323">
        <pitch>
          <step>B</step>
          <octave>4</octave>
        </pitch>
        <duration>4</duration>
        <voice>1</voice>
        <type>eighth</type>
        <stem default-y="11.5">up</stem>
        <beam number="1">begin</beam>
        <lyric default-y="-91" name="verse" number="1">
          <syllabic>begin</syllabic>
          <text font-size="10.8">res</text>
        </lyric>
      </note>
      <note default-x="383">
        <pitch>
          <step>A</step>
          <octave>4</octave>
        </pitch>
        <duration>4</duration>
        <tie type="start"/>
        <voice>1</voice>
        <type>eighth</type>
        <stem default-y="6">up</stem>
        <beam number="1">end</beam>
        <notations>
          <tied type="start"/>
        </notations>
        <lyric default-y="-91" name="verse" number="1">
          <syllabic>end</syllabic>
          <text font-size="10.8">cued</text>
          <extend type="start"/>
        </lyric>
      </note>
    </measure>
    <!--=======================================================-->
    <measure number="3" width="176">
      <harmony default-y="36" font-size="10" font-weight="bold">
        <root>
          <root-step>A</root-step>
        </root>
        <kind halign="center" text="m">minor</kind>
      </harmony>
      <note default-x="22">
        <pitch>
          <step>A</step>
          <octave>4</octave>
        </pitch>
        <duration>4</duration>
        <tie type="stop"/>
        <voice>1</voice>
        <type>eighth</type>
        <stem default-y="6">up</stem>
        <notations>
          <tied type="stop"/>
        </notations>
        <lyric name="verse" number="1">
          <extend type="stop"/>
        </lyric>
      </note>
      <note default-x="73">
        <pitch>
          <step>A</step>
          <octave>4</octave>
        </pitch>
        <duration>12</duration>
        <tie type="start"/>
        <voice>1</voice>
        <type>quarter</type>
        <dot/>
        <stem default-y="6">up</stem>
        <notations>
          <tied type="start"/>
        </notations>
        <lyric default-y="-91" name="verse" number="1">
          <syllabic>single</syllabic>
          <text font-size="10.8">me.</text>
          <extend type="start"/>
        </lyric>
      </note>
      <harmony default-y="36" font-size="10" font-weight="bold">
        <root>
          <root-step>C</root-step>
        </root>
        <kind halign="center" text="">major</kind>
      </harmony>
      <note default-x="124">
        <pitch>
          <step>A</step>
          <octave>4</octave>
        </pitch>
        <duration>16</duration>
        <tie type="stop"/>
        <voice>1</voice>
        <type>half</type>
        <stem default-y="6">up</stem>
        <notations>
          <tied type="stop"/>
        </notations>
        <lyric name="verse" number="1">
          <extend type="stop"/>
        </lyric>
      </note>
    </measure>
    <!--=======================================================-->
    <measure number="4" width="118">
      <harmony default-y="36" font-size="10" font-weight="bold">
        <root>
          <root-step>G</root-step>
        </root>
        <kind halign="center" text="">major</kind>
      </harmony>
      <note default-x="46">
        <rest/>
        <duration>32</duration>
        <voice>1</voice>
        <type>whole</type>
        <notations>
          <fermata default-x="-5" default-y="5" type="upright"/>
        </notations>
      </note>
      <direction placement="above">
        <direction-type>
          <words default-x="110" default-y="4" font-style="italic" justify="right">Fine</words>
        </direction-type>
        <sound fine="yes" time-only="4"/>
      </direction>
      <barline location="right">
        <bar-style>light-heavy</bar-style>
      </barline>
    </measure>
    <!--=======================================================-->
    <measure number="5" width="1171">
      <print new-system="yes">
        <system-layout>
          <system-distance>180</system-distance>
        </system-layout>
      </print>
      <harmony default-y="36" font-size="10" font-weight="bold">
        <root>
          <root-step>A</root-step>
        </root>
        <kind halign="center" text="m">minor</kind>
      </harmony>
      <direction placement="above">
        <direction-type>
          <rehearsal default-y="69" font-weight="bold" relative-x="-5">VERSE</rehearsal>
        </direction-type>
      </direction>
      <note default-x="87">
        <pitch>
          <step>A</step>
          <octave>4</octave>
        </pitch>
        <duration>32</duration>
        <voice>1</voice>
        <type>whole</type>
      </note>
      <harmony default-y="36" font-size="10" font-weight="bold">
        <root>
          <root-step>G</root-step>
        </root>
        <kind halign="center" text="">major</kind>
      </harmony>
      <note default-x="887">
        <pitch>
          <step>G</step>
          <octave>4</octave>
        </pitch>
        <duration>16</duration>
        <voice>1</voice>
        <type>half</type>
        <stem>none</stem>
      </note>
      <backup>
        <duration>48</duration>
      </backup>
      <note print-lyric="yes" print-object="no" print-spacing="yes">
        <pitch>
          <step>A</step>
          <octave>4</octave>
        </pitch>
        <duration>4</duration>
        <voice>2</voice>
        <type>eighth</type>
        <stem>down</stem>
        <beam number="1">begin</beam>
        <lyric default-y="-91" name="verse" number="1">
          <syllabic>single</syllabic>
          <text font-size="10.8">1.</text>
          <elision> </elision>
          <syllabic>single</syllabic>
          <text font-size="10.8">I</text>
          <elision> </elision>
          <syllabic>single</syllabic>
          <text font-size="10.8"/>
          <elision> </elision>
          <syllabic>single</syllabic>
          <text font-size="10.8"/>
          <elision> </elision>
          <syllabic>single</syllabic>
          <text font-size="10.8"/>
          <elision> </elision>
          <syllabic>single</syllabic>
          <text font-size="10.8"/>
          <elision> </elision>
          <syllabic>single</syllabic>
          <text font-size="10.8"/>
          <elision> </elision>
          <syllabic>single</syllabic>
          <text font-size="10.8"/>
          <elision> </elision>
          <syllabic>single</syllabic>
          <text font-size="10.8"/>
          <elision> </elision>
          <syllabic>single</syllabic>
          <text font-size="10.8"/>
          <elision> </elision>
          <syllabic>single</syllabic>
          <text font-size="10.8"/>
          <elision> </elision>
          <syllabic>single</syllabic>
          <text font-size="10.8"/>
          <elision> </elision>
          <syllabic>single</syllabic>
          <text font-size="10.8"/>
        </lyric>
        <lyric default-y="-115" name="verse" number="2">
          <syllabic>single</syllabic>
          <text font-size="10.8">2.</text>
          <elision> </elision>
          <syllabic>single</syllabic>
          <text font-size="10.8">Sing</text>
          <elision> </elision>
          <syllabic>single</syllabic>
          <text font-size="10.8"/>
          <elision> </elision>
          <syllabic>single</syllabic>
          <text font-size="10.8"/>
          <elision> </elision>
          <syllabic>single</syllabic>
          <text font-size="10.8"/>
          <elision> </elision>
          <syllabic>single</syllabic>
          <text font-size="10.8"/>
          <elision> </elision>
          <syllabic>single</syllabic>
          <text font-size="10.8"/>
          <elision> </elision>
          <syllabic>single</syllabic>
          <text font-size="10.8"/>
        </lyric>
        <lyric default-y="-140" name="verse" number="3">
          <syllabic>single</syllabic>
          <text font-size="10.8">3.</text>
          <elision> </elision>
          <syllabic>single</syllabic>
          <text font-size="10.8">Hear,</text>
          <elision> </elision>
          <syllabic>single</syllabic>
          <text font-size="10.8"/>
          <elision> </elision>
          <syllabic>single</syllabic>
          <text font-size="10.8"/>
          <elision> </elision>
          <syllabic>single</syllabic>
          <text font-size="10.8"/>
          <elision> </elision>
          <syllabic>single</syllabic>
          <text font-size="10.8"/>
        </lyric>
      </note>
      <note print-lyric="yes" print-object="no" print-spacing="yes">
        <pitch>
          <step>A</step>
          <octave>4</octave>
        </pitch>
        <duration>4</duration>
        <voice>2</voice>
        <type>eighth</type>
        <stem>down</stem>
        <beam number="1">end</beam>
        <lyric default-y="-91" name="verse" number="1">
          <syllabic>single</syllabic>
          <text font-size="10.8">will</text>
        </lyric>
        <lyric default-y="-115" name="verse" number="2">
          <syllabic>single</syllabic>
          <text font-size="10.8">praise</text>
        </lyric>
      </note>
      <note print-lyric="yes" print-object="no" print-spacing="yes">
        <pitch>
          <step>A</step>
          <octave>4</octave>
        </pitch>
        <duration>2</duration>
        <voice>2</voice>
        <type>16th</type>
        <stem>up</stem>
        <beam number="1">begin</beam>
        <beam number="2">begin</beam>
        <lyric default-y="-91" name="verse" number="1">
          <syllabic>single</syllabic>
          <text font-size="10.8">extol</text>
        </lyric>
        <lyric default-y="-140" name="verse" number="3">
          <syllabic>single</syllabic>
          <text font-size="10.8">O</text>
        </lyric>
      </note>
      <note print-lyric="yes" print-object="no" print-spacing="yes">
        <pitch>
          <step>A</step>
          <octave>4</octave>
        </pitch>
        <duration>2</duration>
        <voice>2</voice>
        <type>16th</type>
        <stem>up</stem>
        <beam number="1">continue</beam>
        <beam number="2">end</beam>
        <lyric default-y="-91" name="verse" number="1">
          <syllabic>single</syllabic>
          <text font-size="10.8">you,</text>
        </lyric>
        <lyric default-y="-115" name="verse" number="2">
          <syllabic>single</syllabic>
          <text font-size="10.8">to</text>
        </lyric>
        <lyric default-y="-140" name="verse" number="3">
          <syllabic>single</syllabic>
          <text font-size="10.8">LORD,</text>
        </lyric>
      </note>
      <note print-lyric="yes" print-object="no" print-spacing="yes">
        <pitch>
          <step>A</step>
          <octave>4</octave>
        </pitch>
        <duration>4</duration>
        <voice>2</voice>
        <type>eighth</type>
        <stem>up</stem>
        <beam number="1">end</beam>
        <lyric default-y="-91" name="verse" number="1">
          <syllabic>single</syllabic>
          <text font-size="10.8">O</text>
        </lyric>
        <lyric default-y="-115" name="verse" number="2">
          <syllabic>single</syllabic>
          <text font-size="10.8">the</text>
        </lyric>
      </note>
      <note print-lyric="yes" print-object="no" print-spacing="yes">
        <pitch>
          <step>A</step>
          <octave>4</octave>
        </pitch>
        <duration>4</duration>
        <voice>2</voice>
        <type>eighth</type>
        <stem>up</stem>
        <beam number="1">begin</beam>
        <lyric default-y="-91" name="verse" number="1">
          <syllabic>single</syllabic>
          <text font-size="10.8">LORD,</text>
        </lyric>
        <lyric default-y="-115" name="verse" number="2">
          <syllabic>single</syllabic>
          <text font-size="10.8">LORD,</text>
        </lyric>
        <lyric default-y="-140" name="verse" number="3">
          <syllabic>single</syllabic>
          <text font-size="10.8">and</text>
        </lyric>
      </note>
      <note print-lyric="yes" print-object="no" print-spacing="yes">
        <pitch>
          <step>A</step>
          <octave>4</octave>
        </pitch>
        <duration>4</duration>
        <voice>2</voice>
        <type>eighth</type>
        <stem>up</stem>
        <beam number="1">end</beam>
        <lyric default-y="-91" name="verse" number="1">
          <syllabic>single</syllabic>
          <text font-size="10.8">for</text>
        </lyric>
      </note>
      <note print-lyric="yes" print-object="no" print-spacing="yes">
        <pitch>
          <step>A</step>
          <octave>4</octave>
        </pitch>
        <duration>2</duration>
        <voice>2</voice>
        <type>16th</type>
        <stem>up</stem>
        <beam number="1">begin</beam>
        <beam number="2">begin</beam>
        <lyric default-y="-91" name="verse" number="1">
          <syllabic>single</syllabic>
          <text font-size="10.8">you</text>
        </lyric>
        <lyric default-y="-115" name="verse" number="2">
          <syllabic>single</syllabic>
          <text font-size="10.8">you</text>
        </lyric>
        <lyric default-y="-140" name="verse" number="3">
          <syllabic>single</syllabic>
          <text font-size="10.8">have</text>
        </lyric>
      </note>
      <note print-lyric="yes" print-object="no" print-spacing="yes">
        <pitch>
          <step>A</step>
          <octave>4</octave>
        </pitch>
        <duration>2</duration>
        <voice>2</voice>
        <type>16th</type>
        <stem>up</stem>
        <beam number="1">continue</beam>
        <beam number="2">end</beam>
        <lyric default-y="-91" name="verse" number="1">
          <syllabic>single</syllabic>
          <text font-size="10.8">drew</text>
        </lyric>
      </note>
      <note print-lyric="yes" print-object="no" print-spacing="yes">
        <pitch>
          <step>A</step>
          <octave>4</octave>
        </pitch>
        <duration>4</duration>
        <voice>2</voice>
        <type>eighth</type>
        <stem>up</stem>
        <beam number="1">end</beam>
        <lyric default-y="-91" name="verse" number="1">
          <syllabic>single</syllabic>
          <text font-size="10.8">me</text>
        </lyric>
        <lyric default-y="-115" name="verse" number="2">
          <syllabic>single</syllabic>
          <text font-size="10.8">his</text>
        </lyric>
      </note>
      <note print-lyric="yes" print-object="no" print-spacing="yes">
        <pitch>
          <step>G</step>
          <octave>4</octave>
        </pitch>
        <duration>4</duration>
        <voice>2</voice>
        <type>eighth</type>
        <stem>down</stem>
        <beam number="1">begin</beam>
        <lyric default-y="-91" name="verse" number="1">
          <syllabic>single</syllabic>
          <text font-size="10.8">clear</text>
        </lyric>
        <lyric default-y="-115" name="verse" number="2">
          <syllabic>single</syllabic>
          <text font-size="10.8">faithful</text>
        </lyric>
        <lyric default-y="-140" name="verse" number="3">
          <syllabic>single</syllabic>
          <text font-size="10.8">pity</text>
        </lyric>
      </note>
      <note print-lyric="yes" print-object="no" print-spacing="yes">
        <pitch>
          <step>G</step>
          <octave>4</octave>
        </pitch>
        <duration>4</duration>
        <voice>2</voice>
        <type>eighth</type>
        <stem>down</stem>
        <beam number="1">end</beam>
        <lyric default-y="-115" name="verse" number="2">
          <syllabic>single</syllabic>
          <text font-size="10.8">ones,</text>
        </lyric>
        <lyric default-y="-140" name="verse" number="3">
          <syllabic>single</syllabic>
          <text font-size="10.8">on</text>
        </lyric>
      </note>
      <note print-lyric="yes" print-object="no" print-spacing="yes">
        <pitch>
          <step>G</step>
          <octave>4</octave>
        </pitch>
        <duration>4</duration>
        <voice>2</voice>
        <type>eighth</type>
        <stem>up</stem>
        <beam number="1">begin</beam>
        <lyric default-y="-140" name="verse" number="3">
          <syllabic>single</syllabic>
          <text font-size="10.8">me;</text>
        </lyric>
      </note>
      <note print-object="no">
        <pitch>
          <step>G</step>
          <octave>4</octave>
        </pitch>
        <duration>4</duration>
        <voice>2</voice>
        <type>eighth</type>
        <stem>up</stem>
        <beam number="1">end</beam>
      </note>
    </measure>
    <!--=======================================================-->
    <measure number="6" width="1171">
      <print new-system="yes">
        <system-layout>
          <system-distance>180</system-distance>
        </system-layout>
      </print>
      <harmony default-y="36" font-size="10" font-weight="bold">
        <root>
          <root-step>D</root-step>
        </root>
        <kind halign="center" text="m">minor</kind>
      </harmony>
      <note default-x="59">
        <pitch>
          <step>F</step>
          <octave>4</octave>
        </pitch>
        <duration>32</duration>
        <voice>1</voice>
        <type>whole</type>
      </note>
      <harmony default-y="36" font-size="10" font-weight="bold">
        <root>
          <root-step>F</root-step>
        </root>
        <kind halign="center" text="">major</kind>
      </harmony>
      <note default-x="800">
        <pitch>
          <step>A</step>
          <octave>4</octave>
        </pitch>
        <duration>16</duration>
        <voice>1</voice>
        <type>half</type>
        <stem>none</stem>
      </note>
      <backup>
        <duration>48</duration>
      </backup>
      <note print-lyric="yes" print-object="no" print-spacing="yes">
        <pitch>
          <step>F</step>
          <octave>4</octave>
        </pitch>
        <duration>4</duration>
        <voice>2</voice>
        <type>eighth</type>
        <stem>down</stem>
        <beam number="1">begin</beam>
        <lyric default-y="-91" name="verse" number="1">
          <syllabic>single</syllabic>
          <text font-size="10.8">and</text>
        </lyric>
        <lyric default-y="-115" name="verse" number="2">
          <syllabic>single</syllabic>
          <text font-size="10.8">and</text>
        </lyric>
        <lyric default-y="-140" name="verse" number="3">
          <syllabic>single</syllabic>
          <text font-size="10.8">O</text>
        </lyric>
      </note>
      <note print-lyric="yes" print-object="no" print-spacing="yes">
        <pitch>
          <step>F</step>
          <octave>4</octave>
        </pitch>
        <duration>4</duration>
        <voice>2</voice>
        <type>eighth</type>
        <stem>down</stem>
        <beam number="1">end</beam>
        <lyric default-y="-91" name="verse" number="1">
          <syllabic>single</syllabic>
          <text font-size="10.8">did</text>
        </lyric>
        <lyric default-y="-115" name="verse" number="2">
          <syllabic>single</syllabic>
          <text font-size="10.8">give</text>
        </lyric>
      </note>
      <note print-lyric="yes" print-object="no" print-spacing="yes">
        <pitch>
          <step>F</step>
          <octave>4</octave>
        </pitch>
        <duration>4</duration>
        <voice>2</voice>
        <type>eighth</type>
        <stem>up</stem>
        <beam number="1">begin</beam>
        <lyric default-y="-91" name="verse" number="1">
          <syllabic>single</syllabic>
          <text font-size="10.8">not</text>
        </lyric>
        <lyric default-y="-115" name="verse" number="2">
          <syllabic>single</syllabic>
          <text font-size="10.8">thanks</text>
        </lyric>
        <lyric default-y="-140" name="verse" number="3">
          <syllabic>single</syllabic>
          <text font-size="10.8">LORD,</text>
        </lyric>
      </note>
      <note print-lyric="yes" print-object="no" print-spacing="yes">
        <pitch>
          <step>F</step>
          <octave>4</octave>
        </pitch>
        <duration>4</duration>
        <voice>2</voice>
        <type>eighth</type>
        <stem>up</stem>
        <beam number="1">end</beam>
        <lyric default-y="-91" name="verse" number="1">
          <syllabic>single</syllabic>
          <text font-size="10.8">let</text>
        </lyric>
      </note>
      <note print-lyric="yes" print-object="no" print-spacing="yes">
        <pitch>
          <step>F</step>
          <octave>4</octave>
        </pitch>
        <duration>4</duration>
        <voice>2</voice>
        <type>eighth</type>
        <stem>up</stem>
        <beam number="1">begin</beam>
        <lyric default-y="-91" name="verse" number="1">
          <syllabic>single</syllabic>
          <text font-size="10.8">my</text>
        </lyric>
        <lyric default-y="-115" name="verse" number="2">
          <syllabic>single</syllabic>
          <text font-size="10.8">to</text>
        </lyric>
        <lyric default-y="-140" name="verse" number="3">
          <syllabic>single</syllabic>
          <text font-size="10.8">be</text>
        </lyric>
      </note>
      <note print-lyric="yes" print-object="no" print-spacing="yes">
        <pitch>
          <step>F</step>
          <octave>4</octave>
        </pitch>
        <duration>4</duration>
        <voice>2</voice>
        <type>eighth</type>
        <stem>up</stem>
        <beam number="1">end</beam>
        <lyric default-y="-91" name="verse" number="1">
          <syllabic>single</syllabic>
          <text font-size="10.8">enemies</text>
        </lyric>
        <lyric default-y="-115" name="verse" number="2">
          <syllabic>single</syllabic>
          <text font-size="10.8">his</text>
        </lyric>
      </note>
      <note print-lyric="yes" print-object="no" print-spacing="yes">
        <pitch>
          <step>F</step>
          <octave>4</octave>
        </pitch>
        <duration>4</duration>
        <voice>2</voice>
        <type>eighth</type>
        <stem>up</stem>
        <beam number="1">begin</beam>
        <lyric default-y="-91" name="verse" number="1">
          <syllabic>single</syllabic>
          <text font-size="10.8">rejoice</text>
        </lyric>
        <lyric default-y="-115" name="verse" number="2">
          <syllabic>single</syllabic>
          <text font-size="10.8">holy</text>
        </lyric>
        <lyric default-y="-140" name="verse" number="3">
          <syllabic>single</syllabic>
          <text font-size="10.8">my</text>
        </lyric>
      </note>
      <note print-lyric="yes" print-object="no" print-spacing="yes">
        <pitch>
          <step>F</step>
          <octave>4</octave>
        </pitch>
        <duration>4</duration>
        <voice>2</voice>
        <type>eighth</type>
        <stem>up</stem>
        <beam number="1">end</beam>
        <lyric default-y="-91" name="verse" number="1">
          <syllabic>single</syllabic>
          <text font-size="10.8">over</text>
        </lyric>
      </note>
      <note print-lyric="yes" print-object="no" print-spacing="yes">
        <pitch>
          <step>A</step>
          <octave>4</octave>
        </pitch>
        <duration>4</duration>
        <voice>2</voice>
        <type>eighth</type>
        <stem>down</stem>
        <beam number="1">begin</beam>
        <lyric default-y="-91" name="verse" number="1">
          <syllabic>single</syllabic>
          <text font-size="10.8">me.</text>
        </lyric>
        <lyric default-y="-115" name="verse" number="2">
          <syllabic>single</syllabic>
          <text font-size="10.8">name.</text>
        </lyric>
        <lyric default-y="-140" name="verse" number="3">
          <syllabic>single</syllabic>
          <text font-size="10.8">helper.</text>
        </lyric>
      </note>
      <note print-object="no">
        <pitch>
          <step>A</step>
          <octave>4</octave>
        </pitch>
        <duration>4</duration>
        <voice>2</voice>
        <type>eighth</type>
        <stem>down</stem>
        <beam number="1">end</beam>
      </note>
      <note print-object="no">
        <pitch>
          <step>A</step>
          <octave>4</octave>
        </pitch>
        <duration>4</duration>
        <voice>2</voice>
        <type>eighth</type>
        <stem>up</stem>
        <beam number="1">begin</beam>
      </note>
      <note print-object="no">
        <pitch>
          <step>A</step>
          <octave>4</octave>
        </pitch>
        <duration>4</duration>
        <voice>2</voice>
        <type>eighth</type>
        <stem>up</stem>
        <beam number="1">end</beam>
      </note>
    </measure>
    <!--=======================================================-->
    <measure number="7" width="1171">
      <print new-system="yes">
        <system-layout>
          <system-distance>180</system-distance>
        </system-layout>
      </print>
      <harmony default-y="36" font-size="10" font-weight="bold">
        <root>
          <root-step>A</root-step>
        </root>
        <kind halign="center" text="m">minor</kind>
      </harmony>
      <note default-x="60">
        <pitch>
          <step>A</step>
          <octave>4</octave>
        </pitch>
        <duration>32</duration>
        <voice>1</voice>
        <type>whole</type>
      </note>
      <harmony default-y="36" font-size="10" font-weight="bold">
        <root>
          <root-step>G</root-step>
        </root>
        <kind halign="center" text="">major</kind>
      </harmony>
      <note default-x="940">
        <pitch>
          <step>G</step>
          <octave>4</octave>
        </pitch>
        <duration>16</duration>
        <voice>1</voice>
        <type>half</type>
        <stem>none</stem>
      </note>
      <backup>
        <duration>48</duration>
      </backup>
      <note print-lyric="yes" print-object="no" print-spacing="yes">
        <pitch>
          <step>A</step>
          <octave>4</octave>
        </pitch>
        <duration>2</duration>
        <voice>2</voice>
        <type>16th</type>
        <stem>down</stem>
        <beam number="1">begin</beam>
        <beam number="2">begin</beam>
        <lyric default-y="-91" name="verse" number="1">
          <syllabic>single</syllabic>
          <text font-size="10.8">O</text>
        </lyric>
        <lyric default-y="-115" name="verse" number="2">
          <syllabic>single</syllabic>
          <text font-size="10.8">For</text>
        </lyric>
        <lyric default-y="-140" name="verse" number="3">
          <syllabic>single</syllabic>
          <text font-size="10.8">You</text>
        </lyric>
      </note>
      <note print-lyric="yes" print-object="no" print-spacing="yes">
        <pitch>
          <step>A</step>
          <octave>4</octave>
        </pitch>
        <duration>2</duration>
        <voice>2</voice>
        <type>16th</type>
        <stem>down</stem>
        <beam number="1">continue</beam>
        <beam number="2">end</beam>
        <lyric default-y="-91" name="verse" number="1">
          <syllabic>single</syllabic>
          <text font-size="10.8">LORD,</text>
        </lyric>
        <lyric default-y="-115" name="verse" number="2">
          <syllabic>single</syllabic>
          <text font-size="10.8">his</text>
        </lyric>
      </note>
      <note print-lyric="yes" print-object="no" print-spacing="yes">
        <pitch>
          <step>A</step>
          <octave>4</octave>
        </pitch>
        <duration>4</duration>
        <voice>2</voice>
        <type>eighth</type>
        <stem>down</stem>
        <beam number="1">end</beam>
        <lyric default-y="-115" name="verse" number="2">
          <syllabic>single</syllabic>
          <text font-size="10.8">anger</text>
        </lyric>
        <lyric default-y="-140" name="verse" number="3">
          <syllabic>single</syllabic>
          <text font-size="10.8">changed</text>
        </lyric>
      </note>
      <note print-lyric="yes" print-object="no" print-spacing="yes">
        <pitch>
          <step>A</step>
          <octave>4</octave>
        </pitch>
        <duration>2</duration>
        <voice>2</voice>
        <type>16th</type>
        <stem>up</stem>
        <beam number="1">begin</beam>
        <beam number="2">begin</beam>
        <lyric default-y="-91" name="verse" number="1">
          <syllabic>single</syllabic>
          <text font-size="10.8">you</text>
        </lyric>
        <lyric default-y="-115" name="verse" number="2">
          <syllabic>single</syllabic>
          <text font-size="10.8">lasts</text>
        </lyric>
      </note>
      <note print-lyric="yes" print-object="no" print-spacing="yes">
        <pitch>
          <step>A</step>
          <octave>4</octave>
        </pitch>
        <duration>2</duration>
        <voice>2</voice>
        <type>16th</type>
        <stem>up</stem>
        <beam number="1">continue</beam>
        <beam number="2">end</beam>
        <lyric default-y="-91" name="verse" number="1">
          <syllabic>single</syllabic>
          <text font-size="10.8">brought</text>
        </lyric>
        <lyric default-y="-115" name="verse" number="2">
          <syllabic>single</syllabic>
          <text font-size="10.8">but</text>
        </lyric>
        <lyric default-y="-140" name="verse" number="3">
          <syllabic>single</syllabic>
          <text font-size="10.8">my</text>
        </lyric>
      </note>
      <note print-lyric="yes" print-object="no" print-spacing="yes">
        <pitch>
          <step>A</step>
          <octave>4</octave>
        </pitch>
        <duration>4</duration>
        <voice>2</voice>
        <type>eighth</type>
        <stem>up</stem>
        <beam number="1">end</beam>
        <lyric default-y="-91" name="verse" number="1">
          <syllabic>single</syllabic>
          <text font-size="10.8">me</text>
        </lyric>
        <lyric default-y="-115" name="verse" number="2">
          <syllabic>single</syllabic>
          <text font-size="10.8">a</text>
        </lyric>
      </note>
      <note print-lyric="yes" print-object="no" print-spacing="yes">
        <pitch>
          <step>A</step>
          <octave>4</octave>
        </pitch>
        <duration>2</duration>
        <voice>2</voice>
        <type>16th</type>
        <stem>up</stem>
        <beam number="1">begin</beam>
        <beam number="2">begin</beam>
        <lyric default-y="-91" name="verse" number="1">
          <syllabic>single</syllabic>
          <text font-size="10.8">up</text>
        </lyric>
        <lyric default-y="-115" name="verse" number="2">
          <syllabic>single</syllabic>
          <text font-size="10.8">moment;</text>
        </lyric>
        <lyric default-y="-140" name="verse" number="3">
          <syllabic>single</syllabic>
          <text font-size="10.8">mourning</text>
        </lyric>
      </note>
      <note print-lyric="yes" print-object="no" print-spacing="yes">
        <pitch>
          <step>A</step>
          <octave>4</octave>
        </pitch>
        <duration>2</duration>
        <voice>2</voice>
        <type>16th</type>
        <stem>up</stem>
        <beam number="1">continue</beam>
        <beam number="2">end</beam>
        <lyric default-y="-115" name="verse" number="2">
          <syllabic>single</syllabic>
          <text font-size="10.8">a</text>
        </lyric>
      </note>
      <note print-lyric="yes" print-object="no" print-spacing="yes">
        <pitch>
          <step>A</step>
          <octave>4</octave>
        </pitch>
        <duration>4</duration>
        <voice>2</voice>
        <type>eighth</type>
        <stem>up</stem>
        <beam number="1">end</beam>
        <lyric default-y="-91" name="verse" number="1">
          <syllabic>single</syllabic>
          <text font-size="10.8">from</text>
        </lyric>
        <lyric default-y="-115" name="verse" number="2">
          <syllabic>single</syllabic>
          <text font-size="10.8">lifetime,</text>
        </lyric>
      </note>
      <note print-lyric="yes" print-object="no" print-spacing="yes">
        <pitch>
          <step>A</step>
          <octave>4</octave>
        </pitch>
        <duration>4</duration>
        <voice>2</voice>
        <type>eighth</type>
        <stem>up</stem>
        <beam number="1">begin</beam>
        <lyric default-y="-91" name="verse" number="1">
          <syllabic>single</syllabic>
          <text font-size="10.8">the</text>
        </lyric>
        <lyric default-y="-115" name="verse" number="2">
          <syllabic>single</syllabic>
          <text font-size="10.8">his</text>
        </lyric>
        <lyric default-y="-140" name="verse" number="3">
          <syllabic>single</syllabic>
          <text font-size="10.8">into</text>
        </lyric>
      </note>
      <note print-lyric="yes" print-object="no" print-spacing="yes">
        <pitch>
          <step>A</step>
          <octave>4</octave>
        </pitch>
        <duration>4</duration>
        <voice>2</voice>
        <type>eighth</type>
        <stem>up</stem>
        <beam number="1">end</beam>
        <lyric default-y="-115" name="verse" number="2">
          <syllabic>single</syllabic>
          <text font-size="10.8">good</text>
        </lyric>
      </note>
      <note print-lyric="yes" print-object="no" print-spacing="yes">
        <pitch>
          <step>G</step>
          <octave>4</octave>
        </pitch>
        <duration>4</duration>
        <voice>2</voice>
        <type>eighth</type>
        <stem>down</stem>
        <beam number="1">begin</beam>
        <lyric default-y="-91" name="verse" number="1">
          <syllabic>single</syllabic>
          <text font-size="10.8">nether</text>
        </lyric>
        <lyric default-y="-115" name="verse" number="2">
          <syllabic>single</syllabic>
          <text font-size="10.8">will.</text>
        </lyric>
        <lyric default-y="-140" name="verse" number="3">
          <syllabic>single</syllabic>
          <text font-size="10.8">dancing;</text>
        </lyric>
      </note>
      <note print-lyric="yes" print-object="no" print-spacing="yes">
        <pitch>
          <step>G</step>
          <octave>4</octave>
        </pitch>
        <duration>4</duration>
        <voice>2</voice>
        <type>eighth</type>
        <stem>down</stem>
        <beam number="1">end</beam>
        <lyric default-y="-91" name="verse" number="1">
          <syllabic>single</syllabic>
          <text font-size="10.8">world;</text>
        </lyric>
      </note>
      <note print-object="no">
        <pitch>
          <step>G</step>
          <octave>4</octave>
        </pitch>
        <duration>4</duration>
        <voice>2</voice>
        <type>eighth</type>
        <stem>up</stem>
        <beam number="1">begin</beam>
      </note>
      <note print-object="no">
        <pitch>
          <step>G</step>
          <octave>4</octave>
        </pitch>
        <duration>4</duration>
        <voice>2</voice>
        <type>eighth</type>
        <stem>up</stem>
        <beam number="1">end</beam>
      </note>
    </measure>
    <!--=======================================================-->
    <measure number="8" width="951">
      <print new-system="yes">
        <system-layout>
          <system-distance>180</system-distance>
        </system-layout>
      </print>
      <harmony default-y="36" font-size="10" font-weight="bold">
        <root>
          <root-step>D</root-step>
        </root>
        <kind halign="center" text="m">minor</kind>
      </harmony>
      <note default-x="59">
        <pitch>
          <step>F</step>
          <octave>4</octave>
        </pitch>
        <duration>32</duration>
        <voice>1</voice>
        <type>whole</type>
      </note>
      <note default-x="848">
        <pitch>
          <step>G</step>
          <octave>4</octave>
        </pitch>
        <duration>8</duration>
        <voice>1</voice>
        <type>quarter</type>
        <stem>none</stem>
      </note>
      <backup>
        <duration>40</duration>
      </backup>
      <note print-lyric="yes" print-object="no" print-spacing="yes">
        <pitch>
          <step>F</step>
          <octave>4</octave>
        </pitch>
        <duration>4</duration>
        <voice>2</voice>
        <type>eighth</type>
        <stem>down</stem>
        <beam number="1">begin</beam>
        <lyric default-y="-91" name="verse" number="1">
          <syllabic>single</syllabic>
          <text font-size="10.8">you</text>
        </lyric>
        <lyric default-y="-115" name="verse" number="2">
          <syllabic>single</syllabic>
          <text font-size="10.8">At</text>
        </lyric>
        <lyric default-y="-140" name="verse" number="3">
          <syllabic>single</syllabic>
          <text font-size="10.8">O</text>
        </lyric>
      </note>
      <note print-lyric="yes" print-object="no" print-spacing="yes">
        <pitch>
          <step>F</step>
          <octave>4</octave>
        </pitch>
        <duration>4</duration>
        <voice>2</voice>
        <type>eighth</type>
        <stem>down</stem>
        <beam number="1">end</beam>
        <lyric default-y="-91" name="verse" number="1">
          <syllabic>single</syllabic>
          <text font-size="10.8">preserved</text>
        </lyric>
        <lyric default-y="-115" name="verse" number="2">
          <syllabic>single</syllabic>
          <text font-size="10.8">nightfall,</text>
        </lyric>
        <lyric default-y="-140" name="verse" number="3">
          <syllabic>single</syllabic>
          <text font-size="10.8">LORD,</text>
        </lyric>
      </note>
      <note print-lyric="yes" print-object="no" print-spacing="yes">
        <pitch>
          <step>F</step>
          <octave>4</octave>
        </pitch>
        <duration>4</duration>
        <voice>2</voice>
        <type>eighth</type>
        <stem>up</stem>
        <beam number="1">begin</beam>
        <lyric default-y="-91" name="verse" number="1">
          <syllabic>single</syllabic>
          <text font-size="10.8">me</text>
        </lyric>
        <lyric default-y="-115" name="verse" number="2">
          <syllabic>single</syllabic>
          <text font-size="10.8">weeping</text>
        </lyric>
        <lyric default-y="-140" name="verse" number="3">
          <syllabic>single</syllabic>
          <text font-size="10.8">my</text>
        </lyric>
      </note>
      <note print-lyric="yes" print-object="no" print-spacing="yes">
        <pitch>
          <step>F</step>
          <octave>4</octave>
        </pitch>
        <duration>4</duration>
        <voice>2</voice>
        <type>eighth</type>
        <stem>up</stem>
        <beam number="1">end</beam>
        <lyric default-y="-91" name="verse" number="1">
          <syllabic>single</syllabic>
          <text font-size="10.8">from</text>
        </lyric>
        <lyric default-y="-115" name="verse" number="2">
          <syllabic>single</syllabic>
          <text font-size="10.8">enters</text>
        </lyric>
        <lyric default-y="-140" name="verse" number="3">
          <syllabic>single</syllabic>
          <text font-size="10.8">God,</text>
        </lyric>
      </note>
      <note print-lyric="yes" print-object="no" print-spacing="yes">
        <pitch>
          <step>F</step>
          <octave>4</octave>
        </pitch>
        <duration>4</duration>
        <voice>2</voice>
        <type>eighth</type>
        <stem>up</stem>
        <beam number="1">begin</beam>
        <lyric default-y="-91" name="verse" number="1">
          <syllabic>single</syllabic>
          <text font-size="10.8">among</text>
        </lyric>
        <lyric default-y="-115" name="verse" number="2">
          <syllabic>single</syllabic>
          <text font-size="10.8">in,</text>
        </lyric>
      </note>
      <note print-lyric="yes" print-object="no" print-spacing="yes">
        <pitch>
          <step>F</step>
          <octave>4</octave>
        </pitch>
        <duration>4</duration>
        <voice>2</voice>
        <type>eighth</type>
        <stem>up</stem>
        <beam number="1">end</beam>
        <lyric default-y="-91" name="verse" number="1">
          <syllabic>single</syllabic>
          <text font-size="10.8">those</text>
        </lyric>
        <lyric default-y="-115" name="verse" number="2">
          <syllabic>single</syllabic>
          <text font-size="10.8">but</text>
        </lyric>
        <lyric default-y="-140" name="verse" number="3">
          <syllabic>single</syllabic>
          <text font-size="10.8">forever</text>
        </lyric>
      </note>
      <note print-lyric="yes" print-object="no" print-spacing="yes">
        <pitch>
          <step>F</step>
          <octave>4</octave>
        </pitch>
        <duration>2</duration>
        <voice>2</voice>
        <type>16th</type>
        <stem>up</stem>
        <beam number="1">begin</beam>
        <beam number="2">begin</beam>
        <lyric default-y="-91" name="verse" number="1">
          <syllabic>single</syllabic>
          <text font-size="10.8">going</text>
        </lyric>
        <lyric default-y="-115" name="verse" number="2">
          <syllabic>single</syllabic>
          <text font-size="10.8">with</text>
        </lyric>
        <lyric default-y="-140" name="verse" number="3">
          <syllabic>single</syllabic>
          <text font-size="10.8">will</text>
        </lyric>
      </note>
      <note print-lyric="yes" print-object="no" print-spacing="yes">
        <pitch>
          <step>F</step>
          <octave>4</octave>
        </pitch>
        <duration>2</duration>
        <voice>2</voice>
        <type>16th</type>
        <stem>up</stem>
        <beam number="1">continue</beam>
        <beam number="2">end</beam>
        <lyric default-y="-91" name="verse" number="1">
          <syllabic>single</syllabic>
          <text font-size="10.8">down</text>
        </lyric>
        <lyric default-y="-115" name="verse" number="2">
          <syllabic>single</syllabic>
          <text font-size="10.8">the</text>
        </lyric>
        <lyric default-y="-140" name="verse" number="3">
          <syllabic>single</syllabic>
          <text font-size="10.8">I</text>
        </lyric>
      </note>
      <note print-lyric="yes" print-object="no" print-spacing="yes">
        <pitch>
          <step>F</step>
          <octave>4</octave>
        </pitch>
        <duration>4</duration>
        <voice>2</voice>
        <type>eighth</type>
        <stem>up</stem>
        <beam number="1">end</beam>
        <lyric default-y="-91" name="verse" number="1">
          <syllabic>single</syllabic>
          <text font-size="10.8">into</text>
        </lyric>
        <lyric default-y="-115" name="verse" number="2">
          <syllabic>single</syllabic>
          <text font-size="10.8">dawn,</text>
        </lyric>
        <lyric default-y="-140" name="verse" number="3">
          <syllabic>single</syllabic>
          <text font-size="10.8">give</text>
        </lyric>
      </note>
      <note print-lyric="yes" print-object="no" print-spacing="yes">
        <pitch>
          <step>G</step>
          <octave>4</octave>
        </pitch>
        <duration>4</duration>
        <voice>2</voice>
        <type>eighth</type>
        <stem>up</stem>
        <beam number="1">begin</beam>
        <lyric default-y="-91" name="verse" number="1">
          <syllabic>single</syllabic>
          <text font-size="10.8">the</text>
        </lyric>
        <lyric default-y="-115" name="verse" number="2">
          <syllabic>begin</syllabic>
          <text font-size="10.8">re</text>
        </lyric>
        <lyric default-y="-140" name="verse" number="3">
          <syllabic>single</syllabic>
          <text font-size="10.8">you</text>
        </lyric>
      </note>
      <note print-object="no">
        <pitch>
          <step>G</step>
          <octave>4</octave>
        </pitch>
        <duration>4</duration>
        <voice>2</voice>
        <type>eighth</type>
        <stem>up</stem>
        <beam number="1">end</beam>
      </note>
    </measure>
    <!--=======================================================-->
    <measure number="9" width="219">
      <attributes>
        <time symbol="cut">
          <beats>2</beats>
          <beat-type>2</beat-type>
        </time>
      </attributes>
      <harmony default-y="36" font-size="10" font-weight="bold">
        <root>
          <root-step>G</root-step>
        </root>
        <kind halign="center" text="">major</kind>
      </harmony>
      <note default-x="63">
        <pitch>
          <step>G</step>
          <octave>4</octave>
        </pitch>
        <duration>8</duration>
        <tie type="start"/>
        <voice>1</voice>
        <type>quarter</type>
        <stem default-y="1.5">up</stem>
        <notations>
          <tied type="start"/>
        </notations>
      </note>
      <note default-x="138">
        <pitch>
          <step>G</step>
          <octave>4</octave>
        </pitch>
        <duration>24</duration>
        <tie type="stop"/>
        <voice>1</voice>
        <type>half</type>
        <dot/>
        <stem default-y="1.5">up</stem>
        <notations>
          <tied type="stop"/>
        </notations>
      </note>
      <backup>
        <duration>32</duration>
      </backup>
      <note print-lyric="yes" print-object="no" print-spacing="yes">
        <pitch>
          <step>G</step>
          <octave>4</octave>
        </pitch>
        <duration>8</duration>
        <tie type="start"/>
        <voice>2</voice>
        <type>quarter</type>
        <stem>up</stem>
        <notations>
          <tied type="start"/>
        </notations>
        <lyric default-y="-91" name="verse" number="1">
          <syllabic>single</syllabic>
          <text font-size="10.8">pit.</text>
          <extend type="start"/>
        </lyric>
        <lyric default-y="-115" name="verse" number="2">
          <syllabic>middle</syllabic>
          <text font-size="10.8">joic</text>
        </lyric>
        <lyric default-y="-140" name="verse" number="3">
          <syllabic>single</syllabic>
          <text font-size="10.8">thanks.</text>
          <extend type="start"/>
        </lyric>
      </note>
      <note print-lyric="yes" print-object="no" print-spacing="yes">
        <pitch>
          <step>G</step>
          <octave>4</octave>
        </pitch>
        <duration>24</duration>
        <tie type="stop"/>
        <voice>2</voice>
        <type>half</type>
        <dot/>
        <stem>up</stem>
        <notations>
          <tied type="stop"/>
        </notations>
        <lyric default-y="-115" name="verse" number="2">
          <syllabic>end</syllabic>
          <text font-size="10.8">ing.</text>
        </lyric>
        <lyric name="verse" number="1">
          <extend type="stop"/>
        </lyric>
        <lyric name="verse" number="3">
          <extend type="stop"/>
        </lyric>
      </note>
      <direction placement="above">
        <direction-type>
          <words default-x="212" default-y="9" font-style="italic" justify="right">D.C. al Fine</words>
        </direction-type>
        <sound dacapo="yes"/>
      </direction>
      <direction placement="below">
        <direction-type>
          <words default-x="-901" default-y="-189">__________________________________________________________________________________________________
Music: © 2021 NOVUM PUBLISHING
Response Text: © 1969, 1981, 1997, ICEL. All rights reserved. Used with Permission.
Verses Text: © 1970, 1997, 1998, CCD. All rights reserved. Used with Permission.</words>
        </direction-type>
      </direction>
      <barline location="right">
        <bar-style>light-light</bar-style>
      </barline>
    </measure>
    <measure number="10" id="footer-hidden-measure">
          <print new-system="yes" width="1000">
            <system-layout>
              <system-distance>180</system-distance>
            </system-layout>
          </print>
          <note default-x="59">
        <pitch>
          <step>A</step>
          <octave>4</octave>
        </pitch>
        <duration>2</duration>
        <voice>2</voice>
        <type>16th</type>
        <stem>up</stem>
        <beam number="1">begin</beam>
        <beam number="2">begin</beam>
        <lyric default-y="-91" name="verse" number="1">
          <syllabic>single</syllabic>
          <text font-size="10.8">extol</text>
        </lyric>
        <lyric default-y="-140" name="verse" number="3">
          <syllabic>single</syllabic>
          <text font-size="10.8">O</text>
        </lyric>
      </note>${grabbedFooter}</measure>
  </part>
  <!--=========================================================-->
</score-partwise>
