<?xml version="1.0" encoding="UTF-8" standalone="no"?>
<!DOCTYPE score-partwise PUBLIC "-//Recordare//DTD MusicXML 3.0 Partwise//EN" "http://www.musicxml.org/dtds/3.0/partwise.dtd"[]>
<score-partwise version="3.0">
	<movement-title>Feast Of The Transfiguration Of The Lord:\r\nPsalm 97 - The Lord Is King</movement-title>
	<identification>
		<creator type="composer">Avery Collins</creator>
		<creator type="lyricist">CCD, ICEL</creator>
		<encoding>
			<software>Finale v26.3 for Windows</software>
			<encoding-date>2023-05-17</encoding-date>
			<supports attribute="new-system" element="print" type="yes" value="yes" />
			<supports attribute="new-page" element="print" type="yes" value="yes" />
			<supports element="accidental" type="yes" />
			<supports element="beam" type="yes" />
			<supports element="stem" type="yes" />
		</encoding>
		<rights>CCLI Song # 7203637\r\n© 2022 CCD | ICEL | NOVUM PUBLISHING\r\nFor use solely with the SongSelect® Terms of Use. All rights reserved. www.ccli.com\r\nCCLI License # 12345\r\n</rights>
	</identification>
	<defaults>
		<scaling>
			<millimeters>6.5088</millimeters>
			<tenths>40</tenths>
		</scaling>
		<page-layout>
			<page-height>1717</page-height>
			<page-width>1327</page-width>
			<page-margins type="both">
				<left-margin>78</left-margin>
				<right-margin>78</right-margin>
				<top-margin>108</top-margin>
				<bottom-margin>81</bottom-margin>
			</page-margins>
		</page-layout>
		<system-layout>
			<system-margins>
				<left-margin>0</left-margin>
				<right-margin>0</right-margin>
			</system-margins>
			<system-distance>122</system-distance>
			<top-system-distance>73</top-system-distance>
		</system-layout>
		<staff-layout>
			<staff-distance>158</staff-distance>
		</staff-layout>
		<appearance>
			<line-width type="stem">1.4583</line-width>
			<line-width type="beam">5</line-width>
			<line-width type="staff">1.25</line-width>
			<line-width type="light barline">1.4583</line-width>
			<line-width type="heavy barline">5</line-width>
			<line-width type="leger">1.875</line-width>
			<line-width type="ending">1.4583</line-width>
			<line-width type="wedge">1.4583</line-width>
			<line-width type="enclosure">1.4583</line-width>
			<line-width type="tuplet bracket">1.4583</line-width>
			<note-size type="grace">50</note-size>
			<note-size type="cue">50</note-size>
			<distance type="hyphen">240</distance>
			<distance type="beam">7.5</distance>
		</appearance>
		<music-font font-family="Maestro,engraved" font-size="18.5" />
		<word-font font-family="Arial" font-size="9.2" />
		<lyric-font font-family="Georgia" font-size="10.8" name="verse" />
		<lyric-font font-family="Arial" font-size="10.8" name="section" />
	</defaults>
	<credit page="1">
		<credit-type>title</credit-type>
		<credit-words default-x="663" default-y="1706" font-size="21.6" font-weight="bold" justify="center" valign="top">Feast Of The Transfiguration Of The Lord:\r\nPsalm 97 - The Lord Is King</credit-words>
	</credit>
	<credit page="1">
		<credit-words default-x="1249" default-y="1576" font-size="10.8" font-style="italic" justify="right" valign="top">Music by</credit-words>
	</credit>
	<credit page="1">
		<credit-type>composer</credit-type>
		<credit-words default-x="1249" default-y="1551" font-size="10.8" font-weight="bold" justify="right" valign="top">Avery Collins</credit-words>
	</credit>
	<credit page="1">
		<credit-words default-x="78" default-y="1576" font-size="10.8" font-style="italic" valign="top">Words:</credit-words>
	</credit>
	<credit page="1">
		<credit-type>lyricist</credit-type>
		<credit-words default-x="78" default-y="1551" font-size="10.8" font-weight="bold" valign="top">CCD, ICEL</credit-words>
	</credit>
	<credit page="2">
		<credit-type>page number</credit-type>
		<credit-type>title</credit-type>
		<credit-words default-x="663" default-y="1656" font-size="10.8" justify="center" valign="top">Feast Of The Transfiguration Of The Lord:\r\nPsalm 97 - The Lord Is King - 2</credit-words>
	</credit>
	<part-list>
		<score-part id="P1">
			<part-name print-object="no">Women</part-name>
			<score-instrument id="P1-I5">
				<instrument-name>Women</instrument-name>
			</score-instrument>
			<midi-instrument id="P1-I5">
				<midi-channel>1</midi-channel>
				<midi-program>1</midi-program>
				<volume>80</volume>
				<pan>0</pan>
			</midi-instrument>
		</score-part>
		<score-part id="P2">
			<part-name print-object="no">Men</part-name>
			<score-instrument id="P2-I1">
				<instrument-name>SmartMusic SoftSynth 1</instrument-name>
			</score-instrument>
			<midi-instrument id="P2-I1">
				<midi-channel>2</midi-channel>
				<midi-program>1</midi-program>
				<volume>63</volume>
				<pan>0</pan>
			</midi-instrument>
		</score-part>
	</part-list>
	<!--=========================================================-->
	<part id="P1">
		<?SmartMusic maxVoice=2?>
		<measure implicit="yes" number="0" width="225">
			<print page-number="1">
				<page-layout>
					<page-height>1717</page-height>
					<page-width>1327</page-width>
					<page-margins>
						<left-margin>78</left-margin>
						<right-margin>78</right-margin>
						<top-margin>203</top-margin>
						<bottom-margin>163</bottom-margin>
					</page-margins>
				</page-layout>
				<system-layout>
					<system-margins>
						<left-margin>68</left-margin>
						<right-margin>0</right-margin>
					</system-margins>
					<top-system-distance>146</top-system-distance>
				</system-layout>
				<measure-numbering>system</measure-numbering>
			</print>
			<attributes>
				<divisions>8</divisions>
				<key>
					<fifths>2</fifths>
					<mode>major</mode>
				</key>
				<time>
					<beats>4</beats>
					<beat-type>4</beat-type>
				</time>
				<clef>
					<sign>G</sign>
					<line>2</line>
				</clef>
			</attributes>
			<direction directive="yes" placement="above">
				<direction-type>
					<metronome default-y="59" font-family="EngraverTextT" font-size="7.7" halign="right">
						<beat-unit>quarter</beat-unit>
						<per-minute font-family="Times New Roman" font-weight="bold">96</per-minute>
					</metronome>
				</direction-type>
				<sound tempo="96" />
			</direction>
			<direction directive="yes" placement="above">
				<direction-type>
					<words default-y="123" font-style="italic" relative-x="-42">Year A\r\nPsalm 97:1-2, 5-6, 9; R:1a and 9a</words>
				</direction-type>
			</direction>
			<note default-x="120">
				<rest />
				<duration>4</duration>
				<voice>1</voice>
				<type>eighth</type>
			</note>
			<note default-x="169">
				<pitch>
					<step>A</step>
					<octave>3</octave>
				</pitch>
				<duration>4</duration>
				<voice>1</voice>
				<type>eighth</type>
				<stem default-y="-13.5">up</stem>
				<lyric default-y="-103" name="verse" number="1">
					<syllabic>single</syllabic>
					<text font-size="10.8">The</text>
				</lyric>
			</note>
			<note default-x="169">
				<chord />
				<pitch>
					<step>D</step>
					<octave>4</octave>
				</pitch>
				<duration>4</duration>
				<voice>1</voice>
				<type>eighth</type>
				<stem>up</stem>
			</note>
			<direction placement="above">
				<direction-type>
					<words default-y="228" font-style="italic" valign="top">(as published by Liturgy Resources)</words>
				</direction-type>
				<offset>10</offset>
			</direction>
			<barline location="right">
				<bar-style>light-light</bar-style>
			</barline>
		</measure>
		<!--=======================================================-->
		<measure number="1" width="200">
			<harmony default-y="36" font-size="10" font-weight="bold">
				<root>
					<root-step>D</root-step>
				</root>
				<kind halign="center" text="">major</kind>
			</harmony>
			<direction placement="above">
				<direction-type>
					<rehearsal default-y="69" font-weight="bold" relative-x="-5">REFRAIN</rehearsal>
				</direction-type>
			</direction>
			<note default-x="17">
				<pitch>
					<step>D</step>
					<octave>4</octave>
				</pitch>
				<duration>8</duration>
				<voice>1</voice>
				<type>quarter</type>
				<stem default-y="-4">up</stem>
				<lyric default-y="-103" name="verse" number="1">
					<syllabic>single</syllabic>
					<text font-size="10.8">Lord</text>
				</lyric>
			</note>
			<note default-x="17">
				<chord />
				<pitch>
					<step>F</step>
					<alter>1</alter>
					<octave>4</octave>
				</pitch>
				<duration>8</duration>
				<voice>1</voice>
				<type>quarter</type>
				<stem>up</stem>
			</note>
			<note default-x="77">
				<pitch>
					<step>E</step>
					<octave>4</octave>
				</pitch>
				<duration>8</duration>
				<voice>1</voice>
				<type>quarter</type>
				<stem default-y="1">up</stem>
				<lyric default-y="-103" name="verse" number="1">
					<syllabic>single</syllabic>
					<text font-size="10.8">is</text>
				</lyric>
			</note>
			<note default-x="77">
				<chord />
				<pitch>
					<step>G</step>
					<octave>4</octave>
				</pitch>
				<duration>8</duration>
				<voice>1</voice>
				<type>quarter</type>
				<stem>up</stem>
			</note>
			<harmony default-y="36" font-size="10" font-weight="bold">
				<root>
					<root-step>D</root-step>
				</root>
				<kind halign="center" text="">major</kind>
				<bass>
					<bass-step>F</bass-step>
					<bass-alter>1</bass-alter>
				</bass>
			</harmony>
			<note default-x="138">
				<pitch>
					<step>F</step>
					<alter>1</alter>
					<octave>4</octave>
				</pitch>
				<duration>16</duration>
				<tie type="start" />
				<voice>1</voice>
				<type>half</type>
				<stem default-y="7">up</stem>
				<notations>
					<tied type="start" />
				</notations>
				<lyric default-y="-103" name="verse" number="1">
					<syllabic>single</syllabic>
					<text font-size="10.8">king,</text>
				</lyric>
			</note>
			<note default-x="138">
				<chord />
				<pitch>
					<step>A</step>
					<octave>4</octave>
				</pitch>
				<duration>16</duration>
				<tie type="start" />
				<voice>1</voice>
				<type>half</type>
				<stem>up</stem>
				<notations>
					<tied type="start" />
				</notations>
			</note>
		</measure>
		<!--=======================================================-->
		<measure number="2" width="206">
			<harmony default-y="36" font-size="10" font-weight="bold">
				<root>
					<root-step>G</root-step>
				</root>
				<kind halign="center" text="">major</kind>
			</harmony>
			<note default-x="13">
				<pitch>
					<step>F</step>
					<alter>1</alter>
					<octave>4</octave>
				</pitch>
				<duration>16</duration>
				<tie type="stop" />
				<voice>1</voice>
				<type>half</type>
				<stem default-y="7">up</stem>
				<notations>
					<tied type="stop" />
				</notations>
			</note>
			<note default-x="13">
				<chord />
				<pitch>
					<step>A</step>
					<octave>4</octave>
				</pitch>
				<duration>16</duration>
				<tie type="stop" />
				<voice>1</voice>
				<type>half</type>
				<stem>up</stem>
				<notations>
					<tied type="stop" />
				</notations>
			</note>
			<harmony default-y="36" font-size="10" font-weight="bold">
				<root>
					<root-step>A</root-step>
				</root>
				<kind halign="center" text="">major</kind>
			</harmony>
			<note default-x="62">
				<rest />
				<duration>8</duration>
				<voice>1</voice>
				<type>quarter</type>
			</note>
			<note default-x="109">
				<rest />
				<duration>4</duration>
				<voice>1</voice>
				<type>eighth</type>
			</note>
			<note default-x="157">
				<pitch>
					<step>C</step>
					<alter>1</alter>
					<octave>4</octave>
				</pitch>
				<duration>4</duration>
				<voice>1</voice>
				<type>eighth</type>
				<stem default-y="-4">up</stem>
				<lyric default-y="-103" name="verse" number="1">
					<syllabic>single</syllabic>
					<text font-size="10.8">the</text>
				</lyric>
			</note>
			<note default-x="157">
				<chord />
				<pitch>
					<step>F</step>
					<alter>1</alter>
					<octave>4</octave>
				</pitch>
				<duration>4</duration>
				<voice>1</voice>
				<type>eighth</type>
				<stem>up</stem>
			</note>
		</measure>
		<!--=======================================================-->
		<measure number="3" width="356">
			<harmony default-y="36" font-size="10" font-weight="bold">
				<root>
					<root-step>G</root-step>
				</root>
				<kind halign="center" text="">major</kind>
			</harmony>
			<note default-x="20">
				<pitch>
					<step>E</step>
					<octave>4</octave>
				</pitch>
				<duration>8</duration>
				<voice>1</voice>
				<type>quarter</type>
				<stem default-y="1">up</stem>
				<lyric default-y="-103" name="verse" number="1">
					<syllabic>single</syllabic>
					<text font-size="10.8">Most</text>
				</lyric>
			</note>
			<note default-x="20">
				<chord />
				<pitch>
					<step>G</step>
					<octave>4</octave>
				</pitch>
				<duration>8</duration>
				<voice>1</voice>
				<type>quarter</type>
				<stem>up</stem>
			</note>
			<note default-x="88">
				<pitch>
					<step>G</step>
					<octave>4</octave>
				</pitch>
				<duration>8</duration>
				<voice>1</voice>
				<type>quarter</type>
				<stem default-y="11.5">up</stem>
				<lyric default-y="-103" name="verse" number="1">
					<syllabic>single</syllabic>
					<text font-size="10.8">High</text>
				</lyric>
			</note>
			<note default-x="88">
				<chord />
				<pitch>
					<step>B</step>
					<octave>4</octave>
				</pitch>
				<duration>8</duration>
				<voice>1</voice>
				<type>quarter</type>
				<stem>up</stem>
			</note>
			<harmony default-y="36" font-size="10" font-weight="bold">
				<root>
					<root-step>A</root-step>
				</root>
				<kind halign="center" text="">major</kind>
			</harmony>
			<note default-x="144">
				<pitch>
					<step>E</step>
					<octave>4</octave>
				</pitch>
				<duration>4</duration>
				<voice>1</voice>
				<type>eighth</type>
				<stem default-y="7">up</stem>
				<beam number="1">begin</beam>
				<lyric default-y="-103" name="verse" number="1">
					<syllabic>begin</syllabic>
					<text font-size="10.8">o</text>
				</lyric>
			</note>
			<note default-x="144">
				<chord />
				<pitch>
					<step>A</step>
					<octave>4</octave>
				</pitch>
				<duration>4</duration>
				<voice>1</voice>
				<type>eighth</type>
				<stem>up</stem>
			</note>
			<note default-x="196">
				<pitch>
					<step>E</step>
					<octave>4</octave>
				</pitch>
				<duration>4</duration>
				<voice>1</voice>
				<type>eighth</type>
				<stem default-y="1">up</stem>
				<beam number="1">end</beam>
				<lyric default-y="-103" name="verse" number="1">
					<syllabic>end</syllabic>
					<text font-size="10.8">ver</text>
				</lyric>
			</note>
			<note default-x="196">
				<chord />
				<pitch>
					<step>G</step>
					<octave>4</octave>
				</pitch>
				<duration>4</duration>
				<voice>1</voice>
				<type>eighth</type>
				<stem>up</stem>
			</note>
			<note default-x="249">
				<pitch>
					<step>C</step>
					<alter>1</alter>
					<octave>4</octave>
				</pitch>
				<duration>4</duration>
				<voice>1</voice>
				<type>eighth</type>
				<stem default-y="-4">up</stem>
				<beam number="1">begin</beam>
				<lyric default-y="-103" name="verse" number="1">
					<syllabic>single</syllabic>
					<text font-size="10.8">all</text>
				</lyric>
			</note>
			<note default-x="249">
				<chord />
				<pitch>
					<step>F</step>
					<alter>1</alter>
					<octave>4</octave>
				</pitch>
				<duration>4</duration>
				<voice>1</voice>
				<type>eighth</type>
				<stem>up</stem>
			</note>
			<note default-x="303">
				<pitch>
					<step>C</step>
					<alter>1</alter>
					<octave>4</octave>
				</pitch>
				<duration>4</duration>
				<voice>1</voice>
				<type>eighth</type>
				<stem default-y="-8.5">up</stem>
				<beam number="1">end</beam>
				<lyric default-y="-103" name="verse" number="1">
					<syllabic>single</syllabic>
					<text font-size="10.8">the</text>
				</lyric>
			</note>
			<note default-x="303">
				<chord />
				<pitch>
					<step>E</step>
					<octave>4</octave>
				</pitch>
				<duration>4</duration>
				<voice>1</voice>
				<type>eighth</type>
				<stem>up</stem>
			</note>
		</measure>
		<!--=======================================================-->
		<measure number="4" width="115">
			<harmony default-y="36" font-size="10" font-weight="bold">
				<root>
					<root-step>D</root-step>
				</root>
				<kind halign="center" text="">major</kind>
			</harmony>
			<note default-x="24">
				<pitch>
					<step>D</step>
					<octave>4</octave>
				</pitch>
				<duration>32</duration>
				<voice>1</voice>
				<type>whole</type>
				<notations>
					<fermata default-x="-4" default-y="5" type="upright" />
				</notations>
				<lyric default-y="-103" name="verse" number="1">
					<syllabic>single</syllabic>
					<text font-size="10.8">earth.</text>
				</lyric>
			</note>
			<note default-x="24">
				<chord />
				<pitch>
					<step>F</step>
					<alter>1</alter>
					<octave>4</octave>
				</pitch>
				<duration>32</duration>
				<voice>1</voice>
				<type>whole</type>
			</note>
			<direction placement="above">
				<direction-type>
					<words default-x="105" default-y="6" font-style="italic" justify="right">Fine</words>
				</direction-type>
				<sound fine="yes" time-only="4" />
			</direction>
			<barline location="right">
				<bar-style>light-heavy</bar-style>
			</barline>
		</measure>
		<!--=======================================================-->
		<measure number="5" width="1171">
			<print new-system="yes">
				<system-layout>
					<system-distance>115</system-distance>
				</system-layout>
			</print>
			<harmony default-y="36" font-size="10" font-weight="bold">
				<root>
					<root-step>D</root-step>
				</root>
				<kind halign="center" text="">major</kind>
			</harmony>
			<direction placement="above">
				<direction-type>
					<rehearsal default-y="69" font-weight="bold" relative-x="-5">VERSE</rehearsal>
				</direction-type>
			</direction>
			<note default-x="140">
				<pitch>
					<step>F</step>
					<alter>1</alter>
					<octave>4</octave>
				</pitch>
				<duration>32</duration>
				<voice>1</voice>
				<type>whole</type>
			</note>
			<note default-x="140">
				<chord />
				<pitch>
					<step>A</step>
					<octave>4</octave>
				</pitch>
				<duration>32</duration>
				<voice>1</voice>
				<type>whole</type>
			</note>
			<harmony default-y="36" font-size="10" font-weight="bold">
				<root>
					<root-step>G</root-step>
				</root>
				<kind halign="center" text="">major</kind>
			</harmony>
			<note default-x="759">
				<pitch>
					<step>G</step>
					<octave>4</octave>
				</pitch>
				<duration>8</duration>
				<voice>1</voice>
				<type>quarter</type>
				<stem>none</stem>
			</note>
			<note default-x="759">
				<chord />
				<pitch>
					<step>B</step>
					<octave>4</octave>
				</pitch>
				<duration>8</duration>
				<voice>1</voice>
				<type>quarter</type>
				<stem>none</stem>
			</note>
			<note default-x="869">
				<pitch>
					<step>F</step>
					<alter>1</alter>
					<octave>4</octave>
				</pitch>
				<duration>8</duration>
				<voice>1</voice>
				<type>quarter</type>
				<stem>none</stem>
			</note>
			<note default-x="869">
				<chord />
				<pitch>
					<step>A</step>
					<octave>4</octave>
				</pitch>
				<duration>8</duration>
				<voice>1</voice>
				<type>quarter</type>
				<stem>none</stem>
			</note>
			<harmony default-y="36" font-size="10" font-weight="bold">
				<root>
					<root-step>A</root-step>
				</root>
				<kind halign="center" text="">major</kind>
			</harmony>
			<note default-x="948">
				<pitch>
					<step>C</step>
					<alter>1</alter>
					<octave>4</octave>
				</pitch>
				<duration>16</duration>
				<voice>1</voice>
				<type>half</type>
				<stem>none</stem>
			</note>
			<note default-x="948">
				<chord />
				<pitch>
					<step>E</step>
					<octave>4</octave>
				</pitch>
				<duration>16</duration>
				<voice>1</voice>
				<type>half</type>
				<stem>none</stem>
			</note>
			<backup>
				<duration>64</duration>
			</backup>
			<note print-lyric="yes" print-object="no" print-spacing="yes">
				<pitch>
					<step>A</step>
					<octave>4</octave>
				</pitch>
				<duration>4</duration>
				<voice>2</voice>
				<type>eighth</type>
				<stem>down</stem>
				<beam number="1">begin</beam>
				<lyric default-y="-103" name="verse" number="1">
					<syllabic>single</syllabic>
					<text font-size="10.8">1.</text>
					<elision></elision>
					<syllabic>single</syllabic>
					<text font-size="10.8">The</text>
					<elision></elision>
					<syllabic>single</syllabic>
					<text font-size="10.8" />
					<elision></elision>
					<syllabic>single</syllabic>
					<text font-size="10.8" />
					<elision></elision>
					<syllabic>single</syllabic>
					<text font-size="10.8" />
					<elision></elision>
					<syllabic>single</syllabic>
					<text font-size="10.8" />
					<elision></elision>
					<syllabic>single</syllabic>
					<text font-size="10.8" />
					<elision></elision>
					<syllabic>single</syllabic>
					<text font-size="10.8" />
					<elision></elision>
					<syllabic>single</syllabic>
					<text font-size="10.8" />
					<elision></elision>
					<syllabic>single</syllabic>
					<text font-size="10.8" />
					<elision></elision>
					<syllabic>single</syllabic>
					<text font-size="10.8" />
					<elision></elision>
					<syllabic>single</syllabic>
					<text font-size="10.8" />
					<elision></elision>
					<syllabic>single</syllabic>
					<text font-size="10.8" />
					<elision></elision>
					<syllabic>single</syllabic>
					<text font-size="10.8" />
				</lyric>
				<lyric default-y="-128" name="verse" number="2">
					<syllabic>single</syllabic>
					<text font-size="10.8">2.</text>
					<elision></elision>
					<syllabic>single</syllabic>
					<text font-size="10.8">The</text>
					<elision></elision>
					<syllabic>single</syllabic>
					<text font-size="10.8" />
					<elision></elision>
					<syllabic>single</syllabic>
					<text font-size="10.8" />
					<elision></elision>
					<syllabic>single</syllabic>
					<text font-size="10.8" />
					<elision></elision>
					<syllabic>single</syllabic>
					<text font-size="10.8" />
					<elision></elision>
					<syllabic>single</syllabic>
					<text font-size="10.8" />
					<elision></elision>
					<syllabic>single</syllabic>
					<text font-size="10.8" />
					<elision></elision>
					<syllabic>single</syllabic>
					<text font-size="10.8" />
					<elision></elision>
					<syllabic>single</syllabic>
					<text font-size="10.8" />
					<elision></elision>
					<syllabic>single</syllabic>
					<text font-size="10.8" />
					<elision></elision>
					<syllabic>single</syllabic>
					<text font-size="10.8" />
					<elision></elision>
					<syllabic>single</syllabic>
					<text font-size="10.8" />
					<elision></elision>
					<syllabic>single</syllabic>
					<text font-size="10.8" />
				</lyric>
				<lyric default-y="-153" name="verse" number="3">
					<syllabic>single</syllabic>
					<text font-size="10.8">3.</text>
					<elision></elision>
					<syllabic>single</syllabic>
					<text font-size="10.8">Because</text>
					<elision></elision>
					<syllabic>single</syllabic>
					<text font-size="10.8" />
					<elision></elision>
					<syllabic>single</syllabic>
					<text font-size="10.8" />
					<elision></elision>
					<syllabic>single</syllabic>
					<text font-size="10.8" />
					<elision></elision>
					<syllabic>single</syllabic>
					<text font-size="10.8" />
				</lyric>
			</note>
			<note print-lyric="yes" print-object="no" print-spacing="yes">
				<pitch>
					<step>A</step>
					<octave>4</octave>
				</pitch>
				<duration>4</duration>
				<voice>2</voice>
				<type>eighth</type>
				<stem>down</stem>
				<beam number="1">end</beam>
				<lyric default-y="-103" name="verse" number="1">
					<syllabic>single</syllabic>
					<text font-size="10.8">LORD</text>
				</lyric>
				<lyric default-y="-128" name="verse" number="2">
					<syllabic>single</syllabic>
					<text font-size="10.8">mountains</text>
				</lyric>
			</note>
			<note print-lyric="yes" print-object="no" print-spacing="yes">
				<pitch>
					<step>A</step>
					<octave>4</octave>
				</pitch>
				<duration>4</duration>
				<voice>2</voice>
				<type>eighth</type>
				<stem>up</stem>
				<beam number="1">begin</beam>
				<lyric default-y="-103" name="verse" number="1">
					<syllabic>single</syllabic>
					<text font-size="10.8">is</text>
				</lyric>
			</note>
			<note print-lyric="yes" print-object="no" print-spacing="yes">
				<pitch>
					<step>A</step>
					<octave>4</octave>
				</pitch>
				<duration>4</duration>
				<voice>2</voice>
				<type>eighth</type>
				<stem>up</stem>
				<beam number="1">end</beam>
				<lyric default-y="-103" name="verse" number="1">
					<syllabic>single</syllabic>
					<text font-size="10.8">king;</text>
				</lyric>
				<lyric default-y="-128" name="verse" number="2">
					<syllabic>single</syllabic>
					<text font-size="10.8">melt</text>
				</lyric>
			</note>
			<note print-lyric="yes" print-object="no" print-spacing="yes">
				<pitch>
					<step>A</step>
					<octave>4</octave>
				</pitch>
				<duration>4</duration>
				<voice>2</voice>
				<type>eighth</type>
				<stem>up</stem>
				<beam number="1">begin</beam>
				<lyric default-y="-128" name="verse" number="2">
					<syllabic>single</syllabic>
					<text font-size="10.8">like</text>
				</lyric>
				<lyric default-y="-153" name="verse" number="3">
					<syllabic>single</syllabic>
					<text font-size="10.8">you,</text>
				</lyric>
			</note>
			<note print-lyric="yes" print-object="no" print-spacing="yes">
				<pitch>
					<step>A</step>
					<octave>4</octave>
				</pitch>
				<duration>4</duration>
				<voice>2</voice>
				<type>eighth</type>
				<stem>up</stem>
				<beam number="1">end</beam>
				<lyric default-y="-103" name="verse" number="1">
					<syllabic>single</syllabic>
					<text font-size="10.8">let</text>
				</lyric>
				<lyric default-y="-128" name="verse" number="2">
					<syllabic>single</syllabic>
					<text font-size="10.8">wax</text>
				</lyric>
			</note>
			<note print-object="no">
				<pitch>
					<step>A</step>
					<octave>4</octave>
				</pitch>
				<duration>4</duration>
				<voice>2</voice>
				<type>eighth</type>
				<stem>up</stem>
				<beam number="1">begin</beam>
			</note>
			<note print-lyric="yes" print-object="no" print-spacing="yes">
				<pitch>
					<step>A</step>
					<octave>4</octave>
				</pitch>
				<duration>4</duration>
				<voice>2</voice>
				<type>eighth</type>
				<stem>up</stem>
				<beam number="1">end</beam>
				<lyric default-y="-103" name="verse" number="1">
					<syllabic>single</syllabic>
					<text font-size="10.8">the</text>
				</lyric>
				<lyric default-y="-128" name="verse" number="2">
					<syllabic>begin</syllabic>
					<text font-size="10.8">be</text>
				</lyric>
			</note>
			<note print-lyric="yes" print-object="no" print-spacing="yes">
				<pitch>
					<step>B</step>
					<octave>4</octave>
				</pitch>
				<duration>4</duration>
				<voice>2</voice>
				<type>eighth</type>
				<stem>down</stem>
				<beam number="1">begin</beam>
				<lyric default-y="-103" name="verse" number="1">
					<syllabic>single</syllabic>
					<text font-size="10.8">earth</text>
				</lyric>
				<lyric default-y="-128" name="verse" number="2">
					<syllabic>end</syllabic>
					<text font-size="10.8">fore</text>
				</lyric>
				<lyric default-y="-153" name="verse" number="3">
					<syllabic>single</syllabic>
					<text font-size="10.8">O</text>
				</lyric>
			</note>
			<note print-object="no">
				<pitch>
					<step>B</step>
					<octave>4</octave>
				</pitch>
				<duration>4</duration>
				<voice>2</voice>
				<type>eighth</type>
				<stem>down</stem>
				<beam number="1">end</beam>
			</note>
			<note print-lyric="yes" print-object="no" print-spacing="yes">
				<pitch>
					<step>A</step>
					<octave>4</octave>
				</pitch>
				<duration>8</duration>
				<voice>2</voice>
				<type>quarter</type>
				<stem>up</stem>
				<lyric default-y="-103" name="verse" number="1">
					<syllabic>begin</syllabic>
					<text font-size="10.8">re</text>
				</lyric>
				<lyric default-y="-128" name="verse" number="2">
					<syllabic>single</syllabic>
					<text font-size="10.8">the</text>
				</lyric>
			</note>
			<note print-lyric="yes" print-object="no" print-spacing="yes">
				<pitch>
					<step>E</step>
					<octave>4</octave>
				</pitch>
				<duration>4</duration>
				<voice>2</voice>
				<type>eighth</type>
				<stem>down</stem>
				<beam number="1">begin</beam>
				<lyric default-y="-103" name="verse" number="1">
					<syllabic>end</syllabic>
					<text font-size="10.8">joice;</text>
				</lyric>
				<lyric default-y="-128" name="verse" number="2">
					<syllabic>single</syllabic>
					<text font-size="10.8">LORD,</text>
				</lyric>
				<lyric default-y="-153" name="verse" number="3">
					<syllabic>single</syllabic>
					<text font-size="10.8">LORD,</text>
				</lyric>
			</note>
			<note print-object="no">
				<pitch>
					<step>E</step>
					<octave>4</octave>
				</pitch>
				<duration>4</duration>
				<voice>2</voice>
				<type>eighth</type>
				<stem>down</stem>
				<beam number="1">end</beam>
			</note>
			<note print-object="no">
				<pitch>
					<step>E</step>
					<octave>4</octave>
				</pitch>
				<duration>4</duration>
				<voice>2</voice>
				<type>eighth</type>
				<stem>up</stem>
				<beam number="1">begin</beam>
			</note>
			<note print-object="no">
				<pitch>
					<step>E</step>
					<octave>4</octave>
				</pitch>
				<duration>4</duration>
				<voice>2</voice>
				<type>eighth</type>
				<stem>up</stem>
				<beam number="1">end</beam>
			</note>
		</measure>
		<!--=======================================================-->
		<measure number="6" width="1171">
			<print new-system="yes">
				<system-layout>
					<system-distance>136</system-distance>
				</system-layout>
			</print>
			<harmony default-y="36" font-size="10" font-weight="bold">
				<root>
					<root-step>E</root-step>
				</root>
				<kind halign="center" text="m">minor</kind>
			</harmony>
			<note default-x="104">
				<pitch>
					<step>E</step>
					<octave>4</octave>
				</pitch>
				<duration>32</duration>
				<voice>1</voice>
				<type>whole</type>
			</note>
			<note default-x="104">
				<chord />
				<pitch>
					<step>G</step>
					<octave>4</octave>
				</pitch>
				<duration>32</duration>
				<voice>1</voice>
				<type>whole</type>
			</note>
			<note default-x="675">
				<pitch>
					<step>D</step>
					<octave>4</octave>
				</pitch>
				<duration>8</duration>
				<voice>1</voice>
				<type>quarter</type>
				<stem>none</stem>
				<notations>
					<slur bezier-x="8" bezier-y="-22" default-x="6" default-y="-55" number="1" placement="below" type="start" />
				</notations>
			</note>
			<note default-x="675">
				<chord />
				<pitch>
					<step>F</step>
					<alter>1</alter>
					<octave>4</octave>
				</pitch>
				<duration>8</duration>
				<voice>1</voice>
				<type>quarter</type>
				<stem>none</stem>
			</note>
			<note default-x="815">
				<pitch>
					<step>B</step>
					<octave>3</octave>
				</pitch>
				<duration>8</duration>
				<voice>1</voice>
				<type>quarter</type>
				<stem>none</stem>
				<notations>
					<slur bezier-x="-11" bezier-y="-20" default-x="6" default-y="-65" number="1" type="stop" />
				</notations>
			</note>
			<note default-x="815">
				<chord />
				<pitch>
					<step>E</step>
					<octave>4</octave>
				</pitch>
				<duration>8</duration>
				<voice>1</voice>
				<type>quarter</type>
				<stem>none</stem>
			</note>
			<harmony default-y="36" font-size="10" font-weight="bold">
				<root>
					<root-step>D</root-step>
				</root>
				<kind halign="center" text="">major</kind>
			</harmony>
			<note default-x="889">
				<pitch>
					<step>D</step>
					<octave>4</octave>
				</pitch>
				<duration>16</duration>
				<voice>1</voice>
				<type>half</type>
				<stem>none</stem>
			</note>
			<note default-x="889">
				<chord />
				<pitch>
					<step>F</step>
					<alter>1</alter>
					<octave>4</octave>
				</pitch>
				<duration>16</duration>
				<voice>1</voice>
				<type>half</type>
				<stem>none</stem>
			</note>
			<backup>
				<duration>64</duration>
			</backup>
			<note print-lyric="yes" print-object="no" print-spacing="yes">
				<pitch>
					<step>G</step>
					<octave>4</octave>
				</pitch>
				<duration>4</duration>
				<voice>2</voice>
				<type>eighth</type>
				<stem>down</stem>
				<beam number="1">begin</beam>
				<lyric default-y="-103" name="verse" number="1">
					<syllabic>single</syllabic>
					<text font-size="10.8">let</text>
				</lyric>
				<lyric default-y="-128" name="verse" number="2">
					<syllabic>single</syllabic>
					<text font-size="10.8">before</text>
				</lyric>
				<lyric default-y="-153" name="verse" number="3">
					<syllabic>single</syllabic>
					<text font-size="10.8">are</text>
				</lyric>
			</note>
			<note print-object="no">
				<pitch>
					<step>G</step>
					<octave>4</octave>
				</pitch>
				<duration>4</duration>
				<voice>2</voice>
				<type>eighth</type>
				<stem>down</stem>
				<beam number="1">end</beam>
			</note>
			<note print-lyric="yes" print-object="no" print-spacing="yes">
				<pitch>
					<step>G</step>
					<octave>4</octave>
				</pitch>
				<duration>4</duration>
				<voice>2</voice>
				<type>eighth</type>
				<stem>up</stem>
				<beam number="1">begin</beam>
				<lyric default-y="-103" name="verse" number="1">
					<syllabic>single</syllabic>
					<text font-size="10.8">the</text>
				</lyric>
				<lyric default-y="-128" name="verse" number="2">
					<syllabic>single</syllabic>
					<text font-size="10.8">the</text>
				</lyric>
				<lyric default-y="-153" name="verse" number="3">
					<syllabic>single</syllabic>
					<text font-size="10.8">the</text>
				</lyric>
			</note>
			<note print-lyric="yes" print-object="no" print-spacing="yes">
				<pitch>
					<step>G</step>
					<octave>4</octave>
				</pitch>
				<duration>4</duration>
				<voice>2</voice>
				<type>eighth</type>
				<stem>up</stem>
				<beam number="1">end</beam>
				<lyric default-y="-153" name="verse" number="3">
					<syllabic>single</syllabic>
					<text font-size="10.8">Most</text>
				</lyric>
			</note>
			<note print-lyric="yes" print-object="no" print-spacing="yes">
				<pitch>
					<step>G</step>
					<octave>4</octave>
				</pitch>
				<duration>4</duration>
				<voice>2</voice>
				<type>eighth</type>
				<stem>up</stem>
				<beam number="1">begin</beam>
				<lyric default-y="-103" name="verse" number="1">
					<syllabic>single</syllabic>
					<text font-size="10.8">many</text>
				</lyric>
				<lyric default-y="-128" name="verse" number="2">
					<syllabic>single</syllabic>
					<text font-size="10.8">LORD</text>
				</lyric>
				<lyric default-y="-153" name="verse" number="3">
					<syllabic>single</syllabic>
					<text font-size="10.8">High</text>
				</lyric>
			</note>
			<note print-object="no">
				<pitch>
					<step>G</step>
					<octave>4</octave>
				</pitch>
				<duration>4</duration>
				<voice>2</voice>
				<type>eighth</type>
				<stem>up</stem>
				<beam number="1">end</beam>
			</note>
			<note print-lyric="yes" print-object="no" print-spacing="yes">
				<pitch>
					<step>G</step>
					<octave>4</octave>
				</pitch>
				<duration>4</duration>
				<voice>2</voice>
				<type>eighth</type>
				<stem>up</stem>
				<beam number="1">begin</beam>
				<lyric default-y="-103" name="verse" number="1">
					<syllabic>single</syllabic>
					<text font-size="10.8">islands</text>
				</lyric>
				<lyric default-y="-128" name="verse" number="2">
					<syllabic>single</syllabic>
					<text font-size="10.8">of</text>
				</lyric>
				<lyric default-y="-153" name="verse" number="3">
					<syllabic>single</syllabic>
					<text font-size="10.8">over</text>
				</lyric>
			</note>
			<note print-object="no">
				<pitch>
					<step>G</step>
					<octave>4</octave>
				</pitch>
				<duration>4</duration>
				<voice>2</voice>
				<type>eighth</type>
				<stem>up</stem>
				<beam number="1">end</beam>
			</note>
			<note print-lyric="yes" print-object="no" print-spacing="yes">
				<pitch>
					<step>F</step>
					<alter>1</alter>
					<octave>4</octave>
				</pitch>
				<duration>4</duration>
				<voice>2</voice>
				<type>eighth</type>
				<stem>up</stem>
				<beam number="1">begin</beam>
				<lyric default-y="-103" name="verse" number="1">
					<syllabic>single</syllabic>
					<text font-size="10.8">be</text>
				</lyric>
				<lyric default-y="-128" name="verse" number="2">
					<syllabic>single</syllabic>
					<text font-size="10.8">all</text>
				</lyric>
				<lyric default-y="-153" name="verse" number="3">
					<syllabic>single</syllabic>
					<text font-size="10.8">all</text>
				</lyric>
			</note>
			<note print-object="no">
				<pitch>
					<step>F</step>
					<alter>1</alter>
					<octave>4</octave>
				</pitch>
				<duration>4</duration>
				<voice>2</voice>
				<type>eighth</type>
				<stem>up</stem>
				<beam number="1">end</beam>
			</note>
			<note print-lyric="yes" print-object="no" print-spacing="yes">
				<pitch>
					<step>E</step>
					<octave>4</octave>
				</pitch>
				<duration>8</duration>
				<voice>2</voice>
				<type>quarter</type>
				<stem>up</stem>
				<lyric default-y="-128" name="verse" number="2">
					<syllabic>single</syllabic>
					<text font-size="10.8">the</text>
				</lyric>
				<lyric default-y="-153" name="verse" number="3">
					<syllabic>single</syllabic>
					<text font-size="10.8">the</text>
				</lyric>
			</note>
			<note print-lyric="yes" print-object="no" print-spacing="yes">
				<pitch>
					<step>F</step>
					<alter>1</alter>
					<octave>4</octave>
				</pitch>
				<duration>4</duration>
				<voice>2</voice>
				<type>eighth</type>
				<stem>down</stem>
				<beam number="1">begin</beam>
				<lyric default-y="-103" name="verse" number="1">
					<syllabic>single</syllabic>
					<text font-size="10.8">glad.</text>
				</lyric>
				<lyric default-y="-128" name="verse" number="2">
					<syllabic>single</syllabic>
					<text font-size="10.8">earth.</text>
				</lyric>
				<lyric default-y="-153" name="verse" number="3">
					<syllabic>single</syllabic>
					<text font-size="10.8">earth,</text>
				</lyric>
			</note>
			<note print-object="no">
				<pitch>
					<step>F</step>
					<alter>1</alter>
					<octave>4</octave>
				</pitch>
				<duration>4</duration>
				<voice>2</voice>
				<type>eighth</type>
				<stem>down</stem>
				<beam number="1">end</beam>
			</note>
			<note print-object="no">
				<pitch>
					<step>F</step>
					<alter>1</alter>
					<octave>4</octave>
				</pitch>
				<duration>4</duration>
				<voice>2</voice>
				<type>eighth</type>
				<stem>up</stem>
				<beam number="1">begin</beam>
			</note>
			<note print-object="no">
				<pitch>
					<step>F</step>
					<alter>1</alter>
					<octave>4</octave>
				</pitch>
				<duration>4</duration>
				<voice>2</voice>
				<type>eighth</type>
				<stem>up</stem>
				<beam number="1">end</beam>
			</note>
		</measure>
		<!--=======================================================-->
		<measure number="7" width="1171">
			<print new-page="yes" page-number="2" />
			<harmony default-y="36" font-size="10" font-weight="bold">
				<root>
					<root-step>D</root-step>
				</root>
				<kind halign="center" text="">major</kind>
			</harmony>
			<direction placement="below">
				<direction-type>
					<bracket default-y="-142" line-end="none" line-type="solid" number="1" relative-x="27" type="start" />
				</direction-type>
			</direction>
			<note default-x="107">
				<pitch>
					<step>F</step>
					<alter>1</alter>
					<octave>4</octave>
				</pitch>
				<duration>32</duration>
				<voice>1</voice>
				<type>whole</type>
			</note>
			<note default-x="107">
				<chord />
				<pitch>
					<step>A</step>
					<octave>4</octave>
				</pitch>
				<duration>32</duration>
				<voice>1</voice>
				<type>whole</type>
			</note>
			<harmony default-y="36" font-size="10" font-weight="bold">
				<root>
					<root-step>G</root-step>
				</root>
				<kind halign="center" text="">major</kind>
			</harmony>
			<note default-x="693">
				<pitch>
					<step>G</step>
					<octave>4</octave>
				</pitch>
				<duration>8</duration>
				<voice>1</voice>
				<type>quarter</type>
				<stem>none</stem>
			</note>
			<note default-x="693">
				<chord />
				<pitch>
					<step>B</step>
					<octave>4</octave>
				</pitch>
				<duration>8</duration>
				<voice>1</voice>
				<type>quarter</type>
				<stem>none</stem>
			</note>
			<note default-x="818">
				<pitch>
					<step>F</step>
					<alter>1</alter>
					<octave>4</octave>
				</pitch>
				<duration>8</duration>
				<voice>1</voice>
				<type>quarter</type>
				<stem>none</stem>
			</note>
			<note default-x="818">
				<chord />
				<pitch>
					<step>A</step>
					<octave>4</octave>
				</pitch>
				<duration>8</duration>
				<voice>1</voice>
				<type>quarter</type>
				<stem>none</stem>
			</note>
			<harmony default-y="36" font-size="10" font-weight="bold">
				<root>
					<root-step>A</root-step>
				</root>
				<kind halign="center" text="">major</kind>
			</harmony>
			<direction placement="below">
				<direction-type>
					<bracket line-end="none" number="1" relative-x="27" type="stop" />
				</direction-type>
			</direction>
			<note default-x="894">
				<pitch>
					<step>C</step>
					<alter>1</alter>
					<octave>4</octave>
				</pitch>
				<duration>16</duration>
				<voice>1</voice>
				<type>half</type>
				<stem>none</stem>
			</note>
			<note default-x="894">
				<chord />
				<pitch>
					<step>E</step>
					<octave>4</octave>
				</pitch>
				<duration>16</duration>
				<voice>1</voice>
				<type>half</type>
				<stem>none</stem>
			</note>
			<backup>
				<duration>64</duration>
			</backup>
			<note print-lyric="yes" print-object="no" print-spacing="yes">
				<pitch>
					<step>A</step>
					<octave>4</octave>
				</pitch>
				<duration>4</duration>
				<voice>2</voice>
				<type>eighth</type>
				<stem>down</stem>
				<beam number="1">begin</beam>
				<lyric default-y="-103" name="verse" number="1">
					<syllabic>single</syllabic>
					<text font-size="10.8">Clouds</text>
				</lyric>
				<lyric default-y="-128" name="verse" number="2">
					<syllabic>single</syllabic>
					<text font-size="10.8">The</text>
				</lyric>
				<lyric default-y="-153" name="verse" number="3">
					<syllabic>single</syllabic>
					<text font-size="10.8">(3.)</text>
				</lyric>
			</note>
			<note print-object="no">
				<pitch>
					<step>A</step>
					<octave>4</octave>
				</pitch>
				<duration>4</duration>
				<voice>2</voice>
				<type>eighth</type>
				<stem>down</stem>
				<beam number="1">end</beam>
			</note>
			<note print-lyric="yes" print-object="no" print-spacing="yes">
				<pitch>
					<step>A</step>
					<octave>4</octave>
				</pitch>
				<duration>4</duration>
				<voice>2</voice>
				<type>eighth</type>
				<stem>up</stem>
				<beam number="1">begin</beam>
				<lyric default-y="-103" name="verse" number="1">
					<syllabic>single</syllabic>
					<text font-size="10.8">and</text>
				</lyric>
			</note>
			<note print-lyric="yes" print-object="no" print-spacing="yes">
				<pitch>
					<step>A</step>
					<octave>4</octave>
				</pitch>
				<duration>4</duration>
				<voice>2</voice>
				<type>eighth</type>
				<stem>up</stem>
				<beam number="1">end</beam>
				<lyric default-y="-128" name="verse" number="2">
					<syllabic>single</syllabic>
					<text font-size="10.8">heavens</text>
				</lyric>
			</note>
			<note print-lyric="yes" print-object="no" print-spacing="yes">
				<pitch>
					<step>A</step>
					<octave>4</octave>
				</pitch>
				<duration>4</duration>
				<voice>2</voice>
				<type>eighth</type>
				<stem>up</stem>
				<beam number="1">begin</beam>
				<lyric default-y="-103" name="verse" number="1">
					<syllabic>single</syllabic>
					<text font-size="10.8">darkness</text>
				</lyric>
			</note>
			<note print-object="no">
				<pitch>
					<step>A</step>
					<octave>4</octave>
				</pitch>
				<duration>4</duration>
				<voice>2</voice>
				<type>eighth</type>
				<stem>up</stem>
				<beam number="1">end</beam>
			</note>
			<note print-lyric="yes" print-object="no" print-spacing="yes">
				<pitch>
					<step>A</step>
					<octave>4</octave>
				</pitch>
				<duration>4</duration>
				<voice>2</voice>
				<type>eighth</type>
				<stem>up</stem>
				<beam number="1">begin</beam>
				<lyric default-y="-103" name="verse" number="1">
					<syllabic>single</syllabic>
					<text font-size="10.8">are</text>
				</lyric>
				<lyric default-y="-128" name="verse" number="2">
					<syllabic>single</syllabic>
					<text font-size="10.8">proclaim</text>
				</lyric>
			</note>
			<note print-object="no">
				<pitch>
					<step>A</step>
					<octave>4</octave>
				</pitch>
				<duration>4</duration>
				<voice>2</voice>
				<type>eighth</type>
				<stem>up</stem>
				<beam number="1">end</beam>
			</note>
			<note print-lyric="yes" print-object="no" print-spacing="yes">
				<pitch>
					<step>B</step>
					<octave>4</octave>
				</pitch>
				<duration>4</duration>
				<voice>2</voice>
				<type>eighth</type>
				<stem>down</stem>
				<beam number="1">begin</beam>
				<lyric default-y="-103" name="verse" number="1">
					<syllabic>single</syllabic>
					<text font-size="10.8">round</text>
				</lyric>
				<lyric default-y="-128" name="verse" number="2">
					<syllabic>single</syllabic>
					<text font-size="10.8">his</text>
				</lyric>
			</note>
			<note print-object="no">
				<pitch>
					<step>B</step>
					<octave>4</octave>
				</pitch>
				<duration>4</duration>
				<voice>2</voice>
				<type>eighth</type>
				<stem>down</stem>
				<beam number="1">end</beam>
			</note>
			<note print-lyric="yes" print-object="no" print-spacing="yes">
				<pitch>
					<step>A</step>
					<octave>4</octave>
				</pitch>
				<duration>8</duration>
				<voice>2</voice>
				<type>quarter</type>
				<stem>up</stem>
				<lyric default-y="-103" name="verse" number="1">
					<syllabic>begin</syllabic>
					<text font-size="10.8">a</text>
				</lyric>
			</note>
			<note print-lyric="yes" print-object="no" print-spacing="yes">
				<pitch>
					<step>E</step>
					<octave>4</octave>
				</pitch>
				<duration>4</duration>
				<voice>2</voice>
				<type>eighth</type>
				<stem>down</stem>
				<beam number="1">begin</beam>
				<lyric default-y="-103" name="verse" number="1">
					<syllabic>end</syllabic>
					<text font-size="10.8">bout</text>
				</lyric>
				<lyric default-y="-128" name="verse" number="2">
					<syllabic>single</syllabic>
					<text font-size="10.8">justice,</text>
				</lyric>
			</note>
			<note print-lyric="yes" print-object="no" print-spacing="yes">
				<pitch>
					<step>E</step>
					<octave>4</octave>
				</pitch>
				<duration>4</duration>
				<voice>2</voice>
				<type>eighth</type>
				<stem>down</stem>
				<beam number="1">end</beam>
				<lyric default-y="-103" name="verse" number="1">
					<syllabic>single</syllabic>
					<text font-size="10.8">him,</text>
				</lyric>
			</note>
			<note print-object="no">
				<pitch>
					<step>E</step>
					<octave>4</octave>
				</pitch>
				<duration>4</duration>
				<voice>2</voice>
				<type>eighth</type>
				<stem>up</stem>
				<beam number="1">begin</beam>
			</note>
			<note print-object="no">
				<pitch>
					<step>E</step>
					<octave>4</octave>
				</pitch>
				<duration>4</duration>
				<voice>2</voice>
				<type>eighth</type>
				<stem>up</stem>
				<beam number="1">end</beam>
			</note>
		</measure>
		<!--=======================================================-->
		<measure number="8" width="828">
			<print new-system="yes">
				<system-layout>
					<system-distance>136</system-distance>
				</system-layout>
			</print>
			<harmony default-y="36" font-size="10" font-weight="bold">
				<root>
					<root-step>E</root-step>
				</root>
				<kind halign="center" text="m">minor</kind>
			</harmony>
			<note default-x="108">
				<pitch>
					<step>E</step>
					<octave>4</octave>
				</pitch>
				<duration>32</duration>
				<voice>1</voice>
				<type>whole</type>
			</note>
			<note default-x="108">
				<chord />
				<pitch>
					<step>G</step>
					<octave>4</octave>
				</pitch>
				<duration>32</duration>
				<voice>1</voice>
				<type>whole</type>
			</note>
			<note default-x="666">
				<pitch>
					<step>D</step>
					<octave>4</octave>
				</pitch>
				<duration>8</duration>
				<voice>1</voice>
				<type>quarter</type>
				<stem>none</stem>
			</note>
			<note default-x="666">
				<chord />
				<pitch>
					<step>F</step>
					<alter>1</alter>
					<octave>4</octave>
				</pitch>
				<duration>8</duration>
				<voice>1</voice>
				<type>quarter</type>
				<stem>none</stem>
			</note>
			<note default-x="773">
				<pitch>
					<step>B</step>
					<octave>3</octave>
				</pitch>
				<duration>8</duration>
				<voice>1</voice>
				<type>quarter</type>
				<stem>none</stem>
			</note>
			<note default-x="773">
				<chord />
				<pitch>
					<step>E</step>
					<octave>4</octave>
				</pitch>
				<duration>8</duration>
				<voice>1</voice>
				<type>quarter</type>
				<stem>none</stem>
			</note>
			<backup>
				<duration>48</duration>
			</backup>
			<note print-lyric="yes" print-object="no" print-spacing="yes">
				<pitch>
					<step>G</step>
					<octave>4</octave>
				</pitch>
				<duration>4</duration>
				<voice>2</voice>
				<type>eighth</type>
				<stem>down</stem>
				<beam number="1">begin</beam>
				<lyric default-y="-103" name="verse" number="1">
					<syllabic>single</syllabic>
					<text font-size="10.8">justice</text>
				</lyric>
				<lyric default-y="-128" name="verse" number="2">
					<syllabic>single</syllabic>
					<text font-size="10.8">and</text>
				</lyric>
				<lyric default-y="-153" name="verse" number="3">
					<syllabic>single</syllabic>
					<text font-size="10.8">exalted</text>
				</lyric>
			</note>
			<note print-lyric="yes" print-object="no" print-spacing="yes">
				<pitch>
					<step>G</step>
					<octave>4</octave>
				</pitch>
				<duration>4</duration>
				<voice>2</voice>
				<type>eighth</type>
				<stem>down</stem>
				<beam number="1">end</beam>
				<lyric default-y="-103" name="verse" number="1">
					<syllabic>single</syllabic>
					<text font-size="10.8">and</text>
				</lyric>
			</note>
			<note print-lyric="yes" print-object="no" print-spacing="yes">
				<pitch>
					<step>G</step>
					<octave>4</octave>
				</pitch>
				<duration>4</duration>
				<voice>2</voice>
				<type>eighth</type>
				<stem>up</stem>
				<beam number="1">begin</beam>
				<lyric default-y="-103" name="verse" number="1">
					<syllabic>single</syllabic>
					<text font-size="10.8">judgment</text>
				</lyric>
			</note>
			<note print-lyric="yes" print-object="no" print-spacing="yes">
				<pitch>
					<step>G</step>
					<octave>4</octave>
				</pitch>
				<duration>4</duration>
				<voice>2</voice>
				<type>eighth</type>
				<stem>up</stem>
				<beam number="1">end</beam>
				<lyric default-y="-128" name="verse" number="2">
					<syllabic>single</syllabic>
					<text font-size="10.8">all</text>
				</lyric>
				<lyric default-y="-153" name="verse" number="3">
					<syllabic>single</syllabic>
					<text font-size="10.8">far</text>
				</lyric>
			</note>
			<note print-lyric="yes" print-object="no" print-spacing="yes">
				<pitch>
					<step>G</step>
					<octave>4</octave>
				</pitch>
				<duration>4</duration>
				<voice>2</voice>
				<type>eighth</type>
				<stem>up</stem>
				<beam number="1">begin</beam>
				<lyric default-y="-103" name="verse" number="1">
					<syllabic>single</syllabic>
					<text font-size="10.8">are</text>
				</lyric>
			</note>
			<note print-lyric="yes" print-object="no" print-spacing="yes">
				<pitch>
					<step>G</step>
					<octave>4</octave>
				</pitch>
				<duration>4</duration>
				<voice>2</voice>
				<type>eighth</type>
				<stem>up</stem>
				<beam number="1">end</beam>
				<lyric default-y="-103" name="verse" number="1">
					<syllabic>single</syllabic>
					<text font-size="10.8">the</text>
				</lyric>
			</note>
			<note print-lyric="yes" print-object="no" print-spacing="yes">
				<pitch>
					<step>G</step>
					<octave>4</octave>
				</pitch>
				<duration>4</duration>
				<voice>2</voice>
				<type>eighth</type>
				<stem>up</stem>
				<beam number="1">begin</beam>
				<lyric default-y="-103" name="verse" number="1">
					<syllabic>single</syllabic>
					<text font-size="10.8">foundation</text>
				</lyric>
				<lyric default-y="-128" name="verse" number="2">
					<syllabic>single</syllabic>
					<text font-size="10.8">peoples</text>
				</lyric>
				<lyric default-y="-153" name="verse" number="3">
					<syllabic>single</syllabic>
					<text font-size="10.8">above</text>
				</lyric>
			</note>
			<note print-object="no">
				<pitch>
					<step>G</step>
					<octave>4</octave>
				</pitch>
				<duration>4</duration>
				<voice>2</voice>
				<type>eighth</type>
				<stem>up</stem>
				<beam number="1">end</beam>
			</note>
			<note print-lyric="yes" print-object="no" print-spacing="yes">
				<pitch>
					<step>F</step>
					<alter>1</alter>
					<octave>4</octave>
				</pitch>
				<duration>4</duration>
				<voice>2</voice>
				<type>eighth</type>
				<stem>up</stem>
				<beam number="1">begin</beam>
				<lyric default-y="-103" name="verse" number="1">
					<syllabic>single</syllabic>
					<text font-size="10.8">of</text>
				</lyric>
				<lyric default-y="-128" name="verse" number="2">
					<syllabic>single</syllabic>
					<text font-size="10.8">see</text>
				</lyric>
				<lyric default-y="-153" name="verse" number="3">
					<syllabic>single</syllabic>
					<text font-size="10.8">all</text>
				</lyric>
			</note>
			<note print-object="no">
				<pitch>
					<step>F</step>
					<alter>1</alter>
					<octave>4</octave>
				</pitch>
				<duration>4</duration>
				<voice>2</voice>
				<type>eighth</type>
				<stem>up</stem>
				<beam number="1">end</beam>
			</note>
			<note print-lyric="yes" print-object="no" print-spacing="yes">
				<pitch>
					<step>E</step>
					<octave>4</octave>
				</pitch>
				<duration>8</duration>
				<voice>2</voice>
				<type>quarter</type>
				<stem>up</stem>
				<lyric default-y="-103" name="verse" number="1">
					<syllabic>single</syllabic>
					<text font-size="10.8">his</text>
				</lyric>
				<lyric default-y="-128" name="verse" number="2">
					<syllabic>single</syllabic>
					<text font-size="10.8">his</text>
				</lyric>
			</note>
		</measure>
		<!--=======================================================-->
		<measure number="9" width="342">
			<attributes>
				<time>
					<beats>4</beats>
					<beat-type>4</beat-type>
				</time>
			</attributes>
			<harmony default-y="36" font-size="10" font-weight="bold">
				<root>
					<root-step>A</root-step>
				</root>
				<kind halign="center" text="">major</kind>
			</harmony>
			<note default-x="63">
				<pitch>
					<step>C</step>
					<alter>1</alter>
					<octave>4</octave>
				</pitch>
				<duration>8</duration>
				<tie type="start" />
				<voice>1</voice>
				<type>quarter</type>
				<stem default-y="-8.5">up</stem>
				<notations>
					<tied type="start" />
				</notations>
			</note>
			<note default-x="63">
				<chord />
				<pitch>
					<step>E</step>
					<octave>4</octave>
				</pitch>
				<duration>8</duration>
				<tie type="start" />
				<voice>1</voice>
				<type>quarter</type>
				<stem>up</stem>
				<notations>
					<tied type="start" />
				</notations>
			</note>
			<note default-x="130">
				<pitch>
					<step>C</step>
					<alter>1</alter>
					<octave>4</octave>
				</pitch>
				<duration>8</duration>
				<tie type="stop" />
				<voice>1</voice>
				<type>quarter</type>
				<stem default-y="-8.5">up</stem>
				<notations>
					<tied type="stop" />
				</notations>
			</note>
			<note default-x="130">
				<chord />
				<pitch>
					<step>E</step>
					<octave>4</octave>
				</pitch>
				<duration>8</duration>
				<tie type="stop" />
				<voice>1</voice>
				<type>quarter</type>
				<stem>up</stem>
				<notations>
					<tied type="stop" />
				</notations>
			</note>
			<note default-x="182">
				<rest />
				<duration>8</duration>
				<voice>1</voice>
				<type>quarter</type>
			</note>
			<note default-x="233">
				<rest />
				<duration>4</duration>
				<voice>1</voice>
				<type>eighth</type>
			</note>
			<note default-x="284">
				<pitch>
					<step>A</step>
					<octave>3</octave>
				</pitch>
				<duration>4</duration>
				<voice>1</voice>
				<type>eighth</type>
				<stem default-y="-14">up</stem>
				<lyric default-y="-103" name="verse" number="1">
					<syllabic>single</syllabic>
					<text font-size="10.8">The</text>
				</lyric>
			</note>
			<note default-x="284">
				<chord />
				<pitch>
					<step>D</step>
					<octave>4</octave>
				</pitch>
				<duration>4</duration>
				<voice>1</voice>
				<type>eighth</type>
				<stem>up</stem>
			</note>
			<backup>
				<duration>32</duration>
			</backup>
			<note print-lyric="yes" print-object="no" print-spacing="yes">
				<pitch>
					<step>E</step>
					<octave>4</octave>
				</pitch>
				<duration>8</duration>
				<tie type="start" />
				<voice>2</voice>
				<type>quarter</type>
				<stem>up</stem>
				<notations>
					<tied type="start" />
				</notations>
				<lyric default-y="-103" name="verse" number="1">
					<syllabic>single</syllabic>
					<text font-size="10.8">throne.</text>
				</lyric>
				<lyric default-y="-128" name="verse" number="2">
					<syllabic>begin</syllabic>
					<text font-size="10.8">glo</text>
				</lyric>
				<lyric default-y="-153" name="verse" number="3">
					<syllabic>single</syllabic>
					<text font-size="10.8">gods.</text>
				</lyric>
			</note>
			<note print-lyric="yes" print-object="no" print-spacing="yes">
				<pitch>
					<step>E</step>
					<octave>4</octave>
				</pitch>
				<duration>8</duration>
				<tie type="stop" />
				<voice>2</voice>
				<type>quarter</type>
				<stem>up</stem>
				<notations>
					<tied type="stop" />
				</notations>
				<lyric default-y="-128" name="verse" number="2">
					<syllabic>end</syllabic>
					<text font-size="10.8">ry.</text>
				</lyric>
			</note>
			<forward>
				<duration>16</duration>
				<voice>2</voice>
			</forward>
			<direction placement="above">
				<direction-type>
					<words default-x="336" default-y="11" font-style="italic" justify="right">D.C. al Fine</words>
				</direction-type>
				<sound dalsegno="2" />
			</direction>
			<barline location="right">
				<bar-style>light-light</bar-style>
			</barline>
		</measure>
	</part>
	<!--=========================================================-->
	<part id="P2">
		<?SmartMusic maxVoice=1?>
		<measure implicit="yes" number="0" width="225">
			<print>
				<staff-layout number="1">
					<staff-distance>143</staff-distance>
				</staff-layout>
				<measure-numbering>none</measure-numbering>
			</print>
			<attributes>
				<divisions>2</divisions>
				<key>
					<fifths>2</fifths>
					<mode>major</mode>
				</key>
				<time>
					<beats>4</beats>
					<beat-type>4</beat-type>
				</time>
				<clef>
					<sign>F</sign>
					<line>4</line>
				</clef>
			</attributes>
			<note default-x="120">
				<rest />
				<duration>1</duration>
				<voice>1</voice>
				<type>eighth</type>
			</note>
			<note default-x="169">
				<pitch>
					<step>A</step>
					<octave>2</octave>
				</pitch>
				<duration>1</duration>
				<voice>1</voice>
				<type>eighth</type>
				<stem default-y="-66">down</stem>
			</note>
			<note default-x="169">
				<chord />
				<pitch>
					<step>G</step>
					<octave>3</octave>
				</pitch>
				<duration>1</duration>
				<voice>1</voice>
				<type>eighth</type>
				<stem>down</stem>
			</note>
			<barline location="right">
				<bar-style>light-light</bar-style>
			</barline>
		</measure>
		<!--=======================================================-->
		<measure number="1" width="200">
			<note default-x="17">
				<pitch>
					<step>D</step>
					<octave>3</octave>
				</pitch>
				<duration>2</duration>
				<voice>1</voice>
				<type>quarter</type>
				<stem default-y="-51">down</stem>
			</note>
			<note default-x="17">
				<chord />
				<pitch>
					<step>A</step>
					<octave>3</octave>
				</pitch>
				<duration>2</duration>
				<voice>1</voice>
				<type>quarter</type>
				<stem>down</stem>
			</note>
			<note default-x="77">
				<pitch>
					<step>D</step>
					<octave>3</octave>
				</pitch>
				<duration>2</duration>
				<voice>1</voice>
				<type>quarter</type>
				<stem default-y="-51">down</stem>
			</note>
			<note default-x="77">
				<chord />
				<pitch>
					<step>B</step>
					<octave>3</octave>
				</pitch>
				<duration>2</duration>
				<voice>1</voice>
				<type>quarter</type>
				<stem>down</stem>
			</note>
			<note default-x="138">
				<pitch>
					<step>F</step>
					<alter>1</alter>
					<octave>3</octave>
				</pitch>
				<duration>4</duration>
				<voice>1</voice>
				<type>half</type>
				<stem default-y="-41">down</stem>
				<notations>
					<slur bezier-x="13" bezier-y="-13" default-x="8" default-y="-49" number="1" placement="below" type="start" />
				</notations>
			</note>
			<note default-x="138">
				<chord />
				<pitch>
					<step>D</step>
					<octave>4</octave>
				</pitch>
				<duration>4</duration>
				<tie type="start" />
				<voice>1</voice>
				<type>half</type>
				<stem>down</stem>
				<notations>
					<tied type="start" />
				</notations>
			</note>
		</measure>
		<!--=======================================================-->
		<measure number="2" width="206">
			<note default-x="13">
				<pitch>
					<step>G</step>
					<octave>3</octave>
				</pitch>
				<duration>4</duration>
				<voice>1</voice>
				<type>half</type>
				<stem default-y="-36">down</stem>
				<notations>
					<slur bezier-x="-11" bezier-y="-15" default-x="6" default-y="-44" number="1" type="stop" />
				</notations>
			</note>
			<note default-x="13">
				<chord />
				<pitch>
					<step>D</step>
					<octave>4</octave>
				</pitch>
				<duration>4</duration>
				<tie type="stop" />
				<voice>1</voice>
				<type>half</type>
				<stem>down</stem>
				<notations>
					<tied type="stop" />
				</notations>
			</note>
			<note default-x="62">
				<rest />
				<duration>2</duration>
				<voice>1</voice>
				<type>quarter</type>
			</note>
			<note default-x="109">
				<rest />
				<duration>1</duration>
				<voice>1</voice>
				<type>eighth</type>
			</note>
			<note default-x="157">
				<pitch>
					<step>A</step>
					<octave>2</octave>
				</pitch>
				<duration>1</duration>
				<voice>1</voice>
				<type>eighth</type>
				<stem default-y="-66">down</stem>
			</note>
			<note default-x="157">
				<chord />
				<pitch>
					<step>A</step>
					<octave>3</octave>
				</pitch>
				<duration>1</duration>
				<voice>1</voice>
				<type>eighth</type>
				<stem>down</stem>
			</note>
		</measure>
		<!--=======================================================-->
		<measure number="3" width="356">
			<note default-x="20">
				<pitch>
					<step>G</step>
					<octave>2</octave>
				</pitch>
				<duration>2</duration>
				<voice>1</voice>
				<type>quarter</type>
				<stem default-y="-67">down</stem>
			</note>
			<note default-x="20">
				<chord />
				<pitch>
					<step>B</step>
					<octave>3</octave>
				</pitch>
				<duration>2</duration>
				<voice>1</voice>
				<type>quarter</type>
				<stem>down</stem>
			</note>
			<note default-x="88">
				<pitch>
					<step>G</step>
					<octave>2</octave>
				</pitch>
				<duration>2</duration>
				<voice>1</voice>
				<type>quarter</type>
				<stem default-y="-67">down</stem>
			</note>
			<note default-x="88">
				<chord />
				<pitch>
					<step>D</step>
					<octave>4</octave>
				</pitch>
				<duration>2</duration>
				<voice>1</voice>
				<type>quarter</type>
				<stem>down</stem>
			</note>
			<note default-x="144">
				<pitch>
					<step>A</step>
					<octave>2</octave>
				</pitch>
				<duration>1</duration>
				<voice>1</voice>
				<type>eighth</type>
				<stem default-y="-66">down</stem>
				<beam number="1">begin</beam>
			</note>
			<note default-x="144">
				<chord />
				<pitch>
					<step>C</step>
					<alter>1</alter>
					<octave>4</octave>
				</pitch>
				<duration>1</duration>
				<voice>1</voice>
				<type>eighth</type>
				<stem>down</stem>
			</note>
			<note default-x="196">
				<pitch>
					<step>A</step>
					<octave>2</octave>
				</pitch>
				<duration>1</duration>
				<voice>1</voice>
				<type>eighth</type>
				<stem default-y="-66">down</stem>
				<beam number="1">end</beam>
			</note>
			<note default-x="196">
				<chord />
				<pitch>
					<step>B</step>
					<octave>3</octave>
				</pitch>
				<duration>1</duration>
				<voice>1</voice>
				<type>eighth</type>
				<stem>down</stem>
			</note>
			<note default-x="249">
				<pitch>
					<step>A</step>
					<octave>2</octave>
				</pitch>
				<duration>1</duration>
				<voice>1</voice>
				<type>eighth</type>
				<stem default-y="-66">down</stem>
				<beam number="1">begin</beam>
			</note>
			<note default-x="249">
				<chord />
				<pitch>
					<step>A</step>
					<octave>3</octave>
				</pitch>
				<duration>1</duration>
				<voice>1</voice>
				<type>eighth</type>
				<stem>down</stem>
			</note>
			<note default-x="303">
				<pitch>
					<step>A</step>
					<octave>2</octave>
				</pitch>
				<duration>1</duration>
				<voice>1</voice>
				<type>eighth</type>
				<stem default-y="-66">down</stem>
				<beam number="1">end</beam>
			</note>
			<note default-x="303">
				<chord />
				<pitch>
					<step>A</step>
					<octave>3</octave>
				</pitch>
				<duration>1</duration>
				<voice>1</voice>
				<type>eighth</type>
				<stem>down</stem>
			</note>
		</measure>
		<!--=======================================================-->
		<measure number="4" width="115">
			<note default-x="24">
				<pitch>
					<step>D</step>
					<octave>3</octave>
				</pitch>
				<duration>8</duration>
				<voice>1</voice>
				<type>whole</type>
				<notations>
					<fermata default-x="-4" default-y="15" type="upright" />
				</notations>
			</note>
			<note default-x="24">
				<chord />
				<pitch>
					<step>A</step>
					<octave>3</octave>
				</pitch>
				<duration>8</duration>
				<voice>1</voice>
				<type>whole</type>
			</note>
			<barline location="right">
				<bar-style>light-heavy</bar-style>
			</barline>
		</measure>
		<!--=======================================================-->
		<measure number="5" width="1171">
			<print new-system="yes">
				<staff-layout number="1">
					<staff-distance>143</staff-distance>
				</staff-layout>
			</print>
			<note default-x="140">
				<pitch>
					<step>D</step>
					<octave>3</octave>
				</pitch>
				<duration>8</duration>
				<voice>1</voice>
				<type>whole</type>
			</note>
			<note default-x="140">
				<chord />
				<pitch>
					<step>D</step>
					<octave>4</octave>
				</pitch>
				<duration>8</duration>
				<voice>1</voice>
				<type>whole</type>
			</note>
			<note default-x="759">
				<pitch>
					<step>G</step>
					<octave>2</octave>
				</pitch>
				<duration>2</duration>
				<voice>1</voice>
				<type>quarter</type>
				<stem>none</stem>
			</note>
			<note default-x="759">
				<chord />
				<pitch>
					<step>D</step>
					<octave>4</octave>
				</pitch>
				<duration>2</duration>
				<voice>1</voice>
				<type>quarter</type>
				<stem>none</stem>
			</note>
			<note default-x="869">
				<pitch>
					<step>G</step>
					<octave>2</octave>
				</pitch>
				<duration>2</duration>
				<voice>1</voice>
				<type>quarter</type>
				<stem>none</stem>
			</note>
			<note default-x="869">
				<chord />
				<pitch>
					<step>D</step>
					<octave>4</octave>
				</pitch>
				<duration>2</duration>
				<voice>1</voice>
				<type>quarter</type>
				<stem>none</stem>
			</note>
			<note default-x="948">
				<pitch>
					<step>A</step>
					<octave>2</octave>
				</pitch>
				<duration>4</duration>
				<voice>1</voice>
				<type>half</type>
				<stem>none</stem>
			</note>
			<note default-x="948">
				<chord />
				<pitch>
					<step>A</step>
					<octave>3</octave>
				</pitch>
				<duration>4</duration>
				<voice>1</voice>
				<type>half</type>
				<stem>none</stem>
			</note>
		</measure>
		<!--=======================================================-->
		<measure number="6" width="1171">
			<print new-system="yes">
				<staff-layout number="1">
					<staff-distance>143</staff-distance>
				</staff-layout>
			</print>
			<note default-x="104">
				<pitch>
					<step>E</step>
					<octave>3</octave>
				</pitch>
				<duration>8</duration>
				<voice>1</voice>
				<type>whole</type>
			</note>
			<note default-x="104">
				<chord />
				<pitch>
					<step>B</step>
					<octave>3</octave>
				</pitch>
				<duration>8</duration>
				<voice>1</voice>
				<type>whole</type>
			</note>
			<note default-x="675">
				<pitch>
					<step>E</step>
					<octave>3</octave>
				</pitch>
				<duration>2</duration>
				<tie type="start" />
				<voice>1</voice>
				<type>quarter</type>
				<stem>none</stem>
				<notations>
					<tied orientation="under" type="start" />
					<slur bezier-x="11" bezier-y="20" default-x="6" default-y="10" number="1" placement="above" type="start" />
				</notations>
			</note>
			<note default-x="675">
				<chord />
				<pitch>
					<step>A</step>
					<octave>3</octave>
				</pitch>
				<duration>2</duration>
				<voice>1</voice>
				<type>quarter</type>
				<stem>none</stem>
			</note>
			<note default-x="815">
				<pitch>
					<step>E</step>
					<octave>3</octave>
				</pitch>
				<duration>2</duration>
				<tie type="stop" />
				<voice>1</voice>
				<type>quarter</type>
				<stem>none</stem>
				<notations>
					<tied type="stop" />
					<slur bezier-x="-9" bezier-y="21" default-x="6" default-y="5" number="1" type="stop" />
				</notations>
			</note>
			<note default-x="815">
				<chord />
				<pitch>
					<step>G</step>
					<octave>3</octave>
				</pitch>
				<duration>2</duration>
				<voice>1</voice>
				<type>quarter</type>
				<stem>none</stem>
			</note>
			<note default-x="889">
				<pitch>
					<step>D</step>
					<octave>3</octave>
				</pitch>
				<duration>4</duration>
				<voice>1</voice>
				<type>half</type>
				<stem>none</stem>
			</note>
			<note default-x="889">
				<chord />
				<pitch>
					<step>A</step>
					<octave>3</octave>
				</pitch>
				<duration>4</duration>
				<voice>1</voice>
				<type>half</type>
				<stem>none</stem>
			</note>
		</measure>
		<!--=======================================================-->
		<measure number="7" width="1171">
			<print new-page="yes">
				<staff-layout number="1">
					<staff-distance>143</staff-distance>
				</staff-layout>
			</print>
			<note default-x="107">
				<pitch>
					<step>D</step>
					<octave>3</octave>
				</pitch>
				<duration>8</duration>
				<voice>1</voice>
				<type>whole</type>
			</note>
			<note default-x="107">
				<chord />
				<pitch>
					<step>D</step>
					<octave>4</octave>
				</pitch>
				<duration>8</duration>
				<voice>1</voice>
				<type>whole</type>
			</note>
			<note default-x="693">
				<pitch>
					<step>G</step>
					<octave>2</octave>
				</pitch>
				<duration>2</duration>
				<voice>1</voice>
				<type>quarter</type>
				<stem>none</stem>
			</note>
			<note default-x="693">
				<chord />
				<pitch>
					<step>D</step>
					<octave>4</octave>
				</pitch>
				<duration>2</duration>
				<voice>1</voice>
				<type>quarter</type>
				<stem>none</stem>
			</note>
			<note default-x="818">
				<pitch>
					<step>G</step>
					<octave>2</octave>
				</pitch>
				<duration>2</duration>
				<voice>1</voice>
				<type>quarter</type>
				<stem>none</stem>
			</note>
			<note default-x="818">
				<chord />
				<pitch>
					<step>D</step>
					<octave>4</octave>
				</pitch>
				<duration>2</duration>
				<voice>1</voice>
				<type>quarter</type>
				<stem>none</stem>
			</note>
			<note default-x="894">
				<pitch>
					<step>A</step>
					<octave>2</octave>
				</pitch>
				<duration>4</duration>
				<voice>1</voice>
				<type>half</type>
				<stem>none</stem>
			</note>
			<note default-x="894">
				<chord />
				<pitch>
					<step>A</step>
					<octave>3</octave>
				</pitch>
				<duration>4</duration>
				<voice>1</voice>
				<type>half</type>
				<stem>none</stem>
			</note>
		</measure>
		<!--=======================================================-->
		<measure number="8" width="828">
			<print new-system="yes">
				<staff-layout number="1">
					<staff-distance>143</staff-distance>
				</staff-layout>
			</print>
			<note default-x="108">
				<pitch>
					<step>E</step>
					<octave>3</octave>
				</pitch>
				<duration>8</duration>
				<voice>1</voice>
				<type>whole</type>
			</note>
			<note default-x="108">
				<chord />
				<pitch>
					<step>B</step>
					<octave>3</octave>
				</pitch>
				<duration>8</duration>
				<voice>1</voice>
				<type>whole</type>
			</note>
			<note default-x="666">
				<pitch>
					<step>E</step>
					<octave>3</octave>
				</pitch>
				<duration>2</duration>
				<voice>1</voice>
				<type>quarter</type>
				<stem>none</stem>
			</note>
			<note default-x="666">
				<chord />
				<pitch>
					<step>A</step>
					<octave>3</octave>
				</pitch>
				<duration>2</duration>
				<voice>1</voice>
				<type>quarter</type>
				<stem>none</stem>
			</note>
			<note default-x="773">
				<pitch>
					<step>E</step>
					<octave>3</octave>
				</pitch>
				<duration>2</duration>
				<voice>1</voice>
				<type>quarter</type>
				<stem>none</stem>
			</note>
			<note default-x="773">
				<chord />
				<pitch>
					<step>G</step>
					<octave>3</octave>
				</pitch>
				<duration>2</duration>
				<voice>1</voice>
				<type>quarter</type>
				<stem>none</stem>
			</note>
		</measure>
		<!--=======================================================-->
		<measure number="9" width="342">
			<attributes>
				<time>
					<beats>4</beats>
					<beat-type>4</beat-type>
				</time>
			</attributes>
			<note default-x="63">
				<pitch>
					<step>A</step>
					<octave>2</octave>
				</pitch>
				<duration>2</duration>
				<tie type="start" />
				<voice>1</voice>
				<type>quarter</type>
				<stem default-y="-62">down</stem>
				<notations>
					<tied type="start" />
				</notations>
			</note>
			<note default-x="63">
				<chord />
				<pitch>
					<step>A</step>
					<octave>3</octave>
				</pitch>
				<duration>2</duration>
				<tie type="start" />
				<voice>1</voice>
				<type>quarter</type>
				<stem>down</stem>
				<notations>
					<tied type="start" />
				</notations>
			</note>
			<note default-x="130">
				<pitch>
					<step>A</step>
					<octave>2</octave>
				</pitch>
				<duration>2</duration>
				<tie type="stop" />
				<voice>1</voice>
				<type>quarter</type>
				<stem default-y="-62">down</stem>
				<notations>
					<tied type="stop" />
				</notations>
			</note>
			<note default-x="130">
				<chord />
				<pitch>
					<step>A</step>
					<octave>3</octave>
				</pitch>
				<duration>2</duration>
				<tie type="stop" />
				<voice>1</voice>
				<type>quarter</type>
				<stem>down</stem>
				<notations>
					<tied type="stop" />
				</notations>
			</note>
			<note default-x="182">
				<rest />
				<duration>2</duration>
				<voice>1</voice>
				<type>quarter</type>
			</note>
			<note default-x="233">
				<rest />
				<duration>1</duration>
				<voice>1</voice>
				<type>eighth</type>
			</note>
			<note default-x="284">
				<pitch>
					<step>A</step>
					<octave>2</octave>
				</pitch>
				<duration>1</duration>
				<voice>1</voice>
				<type>eighth</type>
				<stem default-y="-66">down</stem>
			</note>
			<note default-x="284">
				<chord />
				<pitch>
					<step>G</step>
					<octave>3</octave>
				</pitch>
				<duration>1</duration>
				<voice>1</voice>
				<type>eighth</type>
				<stem>down</stem>
			</note>
			<direction placement="below">
				<direction-type>
					<words default-x="-780" default-y="-89">__________________________________________________________________________________________________\r\nMusic: © 2022 NOVUM PUBLISHING\r\nResponse Text: © 1969, 1981, 1997, ICEL. All rights reserved. Used with Permission.\r\nVerses Text: © 1970, 1997, 1998, CCD. All rights reserved. Used with Permission</words>
				</direction-type>
			</direction>
			<barline location="right">
				<bar-style>light-light</bar-style>
			</barline>
		</measure>
	</part>
	<!--=========================================================-->
</score-partwise>