<?xml version="1.0" encoding="UTF-8" standalone="no"?>
<!DOCTYPE score-partwise PUBLIC "-//Recordare//DTD MusicXML 3.0 Partwise//EN" "http://www.musicxml.org/dtds/3.0/partwise.dtd"[]>
<score-partwise version="3.0">
	<movement-title>Es Su Canción</movement-title>
	<identification>
		<creator type="composer">William J. Gaither</creator>
		<creator type="lyricist">Sid Guillén</creator>
		<encoding>
			<software>Finale v26.3 for Windows</software>
			<encoding-date>2023-05-12</encoding-date>
			<supports attribute="new-system" element="print" type="yes" value="yes" />
			<supports attribute="new-page" element="print" type="yes" value="yes" />
			<supports element="accidental" type="yes" />
			<supports element="beam" type="yes" />
			<supports element="stem" type="yes" />
		</encoding>
		<rights>CCLI Song # 7216899\r\n© 1969, 1993 William J. Gaither, Inc.\r\nFor use solely with the SongSelect® Terms of Use. All rights reserved. www.ccli.com\r\nCCLI License # 12345\r\n</rights>
	</identification>
	<defaults>
		<scaling>
			<millimeters>6.5088</millimeters>
			<tenths>40</tenths>
		</scaling>
		<page-layout>
			<page-height>1717</page-height>
			<page-width>1327</page-width>
			<page-margins type="both">
				<left-margin>78</left-margin>
				<right-margin>78</right-margin>
				<top-margin>78</top-margin>
				<bottom-margin>78</bottom-margin>
			</page-margins>
		</page-layout>
		<system-layout>
			<system-margins>
				<left-margin>0</left-margin>
				<right-margin>0</right-margin>
			</system-margins>
			<system-distance>190</system-distance>
			<top-system-distance>117</top-system-distance>
		</system-layout>
		<appearance>
			<line-width type="stem">1.4583</line-width>
			<line-width type="beam">5</line-width>
			<line-width type="staff">1.25</line-width>
			<line-width type="light barline">1.4583</line-width>
			<line-width type="heavy barline">5</line-width>
			<line-width type="leger">1.875</line-width>
			<line-width type="ending">1.4583</line-width>
			<line-width type="wedge">1.4583</line-width>
			<line-width type="enclosure">1.4583</line-width>
			<line-width type="tuplet bracket">1.4583</line-width>
			<note-size type="grace">50</note-size>
			<note-size type="cue">50</note-size>
			<distance type="hyphen">240</distance>
			<distance type="beam">7.5</distance>
		</appearance>
		<music-font font-family="Maestro,engraved" font-size="18.5" />
		<word-font font-family="Arial" font-size="9.2" />
		<lyric-font font-family="Arial" font-size="10.8" name="verse" />
		<lyric-font font-family="Arial" font-size="10.8" name="section" />
	</defaults>
	<credit page="1">
		<credit-type>title</credit-type>
		<credit-words default-x="663" default-y="1649" font-size="21.6" font-weight="bold" justify="center" valign="top">Es Su Canción</credit-words>
	</credit>
	<credit page="1">
		<credit-words default-x="1249" default-y="1576" font-size="10.8" font-style="italic" justify="right" valign="top">Música por</credit-words>
	</credit>
	<credit page="1">
		<credit-words default-x="78" default-y="1527" font-size="10.8" font-style="italic" valign="top">Traducido por</credit-words>
	</credit>
	<credit page="1">
		<credit-type>lyricist</credit-type>
		<credit-words default-x="78" default-y="1503" font-size="10.8" font-weight="bold" valign="top">Sid Guillén</credit-words>
	</credit>
	<credit page="1">
		<credit-type>composer</credit-type>
		<credit-words default-x="1249" default-y="1552" font-size="10.8" font-weight="bold" justify="right" valign="top">William J. Gaither</credit-words>
	</credit>
	<credit page="1">
		<credit-words default-x="78" default-y="1576" font-size="10.8" font-style="italic" valign="top">Letra por</credit-words>
	</credit>
	<credit page="1">
		<credit-words default-x="78" default-y="1552" font-size="10.8" font-weight="bold" valign="top">William J. Gaither y Gloria Gaither</credit-words>
	</credit>
	<credit page="2">
		<credit-type>page number</credit-type>
		<credit-type>title</credit-type>
		<credit-words default-x="663" default-y="1663" font-size="10.8" justify="center" valign="top">Es Su Canción - 2</credit-words>
	</credit>
	<part-list>
		<score-part id="P1">
			<part-name print-object="no">Vocals</part-name>
			<score-instrument id="P1-I2">
				<instrument-name>Melody</instrument-name>
			</score-instrument>
			<midi-instrument id="P1-I2">
				<midi-channel>1</midi-channel>
				<midi-program>1</midi-program>
				<volume>80</volume>
				<pan>0</pan>
			</midi-instrument>
		</score-part>
	</part-list>
	<!--=========================================================-->
	<part id="P1">
		<measure implicit="yes" number="0" width="284">
			<print page-number="1">
				<page-layout>
					<page-height>1717</page-height>
					<page-width>1327</page-width>
					<page-margins>
						<left-margin>78</left-margin>
						<right-margin>78</right-margin>
						<top-margin>190</top-margin>
						<bottom-margin>163</bottom-margin>
					</page-margins>
				</page-layout>
				<system-layout>
					<system-margins>
						<left-margin>68</left-margin>
						<right-margin>0</right-margin>
					</system-margins>
				</system-layout>
				<measure-numbering>system</measure-numbering>
			</print>
			<attributes>
				<divisions>8</divisions>
				<key>
					<fifths>-1</fifths>
					<mode>major</mode>
				</key>
				<time>
					<beats>4</beats>
					<beat-type>4</beat-type>
				</time>
				<clef>
					<sign>G</sign>
					<line>2</line>
				</clef>
			</attributes>
			<sound tempo="96" />
			<note default-x="109">
				<pitch>
					<step>C</step>
					<octave>4</octave>
				</pitch>
				<duration>8</duration>
				<voice>1</voice>
				<type>quarter</type>
				<stem default-y="-19">up</stem>
				<lyric default-y="-91" name="verse" number="1">
					<syllabic>begin</syllabic>
					<text font-size="10.8">¿Sa</text>
				</lyric>
			</note>
			<harmony default-y="36" font-size="10" font-weight="bold">
				<root>
					<root-step>C</root-step>
				</root>
				<kind halign="center" text="7">dominant</kind>
			</harmony>
			<note default-x="165">
				<pitch>
					<step>F</step>
					<octave>4</octave>
				</pitch>
				<duration>8</duration>
				<voice>1</voice>
				<type>quarter</type>
				<stem default-y="-4">up</stem>
				<lyric default-y="-91" name="verse" number="1">
					<syllabic>end</syllabic>
					<text font-size="10.8">bes</text>
				</lyric>
			</note>
			<note default-x="221">
				<pitch>
					<step>G</step>
					<octave>4</octave>
				</pitch>
				<duration>8</duration>
				<voice>1</voice>
				<type>quarter</type>
				<stem default-y="1">up</stem>
				<lyric default-y="-91" name="verse" number="1">
					<syllabic>single</syllabic>
					<text font-size="10.8">por</text>
				</lyric>
			</note>
			<direction placement="above">
				<direction-type>
					<words default-y="187" font-style="italic" valign="top">(sugún publicado por Gaither Copyright Management)</words>
				</direction-type>
				<offset>-1</offset>
			</direction>
			<barline location="right">
				<bar-style>light-light</bar-style>
			</barline>
		</measure>
		<!--=======================================================-->
		<measure number="1" width="113">
			<harmony default-y="36" font-size="10" font-weight="bold">
				<root>
					<root-step>F</root-step>
				</root>
				<kind halign="center" text="">major</kind>
			</harmony>
			<direction placement="above">
				<direction-type>
					<rehearsal default-y="69" font-weight="bold" relative-x="-5">VERSO</rehearsal>
				</direction-type>
			</direction>
			<note default-x="11">
				<pitch>
					<step>A</step>
					<octave>4</octave>
				</pitch>
				<duration>32</duration>
				<tie type="start" />
				<voice>1</voice>
				<type>whole</type>
				<notations>
					<tied type="start" />
				</notations>
				<lyric default-y="-91" name="verse" number="1">
					<syllabic>single</syllabic>
					<text font-size="10.8">qué</text>
					<extend type="start" />
				</lyric>
			</note>
			<backup>
				<duration>32</duration>
			</backup>
			<forward>
				<duration>16</duration>
				<voice>2</voice>
			</forward>
			<harmony default-y="36" font-size="10" font-weight="bold">
				<root>
					<root-step>F</root-step>
				</root>
				<kind halign="center" text="maj7">major-seventh</kind>
			</harmony>
			<forward>
				<duration>16</duration>
				<voice>2</voice>
			</forward>
		</measure>
		<!--=======================================================-->
		<measure number="2" width="199">
			<harmony default-y="36" font-size="10" font-weight="bold">
				<root>
					<root-step>F</root-step>
				</root>
				<kind halign="center" text="6">major-sixth</kind>
			</harmony>
			<note default-x="16">
				<pitch>
					<step>A</step>
					<octave>4</octave>
				</pitch>
				<duration>8</duration>
				<tie type="stop" />
				<voice>1</voice>
				<type>quarter</type>
				<stem default-y="6">up</stem>
				<notations>
					<tied type="stop" />
				</notations>
				<lyric name="verse" number="1">
					<extend type="stop" />
				</lyric>
			</note>
			<note default-x="62">
				<pitch>
					<step>G</step>
					<alter>1</alter>
					<octave>4</octave>
				</pitch>
				<duration>8</duration>
				<voice>1</voice>
				<type>quarter</type>
				<accidental>sharp</accidental>
				<stem default-y="1">up</stem>
				<lyric default-y="-91" name="verse" number="1">
					<syllabic>single</syllabic>
					<text font-size="10.8">mi</text>
				</lyric>
			</note>
			<harmony default-y="36" font-size="10" font-weight="bold">
				<root>
					<root-step>F</root-step>
				</root>
				<kind halign="center" text="">major</kind>
			</harmony>
			<note default-x="107">
				<pitch>
					<step>A</step>
					<octave>4</octave>
				</pitch>
				<duration>8</duration>
				<voice>1</voice>
				<type>quarter</type>
				<stem default-y="6">up</stem>
				<lyric default-y="-91" name="verse" number="1">
					<syllabic>begin</syllabic>
					<text font-size="10.8">al</text>
				</lyric>
			</note>
			<note default-x="153">
				<pitch>
					<step>B</step>
					<alter>-1</alter>
					<octave>4</octave>
				</pitch>
				<duration>8</duration>
				<voice>1</voice>
				<type>quarter</type>
				<stem default-y="-51">down</stem>
				<lyric default-y="-91" name="verse" number="1">
					<syllabic>end</syllabic>
					<text font-size="10.8">ma</text>
				</lyric>
			</note>
		</measure>
		<!--=======================================================-->
		<measure number="3" width="164">
			<harmony default-y="36" font-size="10" font-weight="bold">
				<root>
					<root-step>F</root-step>
				</root>
				<kind halign="center" text="">major</kind>
				<bass>
					<bass-step>C</bass-step>
				</bass>
			</harmony>
			<note default-x="14">
				<pitch>
					<step>A</step>
					<octave>4</octave>
				</pitch>
				<duration>8</duration>
				<voice>1</voice>
				<type>quarter</type>
				<stem default-y="6">up</stem>
				<lyric default-y="-91" name="verse" number="1">
					<syllabic>begin</syllabic>
					<text font-size="10.8">can</text>
				</lyric>
			</note>
			<harmony default-y="36" font-size="10" font-weight="bold">
				<root>
					<root-step>C</root-step>
				</root>
				<kind halign="center" text="7">dominant</kind>
			</harmony>
			<note default-x="64">
				<pitch>
					<step>G</step>
					<octave>4</octave>
				</pitch>
				<duration>24</duration>
				<tie type="start" />
				<voice>1</voice>
				<type>half</type>
				<dot />
				<stem default-y="1">up</stem>
				<notations>
					<tied type="start" />
				</notations>
				<lyric default-y="-91" name="verse" number="1">
					<syllabic>end</syllabic>
					<text font-size="10.8">ta</text>
					<extend type="start" />
				</lyric>
			</note>
			<backup>
				<duration>32</duration>
			</backup>
			<forward>
				<duration>8</duration>
				<voice>2</voice>
			</forward>
			<forward>
				<duration>8</duration>
				<voice>2</voice>
			</forward>
			<harmony default-y="36" font-size="10" font-weight="bold">
				<root>
					<root-step>G</root-step>
				</root>
				<kind halign="center" text="m7">minor-seventh</kind>
			</harmony>
			<forward>
				<duration>16</duration>
				<voice>2</voice>
			</forward>
		</measure>
		<!--=======================================================-->
		<measure number="4" width="238">
			<harmony default-y="36" font-size="10" font-weight="bold">
				<root>
					<root-step>C</root-step>
				</root>
				<kind halign="center" text="7">dominant</kind>
			</harmony>
			<note default-x="18">
				<pitch>
					<step>G</step>
					<octave>4</octave>
				</pitch>
				<duration>8</duration>
				<tie type="stop" />
				<voice>1</voice>
				<type>quarter</type>
				<stem default-y="1">up</stem>
				<notations>
					<tied type="stop" />
				</notations>
				<lyric name="verse" number="1">
					<extend type="stop" />
				</lyric>
			</note>
			<note default-x="68">
				<pitch>
					<step>C</step>
					<octave>4</octave>
				</pitch>
				<duration>8</duration>
				<voice>1</voice>
				<type>quarter</type>
				<stem default-y="-19">up</stem>
				<lyric default-y="-91" name="verse" number="1">
					<syllabic>single</syllabic>
					<text font-size="10.8">aun</text>
				</lyric>
			</note>
			<note default-x="130">
				<pitch>
					<step>E</step>
					<octave>4</octave>
				</pitch>
				<duration>8</duration>
				<voice>1</voice>
				<type>quarter</type>
				<stem default-y="-8.5">up</stem>
				<lyric default-y="-91" name="verse" number="1">
					<syllabic>begin</syllabic>
					<text font-size="10.8">cuan</text>
				</lyric>
			</note>
			<note default-x="187">
				<pitch>
					<step>F</step>
					<octave>4</octave>
				</pitch>
				<duration>8</duration>
				<voice>1</voice>
				<type>quarter</type>
				<stem default-y="-4">up</stem>
				<lyric default-y="-91" name="verse" number="1">
					<syllabic>end</syllabic>
					<text font-size="10.8">do</text>
				</lyric>
			</note>
		</measure>
		<!--=======================================================-->
		<measure number="5" width="103">
			<note default-x="11">
				<pitch>
					<step>G</step>
					<octave>4</octave>
				</pitch>
				<duration>32</duration>
				<tie type="start" />
				<voice>1</voice>
				<type>whole</type>
				<notations>
					<tied type="start" />
				</notations>
				<lyric default-y="-91" name="verse" number="1">
					<syllabic>begin</syllabic>
					<text font-size="10.8">to</text>
				</lyric>
			</note>
			<backup>
				<duration>32</duration>
			</backup>
			<forward>
				<duration>16</duration>
				<voice>2</voice>
			</forward>
			<harmony default-y="36" font-size="10" font-weight="bold">
				<root>
					<root-step>G</root-step>
				</root>
				<kind halign="center" text="m7">minor-seventh</kind>
			</harmony>
			<forward>
				<duration>16</duration>
				<voice>2</voice>
			</forward>
		</measure>
		<!--=======================================================-->
		<measure number="6" width="301">
			<print new-system="yes">
				<system-layout>
					<system-distance>180</system-distance>
				</system-layout>
			</print>
			<harmony default-y="36" font-size="10" font-weight="bold">
				<root>
					<root-step>C</root-step>
				</root>
				<kind halign="center" text="7">dominant</kind>
			</harmony>
			<note default-x="72">
				<pitch>
					<step>G</step>
					<octave>4</octave>
				</pitch>
				<duration>8</duration>
				<tie type="stop" />
				<voice>1</voice>
				<type>quarter</type>
				<stem default-y="1">up</stem>
				<notations>
					<tied type="stop" />
				</notations>
			</note>
			<note default-x="129">
				<pitch>
					<step>B</step>
					<alter>-1</alter>
					<octave>4</octave>
				</pitch>
				<duration>8</duration>
				<voice>1</voice>
				<type>quarter</type>
				<stem default-y="-51">down</stem>
				<lyric default-y="-91" name="verse" number="1">
					<syllabic>end</syllabic>
					<text font-size="10.8">do</text>
				</lyric>
			</note>
			<note default-x="186">
				<pitch>
					<step>A</step>
					<octave>4</octave>
				</pitch>
				<duration>12</duration>
				<voice>1</voice>
				<type>quarter</type>
				<dot />
				<stem default-y="6.5">up</stem>
				<lyric default-y="-91" name="verse" number="1">
					<syllabic>single</syllabic>
					<text font-size="10.8">me</text>
				</lyric>
			</note>
			<note default-x="243">
				<pitch>
					<step>G</step>
					<alter>1</alter>
					<octave>4</octave>
				</pitch>
				<duration>4</duration>
				<voice>1</voice>
				<type>eighth</type>
				<accidental>sharp</accidental>
				<stem default-y="1">up</stem>
				<lyric default-y="-91" name="verse" number="1">
					<syllabic>single</syllabic>
					<text font-size="10.8">va</text>
				</lyric>
			</note>
		</measure>
		<!--=======================================================-->
		<measure number="7" width="90">
			<harmony default-y="36" font-size="10" font-weight="bold">
				<root>
					<root-step>F</root-step>
				</root>
				<kind halign="center" text="">major</kind>
			</harmony>
			<note default-x="18">
				<pitch>
					<step>A</step>
					<octave>4</octave>
				</pitch>
				<duration>32</duration>
				<tie type="start" />
				<voice>1</voice>
				<type>whole</type>
				<notations>
					<tied type="start" />
				</notations>
				<lyric default-y="-91" name="verse" number="1">
					<syllabic>single</syllabic>
					<text font-size="10.8">mal?</text>
					<extend type="start" />
				</lyric>
			</note>
		</measure>
		<!--=======================================================-->
		<measure number="8" width="282">
			<note default-x="10">
				<pitch>
					<step>A</step>
					<octave>4</octave>
				</pitch>
				<duration>8</duration>
				<tie type="stop" />
				<voice>1</voice>
				<type>quarter</type>
				<stem default-y="6.5">up</stem>
				<notations>
					<tied type="stop" />
				</notations>
				<lyric name="verse" number="1">
					<extend type="stop" />
				</lyric>
			</note>
			<note default-x="78">
				<pitch>
					<step>F</step>
					<octave>4</octave>
				</pitch>
				<duration>8</duration>
				<voice>1</voice>
				<type>quarter</type>
				<stem default-y="-4">up</stem>
				<lyric default-y="-91" name="verse" number="1">
					<syllabic>single</syllabic>
					<text font-size="10.8">En</text>
				</lyric>
			</note>
			<harmony default-y="36" font-size="10" font-weight="bold">
				<root>
					<root-step>C</root-step>
				</root>
				<kind halign="center" text="7">dominant</kind>
			</harmony>
			<note default-x="145">
				<pitch>
					<step>A</step>
					<octave>4</octave>
				</pitch>
				<duration>8</duration>
				<voice>1</voice>
				<type>quarter</type>
				<stem default-y="6.5">up</stem>
				<lyric default-y="-91" name="verse" number="1">
					<syllabic>begin</syllabic>
					<text font-size="10.8">Cris</text>
				</lyric>
			</note>
			<note default-x="213">
				<pitch>
					<step>B</step>
					<alter>-1</alter>
					<octave>4</octave>
				</pitch>
				<duration>8</duration>
				<voice>1</voice>
				<type>quarter</type>
				<stem default-y="-51">down</stem>
				<lyric default-y="-91" name="verse" number="1">
					<syllabic>end</syllabic>
					<text font-size="10.8">to</text>
					<elision></elision>
					<syllabic>begin</syllabic>
					<text font-size="10.8">ha</text>
				</lyric>
			</note>
		</measure>
		<!--=======================================================-->
		<measure number="9" width="132">
			<harmony default-y="36" font-size="10" font-weight="bold">
				<root>
					<root-step>F</root-step>
				</root>
				<kind halign="center" text="7">dominant</kind>
			</harmony>
			<note default-x="17">
				<pitch>
					<step>C</step>
					<octave>5</octave>
				</pitch>
				<duration>32</duration>
				<tie type="start" />
				<voice>1</voice>
				<type>whole</type>
				<notations>
					<tied type="start" />
				</notations>
				<lyric default-y="-91" name="verse" number="1">
					<syllabic>end</syllabic>
					<text font-size="10.8">llé</text>
					<extend type="start" />
				</lyric>
			</note>
			<backup>
				<duration>32</duration>
			</backup>
			<forward>
				<duration>16</duration>
				<voice>2</voice>
			</forward>
			<harmony default-y="36" font-size="10" font-weight="bold">
				<root>
					<root-step>C</root-step>
				</root>
				<kind halign="center" text="m7">minor-seventh</kind>
			</harmony>
			<forward>
				<duration>16</duration>
				<voice>2</voice>
			</forward>
		</measure>
		<!--=======================================================-->
		<measure number="10" width="233">
			<harmony default-y="36" font-size="10" font-weight="bold">
				<root>
					<root-step>F</root-step>
				</root>
				<kind halign="center" text="7">dominant</kind>
			</harmony>
			<note default-x="17">
				<pitch>
					<step>C</step>
					<octave>5</octave>
				</pitch>
				<duration>8</duration>
				<tie type="stop" />
				<voice>1</voice>
				<type>quarter</type>
				<stem default-y="-46">down</stem>
				<notations>
					<tied type="stop" />
				</notations>
				<lyric name="verse" number="1">
					<extend type="stop" />
				</lyric>
			</note>
			<note default-x="70">
				<pitch>
					<step>B</step>
					<octave>4</octave>
				</pitch>
				<duration>8</duration>
				<voice>1</voice>
				<type>quarter</type>
				<accidental>natural</accidental>
				<stem default-y="-51">down</stem>
				<lyric default-y="-91" name="verse" number="1">
					<syllabic>begin</syllabic>
					<text font-size="10.8">di</text>
				</lyric>
			</note>
			<harmony default-y="36" font-size="10" font-weight="bold">
				<root>
					<root-step>F</root-step>
				</root>
				<kind halign="center" text="9">dominant-ninth</kind>
			</harmony>
			<note default-x="125">
				<pitch>
					<step>C</step>
					<octave>5</octave>
				</pitch>
				<duration>8</duration>
				<voice>1</voice>
				<type>quarter</type>
				<stem default-y="-46">down</stem>
				<lyric default-y="-91" name="verse" number="1">
					<syllabic>middle</syllabic>
					<text font-size="10.8">vi</text>
				</lyric>
			</note>
			<note default-x="178">
				<pitch>
					<step>D</step>
					<octave>5</octave>
				</pitch>
				<duration>8</duration>
				<voice>1</voice>
				<type>quarter</type>
				<stem default-y="-41">down</stem>
				<lyric default-y="-91" name="verse" number="1">
					<syllabic>end</syllabic>
					<text font-size="10.8">na</text>
				</lyric>
			</note>
		</measure>
		<!--=======================================================-->
		<measure number="11" width="133">
			<harmony default-y="36" font-size="10" font-weight="bold">
				<root>
					<root-step>B</root-step>
					<root-alter>-1</root-alter>
				</root>
				<kind halign="center" text="">major</kind>
			</harmony>
			<note default-x="16">
				<pitch>
					<step>C</step>
					<octave>5</octave>
				</pitch>
				<duration>8</duration>
				<voice>1</voice>
				<type>quarter</type>
				<stem default-y="-46">down</stem>
				<lyric default-y="-91" name="verse" number="1">
					<syllabic>begin</syllabic>
					<text font-size="10.8">mu</text>
				</lyric>
			</note>
			<note default-x="73">
				<pitch>
					<step>B</step>
					<alter>-1</alter>
					<octave>4</octave>
				</pitch>
				<duration>24</duration>
				<tie type="start" />
				<voice>1</voice>
				<type>half</type>
				<dot />
				<stem default-y="-51">down</stem>
				<notations>
					<tied type="start" />
				</notations>
				<lyric default-y="-91" name="verse" number="1">
					<syllabic>end</syllabic>
					<text font-size="10.8">sa</text>
					<extend type="start" />
				</lyric>
			</note>
		</measure>
		<!--=======================================================-->
		<measure number="12" width="331">
			<print new-system="yes">
				<system-layout>
					<system-distance>180</system-distance>
				</system-layout>
			</print>
			<harmony default-y="36" font-size="10" font-weight="bold">
				<root>
					<root-step>E</root-step>
					<root-alter>-1</root-alter>
				</root>
				<kind halign="center" text="9">dominant-ninth</kind>
			</harmony>
			<note default-x="74">
				<pitch>
					<step>B</step>
					<alter>-1</alter>
					<octave>4</octave>
				</pitch>
				<duration>8</duration>
				<tie type="stop" />
				<voice>1</voice>
				<type>quarter</type>
				<stem default-y="-51">down</stem>
				<notations>
					<tied type="stop" />
				</notations>
				<lyric name="verse" number="1">
					<extend type="stop" />
				</lyric>
			</note>
			<note default-x="136">
				<pitch>
					<step>C</step>
					<octave>5</octave>
				</pitch>
				<duration>8</duration>
				<voice>1</voice>
				<type>quarter</type>
				<stem default-y="-46">down</stem>
				<lyric default-y="-91" name="verse" number="1">
					<syllabic>begin</syllabic>
					<text font-size="10.8">ten</text>
				</lyric>
			</note>
			<note default-x="198">
				<pitch>
					<step>C</step>
					<octave>5</octave>
				</pitch>
				<duration>8</duration>
				<voice>1</voice>
				<type>quarter</type>
				<stem default-y="-46">down</stem>
				<lyric default-y="-91" name="verse" number="1">
					<syllabic>end</syllabic>
					<text font-size="10.8">go</text>
				</lyric>
			</note>
			<note default-x="264">
				<pitch>
					<step>B</step>
					<alter>-1</alter>
					<octave>4</octave>
				</pitch>
				<duration>8</duration>
				<voice>1</voice>
				<type>quarter</type>
				<stem default-y="-51">down</stem>
				<lyric default-y="-91" name="verse" number="1">
					<syllabic>single</syllabic>
					<text font-size="10.8">que</text>
					<elision></elision>
					<syllabic>begin</syllabic>
					<text font-size="10.8">ha</text>
				</lyric>
			</note>
		</measure>
		<!--=======================================================-->
		<measure number="13" width="122">
			<harmony default-y="36" font-size="10" font-weight="bold">
				<root>
					<root-step>F</root-step>
				</root>
				<kind halign="center" text="">major</kind>
				<bass>
					<bass-step>C</bass-step>
				</bass>
			</harmony>
			<note default-x="14">
				<pitch>
					<step>A</step>
					<octave>4</octave>
				</pitch>
				<duration>8</duration>
				<voice>1</voice>
				<type>quarter</type>
				<stem default-y="6.5">up</stem>
				<lyric default-y="-91" name="verse" number="1">
					<syllabic>middle</syllabic>
					<text font-size="10.8">cer</text>
				</lyric>
			</note>
			<note default-x="68">
				<pitch>
					<step>C</step>
					<octave>4</octave>
				</pitch>
				<duration>24</duration>
				<voice>1</voice>
				<type>half</type>
				<dot />
				<stem default-y="-18.5">up</stem>
				<lyric default-y="-91" name="verse" number="1">
					<syllabic>end</syllabic>
					<text font-size="10.8">lo,</text>
				</lyric>
			</note>
		</measure>
		<!--=======================================================-->
		<measure number="14" width="198">
			<harmony default-y="36" font-size="10" font-weight="bold">
				<root>
					<root-step>G</root-step>
				</root>
				<kind halign="center" text="m7">minor-seventh</kind>
			</harmony>
			<note default-x="28">
				<pitch>
					<step>B</step>
					<alter>-1</alter>
					<octave>4</octave>
				</pitch>
				<duration>8</duration>
				<voice>1</voice>
				<type>quarter</type>
				<stem default-y="-51">down</stem>
				<lyric default-y="-91" name="verse" number="1">
					<syllabic>single</syllabic>
					<text font-size="10.8">¡Es</text>
				</lyric>
			</note>
			<harmony default-y="36" font-size="10" font-weight="bold">
				<root>
					<root-step>C</root-step>
				</root>
				<kind halign="center" text="9">dominant-ninth</kind>
				<offset>8</offset>
			</harmony>
			<note default-x="84">
				<pitch>
					<step>A</step>
					<octave>4</octave>
				</pitch>
				<duration>16</duration>
				<voice>1</voice>
				<type>half</type>
				<stem default-y="6.5">up</stem>
				<lyric default-y="-91" name="verse" number="1">
					<syllabic>single</syllabic>
					<text font-size="10.8">su</text>
				</lyric>
			</note>
			<note default-x="141">
				<pitch>
					<step>G</step>
					<octave>4</octave>
				</pitch>
				<duration>8</duration>
				<voice>1</voice>
				<type>quarter</type>
				<stem default-y="1.5">up</stem>
				<lyric default-y="-91" name="verse" number="1">
					<syllabic>begin</syllabic>
					<text font-size="10.8">can</text>
				</lyric>
			</note>
		</measure>
		<!--=======================================================-->
		<measure number="15" width="120">
			<harmony default-y="36" font-size="10" font-weight="bold">
				<root>
					<root-step>F</root-step>
				</root>
				<kind halign="center" text="">major</kind>
			</harmony>
			<note default-x="18">
				<pitch>
					<step>F</step>
					<octave>4</octave>
				</pitch>
				<duration>32</duration>
				<tie type="start" />
				<voice>1</voice>
				<type>whole</type>
				<notations>
					<tied type="start" />
				</notations>
				<lyric default-y="-91" name="verse" number="1">
					<syllabic>end</syllabic>
					<text font-size="10.8">cion!</text>
					<extend type="start" />
				</lyric>
			</note>
			<backup>
				<duration>32</duration>
			</backup>
			<forward>
				<duration>16</duration>
				<voice>2</voice>
			</forward>
			<harmony default-y="36" font-size="10" font-weight="bold">
				<root>
					<root-step>G</root-step>
				</root>
				<kind halign="center" text="m">minor</kind>
			</harmony>
			<forward>
				<duration>16</duration>
				<voice>2</voice>
			</forward>
		</measure>
		<!--=======================================================-->
		<measure number="16" width="268">
			<harmony default-y="36" font-size="10" font-weight="bold">
				<root>
					<root-step>F</root-step>
				</root>
				<kind halign="center" text="">major</kind>
			</harmony>
			<note default-x="11">
				<pitch>
					<step>F</step>
					<octave>4</octave>
				</pitch>
				<duration>8</duration>
				<tie type="stop" />
				<voice>1</voice>
				<type>quarter</type>
				<stem default-y="-3">up</stem>
				<notations>
					<tied type="stop" />
				</notations>
				<lyric name="verse" number="1">
					<extend type="stop" />
				</lyric>
			</note>
			<note default-x="71">
				<pitch>
					<step>F</step>
					<octave>4</octave>
				</pitch>
				<duration>8</duration>
				<voice>1</voice>
				<type>quarter</type>
				<stem default-y="-3">up</stem>
				<lyric default-y="-91" name="verse" number="1">
					<syllabic>single</syllabic>
					<text font-size="10.8">En</text>
				</lyric>
			</note>
			<harmony default-y="36" font-size="10" font-weight="bold">
				<root>
					<root-step>C</root-step>
				</root>
				<kind halign="center" text="m7">minor-seventh</kind>
			</harmony>
			<note default-x="133">
				<pitch>
					<step>B</step>
					<alter>-1</alter>
					<octave>4</octave>
				</pitch>
				<duration>8</duration>
				<voice>1</voice>
				<type>quarter</type>
				<stem default-y="-51">down</stem>
				<lyric default-y="-91" name="verse" number="1">
					<syllabic>begin</syllabic>
					<text font-size="10.8">Cris</text>
				</lyric>
			</note>
			<harmony default-y="36" font-size="10" font-weight="bold">
				<root>
					<root-step>F</root-step>
				</root>
				<kind halign="center" parentheses-degrees="yes" text="7">dominant</kind>
				<degree>
					<degree-value>9</degree-value>
					<degree-alter>-1</degree-alter>
					<degree-type>add</degree-type>
				</degree>
			</harmony>
			<note default-x="198">
				<pitch>
					<step>C</step>
					<octave>5</octave>
				</pitch>
				<duration>8</duration>
				<voice>1</voice>
				<type>quarter</type>
				<stem default-y="-46">down</stem>
				<lyric default-y="-91" name="verse" number="1">
					<syllabic>end</syllabic>
					<text font-size="10.8">to</text>
					<elision></elision>
					<syllabic>begin</syllabic>
					<text font-size="10.8">ha</text>
				</lyric>
			</note>
			<barline location="right">
				<bar-style>light-light</bar-style>
			</barline>
		</measure>
		<!--=======================================================-->
		<measure number="17" width="132">
			<barline location="left">
				<bar-style>heavy-light</bar-style>
				<repeat direction="forward" winged="none" />
			</barline>
			<harmony default-y="36" font-size="10" font-weight="bold">
				<root>
					<root-step>B</root-step>
					<root-alter>-1</root-alter>
				</root>
				<kind halign="center" text="maj7">major-seventh</kind>
			</harmony>
			<direction placement="above">
				<direction-type>
					<rehearsal default-y="69" font-weight="bold" relative-x="-5">CORO</rehearsal>
				</direction-type>
			</direction>
			<note default-x="50">
				<pitch>
					<step>D</step>
					<octave>5</octave>
				</pitch>
				<duration>32</duration>
				<tie type="start" />
				<voice>1</voice>
				<type>whole</type>
				<notations>
					<tied type="start" />
				</notations>
				<lyric default-y="-91" name="verse" number="1">
					<syllabic>end</syllabic>
					<text font-size="10.8">llé</text>
					<extend type="start" />
				</lyric>
			</note>
		</measure>
		<!--=======================================================-->
		<measure number="18" width="250">
			<print new-system="yes">
				<system-layout>
					<system-distance>180</system-distance>
				</system-layout>
			</print>
			<harmony default-y="36" font-size="10" font-weight="bold">
				<root>
					<root-step>B</root-step>
					<root-alter>-1</root-alter>
				</root>
				<kind halign="center" text="6">major-sixth</kind>
			</harmony>
			<note default-x="75">
				<pitch>
					<step>D</step>
					<octave>5</octave>
				</pitch>
				<duration>8</duration>
				<tie type="stop" />
				<voice>1</voice>
				<type>quarter</type>
				<stem default-y="-41">down</stem>
				<notations>
					<tied type="stop" />
				</notations>
				<lyric name="verse" number="1">
					<extend type="stop" />
				</lyric>
			</note>
			<note default-x="119">
				<pitch>
					<step>D</step>
					<octave>5</octave>
				</pitch>
				<duration>8</duration>
				<voice>1</voice>
				<type>quarter</type>
				<stem default-y="-41">down</stem>
				<lyric default-y="-91" name="verse" number="1">
					<syllabic>begin</syllabic>
					<text font-size="10.8">di</text>
				</lyric>
			</note>
			<harmony default-y="36" font-size="10" font-weight="bold">
				<root>
					<root-step>C</root-step>
				</root>
				<kind halign="center" use-symbols="yes">augmented-seventh</kind>
			</harmony>
			<note default-x="162">
				<pitch>
					<step>D</step>
					<octave>5</octave>
				</pitch>
				<duration>8</duration>
				<voice>1</voice>
				<type>quarter</type>
				<stem default-y="-41">down</stem>
				<lyric default-y="-91" name="verse" number="1">
					<syllabic>middle</syllabic>
					<text font-size="10.8">vi</text>
				</lyric>
			</note>
			<note default-x="205">
				<pitch>
					<step>D</step>
					<octave>5</octave>
				</pitch>
				<duration>8</duration>
				<voice>1</voice>
				<type>quarter</type>
				<stem default-y="-41">down</stem>
				<lyric default-y="-91" name="verse" number="1">
					<syllabic>end</syllabic>
					<text font-size="10.8">na</text>
				</lyric>
			</note>
		</measure>
		<!--=======================================================-->
		<measure number="19" width="103">
			<harmony default-y="36" font-size="10" font-weight="bold">
				<root>
					<root-step>F</root-step>
				</root>
				<kind halign="center" text="">major</kind>
			</harmony>
			<note default-x="11">
				<pitch>
					<step>D</step>
					<octave>5</octave>
				</pitch>
				<duration>8</duration>
				<voice>1</voice>
				<type>quarter</type>
				<stem default-y="-41">down</stem>
				<lyric default-y="-91" name="verse" number="1">
					<syllabic>begin</syllabic>
					<text font-size="10.8">mu</text>
				</lyric>
			</note>
			<note default-x="57">
				<pitch>
					<step>C</step>
					<octave>5</octave>
				</pitch>
				<duration>24</duration>
				<tie type="start" />
				<voice>1</voice>
				<type>half</type>
				<dot />
				<stem default-y="-46">down</stem>
				<notations>
					<tied type="start" />
				</notations>
				<lyric default-y="-91" name="verse" number="1">
					<syllabic>end</syllabic>
					<text font-size="10.8">sa</text>
					<extend type="start" />
				</lyric>
			</note>
		</measure>
		<!--=======================================================-->
		<measure number="20" width="236">
			<note default-x="10">
				<pitch>
					<step>C</step>
					<octave>5</octave>
				</pitch>
				<duration>8</duration>
				<tie type="stop" />
				<voice>1</voice>
				<type>quarter</type>
				<stem default-y="-46">down</stem>
				<notations>
					<tied type="stop" />
				</notations>
				<lyric name="verse" number="1">
					<extend type="stop" />
				</lyric>
			</note>
			<note default-x="56">
				<pitch>
					<step>A</step>
					<octave>4</octave>
				</pitch>
				<duration>8</duration>
				<voice>1</voice>
				<type>quarter</type>
				<stem default-y="6">up</stem>
				<lyric default-y="-91" name="verse" number="1">
					<syllabic>begin</syllabic>
					<text font-size="10.8">ten</text>
				</lyric>
			</note>
			<note default-x="107">
				<pitch>
					<step>A</step>
					<octave>4</octave>
				</pitch>
				<duration>8</duration>
				<voice>1</voice>
				<type>quarter</type>
				<stem default-y="6">up</stem>
				<lyric default-y="-91" name="verse" number="1">
					<syllabic>end</syllabic>
					<text font-size="10.8">go</text>
				</lyric>
			</note>
			<note default-x="173">
				<pitch>
					<step>A</step>
					<octave>4</octave>
				</pitch>
				<duration>8</duration>
				<voice>1</voice>
				<type>quarter</type>
				<stem default-y="6">up</stem>
				<lyric default-y="-91" name="verse" number="1">
					<syllabic>single</syllabic>
					<text font-size="10.8">que</text>
					<elision></elision>
					<syllabic>begin</syllabic>
					<text font-size="10.8">ha</text>
				</lyric>
			</note>
		</measure>
		<!--=======================================================-->
		<measure number="21" width="110">
			<harmony default-y="36" font-size="10" font-weight="bold">
				<root>
					<root-step>G</root-step>
				</root>
				<kind halign="center" text="9">dominant-ninth</kind>
			</harmony>
			<note default-x="19">
				<pitch>
					<step>A</step>
					<octave>4</octave>
				</pitch>
				<duration>8</duration>
				<voice>1</voice>
				<type>quarter</type>
				<stem default-y="6">up</stem>
				<lyric default-y="-91" name="verse" number="1">
					<syllabic>middle</syllabic>
					<text font-size="10.8">cer</text>
				</lyric>
			</note>
			<note default-x="64">
				<pitch>
					<step>A</step>
					<octave>4</octave>
				</pitch>
				<duration>24</duration>
				<tie type="start" />
				<voice>1</voice>
				<type>half</type>
				<dot />
				<stem default-y="6">up</stem>
				<notations>
					<tied type="start" />
				</notations>
				<lyric default-y="-91" name="verse" number="1">
					<syllabic>end</syllabic>
					<text font-size="10.8">lo</text>
					<extend type="start" />
				</lyric>
			</note>
		</measure>
		<!--=======================================================-->
		<measure number="22" width="195">
			<note default-x="10">
				<pitch>
					<step>A</step>
					<octave>4</octave>
				</pitch>
				<duration>8</duration>
				<tie type="stop" />
				<voice>1</voice>
				<type>quarter</type>
				<stem default-y="6">up</stem>
				<notations>
					<tied type="stop" />
				</notations>
				<lyric name="verse" number="1">
					<extend type="stop" />
				</lyric>
			</note>
			<note default-x="55">
				<pitch>
					<step>G</step>
					<octave>4</octave>
				</pitch>
				<duration>8</duration>
				<voice>1</voice>
				<type>quarter</type>
				<stem default-y="1.5">up</stem>
				<lyric default-y="-91" name="verse" number="1">
					<syllabic>single</syllabic>
					<text font-size="10.8">es</text>
				</lyric>
			</note>
			<harmony default-y="36" font-size="10" font-weight="bold">
				<root>
					<root-step>G</root-step>
				</root>
				<kind halign="center" text="13">dominant-13th</kind>
			</harmony>
			<note default-x="100">
				<pitch>
					<step>G</step>
					<octave>4</octave>
				</pitch>
				<duration>8</duration>
				<voice>1</voice>
				<type>quarter</type>
				<stem default-y="1.5">up</stem>
				<lyric default-y="-91" name="verse" number="1">
					<syllabic>single</syllabic>
					<text font-size="10.8">su</text>
				</lyric>
			</note>
			<note default-x="148">
				<pitch>
					<step>A</step>
					<octave>4</octave>
				</pitch>
				<duration>8</duration>
				<voice>1</voice>
				<type>quarter</type>
				<stem default-y="6">up</stem>
				<lyric default-y="-91" name="verse" number="1">
					<syllabic>begin</syllabic>
					<text font-size="10.8">can</text>
				</lyric>
			</note>
		</measure>
		<!--=======================================================-->
		<measure number="23" width="75">
			<harmony default-y="36" font-size="10" font-weight="bold">
				<root>
					<root-step>B</root-step>
					<root-alter>-1</root-alter>
				</root>
				<kind halign="center" text="">major</kind>
				<bass>
					<bass-step>C</bass-step>
				</bass>
			</harmony>
			<note default-x="19">
				<pitch>
					<step>G</step>
					<octave>4</octave>
				</pitch>
				<duration>32</duration>
				<tie type="start" />
				<voice>1</voice>
				<type>whole</type>
				<notations>
					<tied type="start" />
				</notations>
				<lyric default-y="-91" name="verse" number="1">
					<syllabic>end</syllabic>
					<text font-size="10.8">ción</text>
					<extend type="start" />
				</lyric>
			</note>
		</measure>
		<!--=======================================================-->
		<measure number="24" width="201">
			<harmony default-y="36" font-size="10" font-weight="bold">
				<root>
					<root-step>C</root-step>
				</root>
				<kind halign="center" text="7">dominant</kind>
			</harmony>
			<note default-x="18">
				<pitch>
					<step>G</step>
					<octave>4</octave>
				</pitch>
				<duration>8</duration>
				<tie type="stop" />
				<voice>1</voice>
				<type>quarter</type>
				<stem default-y="1.5">up</stem>
				<notations>
					<tied type="stop" />
				</notations>
				<lyric name="verse" number="1">
					<extend type="stop" />
				</lyric>
			</note>
			<note default-x="63">
				<pitch>
					<step>C</step>
					<octave>4</octave>
				</pitch>
				<duration>8</duration>
				<voice>1</voice>
				<type>quarter</type>
				<stem default-y="-18.5">up</stem>
				<lyric default-y="-91" name="verse" number="1">
					<syllabic>begin</syllabic>
					<text font-size="10.8">con</text>
				</lyric>
			</note>
			<note default-x="110">
				<pitch>
					<step>F</step>
					<octave>4</octave>
				</pitch>
				<duration>8</duration>
				<voice>1</voice>
				<type>quarter</type>
				<stem default-y="-3.5">up</stem>
				<lyric default-y="-91" name="verse" number="1">
					<syllabic>middle</syllabic>
					<text font-size="10.8">mi</text>
				</lyric>
			</note>
			<note default-x="155">
				<pitch>
					<step>G</step>
					<octave>4</octave>
				</pitch>
				<duration>8</duration>
				<voice>1</voice>
				<type>quarter</type>
				<stem default-y="1.5">up</stem>
				<lyric default-y="-91" name="verse" number="1">
					<syllabic>end</syllabic>
					<text font-size="10.8">go</text>
				</lyric>
			</note>
		</measure>
		<!--=======================================================-->
		<measure number="25" width="171">
			<print new-system="yes">
				<system-layout>
					<system-distance>180</system-distance>
				</system-layout>
			</print>
			<harmony default-y="36" font-size="10" font-weight="bold">
				<root>
					<root-step>F</root-step>
				</root>
				<kind halign="center" text="">major</kind>
			</harmony>
			<note default-x="74">
				<pitch>
					<step>A</step>
					<octave>4</octave>
				</pitch>
				<duration>32</duration>
				<tie type="start" />
				<voice>1</voice>
				<type>whole</type>
				<notations>
					<tied type="start" />
				</notations>
				<lyric default-y="-91" name="verse" number="1">
					<syllabic>single</syllabic>
					<text font-size="10.8">ven</text>
					<extend type="start" />
				</lyric>
			</note>
			<backup>
				<duration>32</duration>
			</backup>
			<forward>
				<duration>16</duration>
				<voice>2</voice>
			</forward>
			<harmony default-y="36" font-size="10" font-weight="bold">
				<root>
					<root-step>F</root-step>
				</root>
				<kind halign="center" text="maj7">major-seventh</kind>
			</harmony>
			<forward>
				<duration>16</duration>
				<voice>2</voice>
			</forward>
		</measure>
		<!--=======================================================-->
		<measure number="26" width="192">
			<harmony default-y="36" font-size="10" font-weight="bold">
				<root>
					<root-step>F</root-step>
				</root>
				<kind halign="center" text="6">major-sixth</kind>
			</harmony>
			<note default-x="17">
				<pitch>
					<step>A</step>
					<octave>4</octave>
				</pitch>
				<duration>8</duration>
				<tie type="stop" />
				<voice>1</voice>
				<type>quarter</type>
				<stem default-y="6">up</stem>
				<notations>
					<tied type="stop" />
				</notations>
				<lyric name="verse" number="1">
					<extend type="stop" />
				</lyric>
			</note>
			<note default-x="59">
				<pitch>
					<step>G</step>
					<alter>1</alter>
					<octave>4</octave>
				</pitch>
				<duration>8</duration>
				<voice>1</voice>
				<type>quarter</type>
				<accidental>sharp</accidental>
				<stem default-y="1.5">up</stem>
				<lyric default-y="-91" name="verse" number="1">
					<syllabic>single</syllabic>
					<text font-size="10.8">por</text>
				</lyric>
			</note>
			<harmony default-y="36" font-size="10" font-weight="bold">
				<root>
					<root-step>F</root-step>
				</root>
				<kind halign="center" text="">major</kind>
			</harmony>
			<note default-x="104">
				<pitch>
					<step>A</step>
					<octave>4</octave>
				</pitch>
				<duration>8</duration>
				<voice>1</voice>
				<type>quarter</type>
				<stem default-y="6">up</stem>
				<lyric default-y="-91" name="verse" number="1">
					<syllabic>single</syllabic>
					<text font-size="10.8">la</text>
				</lyric>
			</note>
			<note default-x="147">
				<pitch>
					<step>B</step>
					<alter>-1</alter>
					<octave>4</octave>
				</pitch>
				<duration>8</duration>
				<voice>1</voice>
				<type>quarter</type>
				<stem default-y="-51">down</stem>
				<lyric default-y="-91" name="verse" number="1">
					<syllabic>begin</syllabic>
					<text font-size="10.8">flo</text>
				</lyric>
			</note>
		</measure>
		<!--=======================================================-->
		<measure number="27" width="156">
			<harmony default-y="36" font-size="10" font-weight="bold">
				<root>
					<root-step>F</root-step>
				</root>
				<kind halign="center" text="">major</kind>
				<bass>
					<bass-step>C</bass-step>
				</bass>
			</harmony>
			<note default-x="14">
				<pitch>
					<step>A</step>
					<octave>4</octave>
				</pitch>
				<duration>8</duration>
				<voice>1</voice>
				<type>quarter</type>
				<stem default-y="6">up</stem>
				<lyric default-y="-91" name="verse" number="1">
					<syllabic>middle</syllabic>
					<text font-size="10.8">res</text>
				</lyric>
			</note>
			<harmony default-y="36" font-size="10" font-weight="bold">
				<root>
					<root-step>C</root-step>
				</root>
				<kind halign="center" text="7">dominant</kind>
			</harmony>
			<note default-x="63">
				<pitch>
					<step>G</step>
					<octave>4</octave>
				</pitch>
				<duration>24</duration>
				<tie type="start" />
				<voice>1</voice>
				<type>half</type>
				<dot />
				<stem default-y="1.5">up</stem>
				<notations>
					<tied type="start" />
				</notations>
				<lyric default-y="-91" name="verse" number="1">
					<syllabic>end</syllabic>
					<text font-size="10.8">ta</text>
					<extend type="start" />
				</lyric>
			</note>
			<backup>
				<duration>32</duration>
			</backup>
			<forward>
				<duration>8</duration>
				<voice>2</voice>
			</forward>
			<forward>
				<duration>8</duration>
				<voice>2</voice>
			</forward>
			<harmony default-y="36" font-size="10" font-weight="bold">
				<root>
					<root-step>G</root-step>
				</root>
				<kind halign="center" text="m7">minor-seventh</kind>
			</harmony>
			<forward>
				<duration>16</duration>
				<voice>2</voice>
			</forward>
		</measure>
		<!--=======================================================-->
		<measure number="28" width="275">
			<harmony default-y="36" font-size="10" font-weight="bold">
				<root>
					<root-step>C</root-step>
				</root>
				<kind halign="center" text="7">dominant</kind>
			</harmony>
			<note default-x="18">
				<pitch>
					<step>G</step>
					<octave>4</octave>
				</pitch>
				<duration>8</duration>
				<tie type="stop" />
				<voice>1</voice>
				<type>quarter</type>
				<stem default-y="1.5">up</stem>
				<notations>
					<tied type="stop" />
				</notations>
				<lyric name="verse" number="1">
					<extend type="stop" />
				</lyric>
			</note>
			<note default-x="61">
				<pitch>
					<step>C</step>
					<octave>4</octave>
				</pitch>
				<duration>4</duration>
				<voice>1</voice>
				<type>eighth</type>
				<stem default-y="-18.5">up</stem>
				<beam number="1">begin</beam>
				<lyric default-y="-91" name="verse" number="1">
					<syllabic>single</syllabic>
					<text font-size="10.8">en</text>
				</lyric>
			</note>
			<note default-x="103">
				<pitch>
					<step>C</step>
					<octave>4</octave>
				</pitch>
				<duration>4</duration>
				<voice>1</voice>
				<type>eighth</type>
				<stem default-y="-18.5">up</stem>
				<beam number="1">end</beam>
				<lyric default-y="-91" name="verse" number="1">
					<syllabic>single</syllabic>
					<text font-size="10.8">lo</text>
				</lyric>
			</note>
			<note default-x="146">
				<pitch>
					<step>E</step>
					<octave>4</octave>
				</pitch>
				<duration>8</duration>
				<voice>1</voice>
				<type>quarter</type>
				<stem default-y="-8">up</stem>
				<lyric default-y="-91" name="verse" number="1">
					<syllabic>begin</syllabic>
					<text font-size="10.8">al</text>
				</lyric>
			</note>
			<note default-x="189">
				<pitch>
					<step>F</step>
					<octave>4</octave>
				</pitch>
				<duration>4</duration>
				<voice>1</voice>
				<type>eighth</type>
				<stem default-y="-3.5">up</stem>
				<beam number="1">begin</beam>
				<lyric default-y="-91" name="verse" number="1">
					<syllabic>end</syllabic>
					<text font-size="10.8">to</text>
				</lyric>
			</note>
			<note default-x="231">
				<pitch>
					<step>F</step>
					<octave>4</octave>
				</pitch>
				<duration>4</duration>
				<voice>1</voice>
				<type>eighth</type>
				<stem default-y="-3.5">up</stem>
				<beam number="1">end</beam>
				<lyric default-y="-91" name="verse" number="1">
					<syllabic>begin</syllabic>
					<text font-size="10.8">oi</text>
				</lyric>
			</note>
		</measure>
		<!--=======================================================-->
		<measure number="29" width="99">
			<note default-x="11">
				<pitch>
					<step>G</step>
					<octave>4</octave>
				</pitch>
				<duration>32</duration>
				<tie type="start" />
				<voice>1</voice>
				<type>whole</type>
				<notations>
					<tied type="start" />
				</notations>
				<lyric default-y="-91" name="verse" number="1">
					<syllabic>middle</syllabic>
					<text font-size="10.8">re</text>
				</lyric>
			</note>
			<backup>
				<duration>32</duration>
			</backup>
			<forward>
				<duration>16</duration>
				<voice>2</voice>
			</forward>
			<harmony default-y="36" font-size="10" font-weight="bold">
				<root>
					<root-step>G</root-step>
				</root>
				<kind halign="center" text="m7">minor-seventh</kind>
			</harmony>
			<forward>
				<duration>16</duration>
				<voice>2</voice>
			</forward>
		</measure>
		<!--=======================================================-->
		<measure number="30" width="204">
			<harmony default-y="36" font-size="10" font-weight="bold">
				<root>
					<root-step>C</root-step>
				</root>
				<kind halign="center" text="7">dominant</kind>
			</harmony>
			<note default-x="18">
				<pitch>
					<step>G</step>
					<octave>4</octave>
				</pitch>
				<duration>8</duration>
				<tie type="stop" />
				<voice>1</voice>
				<type>quarter</type>
				<stem default-y="1.5">up</stem>
				<notations>
					<tied type="stop" />
				</notations>
			</note>
			<note default-x="62">
				<pitch>
					<step>B</step>
					<alter>-1</alter>
					<octave>4</octave>
				</pitch>
				<duration>8</duration>
				<voice>1</voice>
				<type>quarter</type>
				<stem default-y="-51">down</stem>
				<lyric default-y="-91" name="verse" number="1">
					<syllabic>end</syllabic>
					<text font-size="10.8">mos</text>
				</lyric>
			</note>
			<note default-x="111">
				<pitch>
					<step>A</step>
					<octave>4</octave>
				</pitch>
				<duration>12</duration>
				<voice>1</voice>
				<type>quarter</type>
				<dot />
				<stem default-y="6">up</stem>
				<lyric default-y="-91" name="verse" number="1">
					<syllabic>single</syllabic>
					<text font-size="10.8">la</text>
				</lyric>
			</note>
			<note default-x="157">
				<pitch>
					<step>G</step>
					<alter>1</alter>
					<octave>4</octave>
				</pitch>
				<duration>4</duration>
				<voice>1</voice>
				<type>eighth</type>
				<accidental>sharp</accidental>
				<stem default-y="1.5">up</stem>
				<lyric default-y="-91" name="verse" number="1">
					<syllabic>begin</syllabic>
					<text font-size="10.8">can</text>
				</lyric>
			</note>
		</measure>
		<!--=======================================================-->
		<measure number="31" width="74">
			<harmony default-y="36" font-size="10" font-weight="bold">
				<root>
					<root-step>F</root-step>
				</root>
				<kind halign="center" text="">major</kind>
			</harmony>
			<note default-x="17">
				<pitch>
					<step>A</step>
					<octave>4</octave>
				</pitch>
				<duration>32</duration>
				<tie type="start" />
				<voice>1</voice>
				<type>whole</type>
				<notations>
					<tied type="start" />
				</notations>
				<lyric default-y="-91" name="verse" number="1">
					<syllabic>end</syllabic>
					<text font-size="10.8">ción.</text>
					<extend type="start" />
				</lyric>
			</note>
		</measure>
		<!--=======================================================-->
		<measure number="32" width="306">
			<print new-system="yes">
				<system-layout>
					<system-distance>180</system-distance>
				</system-layout>
			</print>
			<note default-x="72">
				<pitch>
					<step>A</step>
					<octave>4</octave>
				</pitch>
				<duration>8</duration>
				<tie type="stop" />
				<voice>1</voice>
				<type>quarter</type>
				<stem default-y="6">up</stem>
				<notations>
					<tied type="stop" />
				</notations>
				<lyric name="verse" number="1">
					<extend type="stop" />
				</lyric>
			</note>
			<note default-x="119">
				<pitch>
					<step>F</step>
					<octave>4</octave>
				</pitch>
				<duration>4</duration>
				<voice>1</voice>
				<type>eighth</type>
				<stem default-y="-3.5">up</stem>
				<beam number="1">begin</beam>
				<lyric default-y="-91" name="verse" number="1">
					<syllabic>begin</syllabic>
					<text font-size="10.8">Me</text>
				</lyric>
			</note>
			<note default-x="165">
				<pitch>
					<step>F</step>
					<octave>4</octave>
				</pitch>
				<duration>4</duration>
				<voice>1</voice>
				<type>eighth</type>
				<stem default-y="-3.5">up</stem>
				<beam number="1">end</beam>
				<lyric default-y="-91" name="verse" number="1">
					<syllabic>middle</syllabic>
					<text font-size="10.8">lo</text>
				</lyric>
			</note>
			<harmony default-y="36" font-size="10" font-weight="bold">
				<root>
					<root-step>C</root-step>
				</root>
				<kind halign="center" text="7">dominant</kind>
			</harmony>
			<note default-x="211">
				<pitch>
					<step>A</step>
					<octave>4</octave>
				</pitch>
				<duration>8</duration>
				<voice>1</voice>
				<type>quarter</type>
				<stem default-y="6">up</stem>
				<lyric default-y="-91" name="verse" number="1">
					<syllabic>middle</syllabic>
					<text font-size="10.8">dí</text>
				</lyric>
			</note>
			<note default-x="258">
				<pitch>
					<step>B</step>
					<alter>-1</alter>
					<octave>4</octave>
				</pitch>
				<duration>8</duration>
				<voice>1</voice>
				<type>quarter</type>
				<stem default-y="-51">down</stem>
				<lyric default-y="-91" name="verse" number="1">
					<syllabic>end</syllabic>
					<text font-size="10.8">as</text>
				</lyric>
			</note>
		</measure>
		<!--=======================================================-->
		<measure number="33" width="115">
			<harmony default-y="36" font-size="10" font-weight="bold">
				<root>
					<root-step>F</root-step>
				</root>
				<kind halign="center" text="7">dominant</kind>
			</harmony>
			<note default-x="17">
				<pitch>
					<step>C</step>
					<octave>5</octave>
				</pitch>
				<duration>32</duration>
				<tie type="start" />
				<voice>1</voice>
				<type>whole</type>
				<notations>
					<tied type="start" />
				</notations>
				<lyric default-y="-91" name="verse" number="1">
					<syllabic>begin</syllabic>
					<text font-size="10.8">can</text>
				</lyric>
			</note>
			<backup>
				<duration>32</duration>
			</backup>
			<forward>
				<duration>16</duration>
				<voice>2</voice>
			</forward>
			<harmony default-y="36" font-size="10" font-weight="bold">
				<root>
					<root-step>C</root-step>
				</root>
				<kind halign="center" text="m7">minor-seventh</kind>
			</harmony>
			<forward>
				<duration>16</duration>
				<voice>2</voice>
			</forward>
		</measure>
		<!--=======================================================-->
		<measure number="34" width="227">
			<harmony default-y="36" font-size="10" font-weight="bold">
				<root>
					<root-step>F</root-step>
				</root>
				<kind halign="center" text="7">dominant</kind>
			</harmony>
			<note default-x="16">
				<pitch>
					<step>C</step>
					<octave>5</octave>
				</pitch>
				<duration>8</duration>
				<tie type="stop" />
				<voice>1</voice>
				<type>quarter</type>
				<stem default-y="-46">down</stem>
				<notations>
					<tied type="stop" />
				</notations>
			</note>
			<note default-x="68">
				<pitch>
					<step>B</step>
					<octave>4</octave>
				</pitch>
				<duration>8</duration>
				<voice>1</voice>
				<type>quarter</type>
				<accidental>natural</accidental>
				<stem default-y="-51">down</stem>
				<lyric default-y="-91" name="verse" number="1">
					<syllabic>end</syllabic>
					<text font-size="10.8">tan</text>
				</lyric>
			</note>
			<harmony default-y="36" font-size="10" font-weight="bold">
				<root>
					<root-step>F</root-step>
				</root>
				<kind halign="center" text="9">dominant-ninth</kind>
			</harmony>
			<note default-x="121">
				<pitch>
					<step>C</step>
					<octave>5</octave>
				</pitch>
				<duration>8</duration>
				<voice>1</voice>
				<type>quarter</type>
				<stem default-y="-46">down</stem>
				<lyric default-y="-91" name="verse" number="1">
					<syllabic>single</syllabic>
					<text font-size="10.8">aun</text>
				</lyric>
			</note>
			<note default-x="174">
				<pitch>
					<step>D</step>
					<octave>5</octave>
				</pitch>
				<duration>8</duration>
				<voice>1</voice>
				<type>quarter</type>
				<stem default-y="-41">down</stem>
				<lyric default-y="-91" name="verse" number="1">
					<syllabic>single</syllabic>
					<text font-size="10.8">los</text>
				</lyric>
			</note>
		</measure>
		<!--=======================================================-->
		<measure number="35" width="130">
			<harmony default-y="36" font-size="10" font-weight="bold">
				<root>
					<root-step>B</root-step>
					<root-alter>-1</root-alter>
				</root>
				<kind halign="center" text="">major</kind>
			</harmony>
			<note default-x="16">
				<pitch>
					<step>C</step>
					<octave>5</octave>
				</pitch>
				<duration>8</duration>
				<voice>1</voice>
				<type>quarter</type>
				<stem default-y="-46">down</stem>
				<lyric default-y="-91" name="verse" number="1">
					<syllabic>begin</syllabic>
					<text font-size="10.8">ce</text>
				</lyric>
			</note>
			<note default-x="72">
				<pitch>
					<step>B</step>
					<alter>-1</alter>
					<octave>4</octave>
				</pitch>
				<duration>24</duration>
				<tie type="start" />
				<voice>1</voice>
				<type>half</type>
				<dot />
				<stem default-y="-51">down</stem>
				<notations>
					<tied type="start" />
				</notations>
				<lyric default-y="-91" name="verse" number="1">
					<syllabic>end</syllabic>
					<text font-size="10.8">rros;</text>
					<extend type="start" />
				</lyric>
			</note>
		</measure>
		<!--=======================================================-->
		<measure number="36" width="276">
			<harmony default-y="36" font-size="10" font-weight="bold">
				<root>
					<root-step>E</root-step>
					<root-alter>-1</root-alter>
				</root>
				<kind halign="center" text="9">dominant-ninth</kind>
			</harmony>
			<note default-x="21">
				<pitch>
					<step>B</step>
					<alter>-1</alter>
					<octave>4</octave>
				</pitch>
				<duration>8</duration>
				<tie type="stop" />
				<voice>1</voice>
				<type>quarter</type>
				<stem default-y="-51">down</stem>
				<notations>
					<tied type="stop" />
				</notations>
				<lyric name="verse" number="1">
					<extend type="stop" />
				</lyric>
			</note>
			<note default-x="75">
				<pitch>
					<step>C</step>
					<octave>5</octave>
				</pitch>
				<duration>8</duration>
				<voice>1</voice>
				<type>quarter</type>
				<stem default-y="-46">down</stem>
				<lyric default-y="-91" name="verse" number="1">
					<syllabic>begin</syllabic>
					<text font-size="10.8">Tie</text>
				</lyric>
			</note>
			<note default-x="136">
				<pitch>
					<step>C</step>
					<octave>5</octave>
				</pitch>
				<duration>8</duration>
				<voice>1</voice>
				<type>quarter</type>
				<stem default-y="-46">down</stem>
				<lyric default-y="-91" name="verse" number="1">
					<syllabic>end</syllabic>
					<text font-size="10.8">nen</text>
				</lyric>
			</note>
			<note default-x="209">
				<pitch>
					<step>B</step>
					<alter>-1</alter>
					<octave>4</octave>
				</pitch>
				<duration>8</duration>
				<voice>1</voice>
				<type>quarter</type>
				<stem default-y="-51">down</stem>
				<lyric default-y="-91" name="verse" number="1">
					<syllabic>single</syllabic>
					<text font-size="10.8">que</text>
					<elision></elision>
					<syllabic>begin</syllabic>
					<text font-size="10.8">ha</text>
				</lyric>
			</note>
		</measure>
		<!--=======================================================-->
		<measure number="37" width="117">
			<harmony default-y="36" font-size="10" font-weight="bold">
				<root>
					<root-step>F</root-step>
				</root>
				<kind halign="center" text="">major</kind>
				<bass>
					<bass-step>C</bass-step>
				</bass>
			</harmony>
			<note default-x="14">
				<pitch>
					<step>A</step>
					<octave>4</octave>
				</pitch>
				<duration>8</duration>
				<voice>1</voice>
				<type>quarter</type>
				<stem default-y="6">up</stem>
				<lyric default-y="-91" name="verse" number="1">
					<syllabic>middle</syllabic>
					<text font-size="10.8">cer</text>
				</lyric>
			</note>
			<note default-x="65">
				<pitch>
					<step>C</step>
					<octave>4</octave>
				</pitch>
				<duration>24</duration>
				<voice>1</voice>
				<type>half</type>
				<dot />
				<stem default-y="-19">up</stem>
				<lyric default-y="-91" name="verse" number="1">
					<syllabic>end</syllabic>
					<text font-size="10.8">lo,</text>
				</lyric>
			</note>
		</measure>
		<!--=======================================================-->
		<measure number="38" width="284">
			<print new-page="yes" page-number="2" />
			<harmony default-y="36" font-size="10" font-weight="bold">
				<root>
					<root-step>G</root-step>
				</root>
				<kind halign="center" text="m7">minor-seventh</kind>
			</harmony>
			<note default-x="90">
				<pitch>
					<step>B</step>
					<alter>-1</alter>
					<octave>4</octave>
				</pitch>
				<duration>8</duration>
				<voice>1</voice>
				<type>quarter</type>
				<stem default-y="-51">down</stem>
				<lyric default-y="-91" name="verse" number="1">
					<syllabic>single</syllabic>
					<text font-size="10.8">¡Es</text>
				</lyric>
			</note>
			<harmony default-y="36" font-size="10" font-weight="bold">
				<root>
					<root-step>C</root-step>
				</root>
				<kind halign="center" text="9">dominant-ninth</kind>
				<offset>8</offset>
			</harmony>
			<note default-x="154">
				<pitch>
					<step>A</step>
					<octave>4</octave>
				</pitch>
				<duration>16</duration>
				<voice>1</voice>
				<type>half</type>
				<stem default-y="6.5">up</stem>
				<lyric default-y="-91" name="verse" number="1">
					<syllabic>single</syllabic>
					<text font-size="10.8">su</text>
				</lyric>
			</note>
			<note default-x="218">
				<pitch>
					<step>G</step>
					<octave>4</octave>
				</pitch>
				<duration>8</duration>
				<voice>1</voice>
				<type>quarter</type>
				<stem default-y="1">up</stem>
				<lyric default-y="-91" name="verse" number="1">
					<syllabic>begin</syllabic>
					<text font-size="10.8">can</text>
				</lyric>
			</note>
		</measure>
		<!--=======================================================-->
		<measure number="39" width="134">
			<barline location="left">
				<ending default-y="71" end-length="71" font-size="6.2" number="1" print-object="yes" type="start" />
			</barline>
			<harmony default-y="36" font-size="10" font-weight="bold">
				<root>
					<root-step>F</root-step>
				</root>
				<kind halign="center" text="">major</kind>
			</harmony>
			<note default-x="17">
				<pitch>
					<step>F</step>
					<octave>4</octave>
				</pitch>
				<duration>32</duration>
				<tie type="start" />
				<voice>1</voice>
				<type>whole</type>
				<notations>
					<tied type="start" />
				</notations>
				<lyric default-y="-91" name="verse" number="1">
					<syllabic>end</syllabic>
					<text font-size="10.8">ción!</text>
					<extend type="start" />
				</lyric>
			</note>
			<backup>
				<duration>32</duration>
			</backup>
			<forward>
				<duration>16</duration>
				<voice>2</voice>
			</forward>
			<harmony default-y="36" font-size="10" font-weight="bold">
				<root>
					<root-step>G</root-step>
				</root>
				<kind halign="center" text="m">minor</kind>
			</harmony>
			<forward>
				<duration>16</duration>
				<voice>2</voice>
			</forward>
		</measure>
		<!--=======================================================-->
		<measure number="40" width="331">
			<harmony default-y="36" font-size="10" font-weight="bold">
				<root>
					<root-step>F</root-step>
				</root>
				<kind halign="center" text="">major</kind>
			</harmony>
			<note default-x="11">
				<pitch>
					<step>F</step>
					<octave>4</octave>
				</pitch>
				<duration>8</duration>
				<tie type="stop" />
				<voice>1</voice>
				<type>quarter</type>
				<stem default-y="-4">up</stem>
				<notations>
					<tied type="stop" />
				</notations>
				<lyric name="verse" number="1">
					<extend type="stop" />
				</lyric>
			</note>
			<note default-x="86">
				<pitch>
					<step>F</step>
					<octave>4</octave>
				</pitch>
				<duration>8</duration>
				<voice>1</voice>
				<type>quarter</type>
				<stem default-y="-4">up</stem>
				<lyric default-y="-91" name="verse" number="1">
					<syllabic>single</syllabic>
					<text font-size="10.8">En</text>
				</lyric>
			</note>
			<harmony default-y="36" font-size="10" font-weight="bold">
				<root>
					<root-step>C</root-step>
				</root>
				<kind halign="center" text="m7">minor-seventh</kind>
			</harmony>
			<note default-x="161">
				<pitch>
					<step>B</step>
					<alter>-1</alter>
					<octave>4</octave>
				</pitch>
				<duration>8</duration>
				<voice>1</voice>
				<type>quarter</type>
				<stem default-y="-51">down</stem>
				<lyric default-y="-91" name="verse" number="1">
					<syllabic>begin</syllabic>
					<text font-size="10.8">Cris</text>
				</lyric>
			</note>
			<harmony default-y="36" font-size="10" font-weight="bold">
				<root>
					<root-step>F</root-step>
				</root>
				<kind halign="center" parentheses-degrees="yes" text="7">dominant</kind>
				<degree>
					<degree-value>9</degree-value>
					<degree-alter>-1</degree-alter>
					<degree-type>add</degree-type>
				</degree>
			</harmony>
			<note default-x="235">
				<pitch>
					<step>C</step>
					<octave>5</octave>
				</pitch>
				<duration>8</duration>
				<voice>1</voice>
				<type>quarter</type>
				<stem default-y="-46">down</stem>
				<lyric default-y="-91" name="verse" number="1">
					<syllabic>end</syllabic>
					<text font-size="10.8">to</text>
					<elision></elision>
					<syllabic>single</syllabic>
					<text font-size="10.8">ha</text>
					<elision></elision>
					<syllabic>single</syllabic>
					<text font-size="10.8">­</text>
				</lyric>
			</note>
			<barline location="right">
				<bar-style>light-heavy</bar-style>
				<ending number="1" print-object="yes" type="stop" />
				<repeat direction="backward" winged="none" />
			</barline>
		</measure>
		<!--=======================================================-->
		<measure number="41" width="288">
			<barline location="left">
				<ending default-y="71" end-length="71" font-size="6.2" number="2" print-object="yes" type="start" />
			</barline>
			<harmony default-y="36" font-size="10" font-weight="bold">
				<root>
					<root-step text="">D</root-step>
					<root-alter print-object="no">-1</root-alter>
				</root>
				<kind halign="center" text="N.C.">none</kind>
			</harmony>
			<note default-x="34">
				<pitch>
					<step>F</step>
					<octave>4</octave>
				</pitch>
				<duration>32</duration>
				<tie type="start" />
				<voice>1</voice>
				<type>whole</type>
				<notations>
					<tied orientation="over" type="start" />
				</notations>
				<lyric default-y="-91" name="verse" number="1">
					<syllabic>single</syllabic>
					<text font-size="10.8">­</text>
					<elision></elision>
					<syllabic>single</syllabic>
					<text font-size="10.8">ción!</text>
					<extend type="start" />
				</lyric>
			</note>
			<backup>
				<duration>32</duration>
			</backup>
			<note default-x="35">
				<rest>
					<display-step>A</display-step>
					<display-octave>3</display-octave>
				</rest>
				<duration>8</duration>
				<voice>2</voice>
				<type>quarter</type>
			</note>
			<harmony default-y="36" font-size="10" font-weight="bold">
				<root>
					<root-step>D</root-step>
					<root-alter>-1</root-alter>
				</root>
				<kind halign="center" text="7">dominant</kind>
			</harmony>
			<note default-x="97">
				<pitch>
					<step>B</step>
					<octave>3</octave>
				</pitch>
				<duration>8</duration>
				<voice>2</voice>
				<type size="cue">quarter</type>
				<accidental>natural</accidental>
				<stem default-y="-82">down</stem>
			</note>
			<harmony default-y="36" font-size="10" font-weight="bold">
				<root>
					<root-step>E</root-step>
					<root-alter>-1</root-alter>
				</root>
				<kind halign="center" text="6">major-sixth</kind>
			</harmony>
			<note default-x="161">
				<pitch>
					<step>C</step>
					<octave>4</octave>
				</pitch>
				<duration>8</duration>
				<voice>2</voice>
				<type size="cue">quarter</type>
				<stem default-y="-77">down</stem>
			</note>
			<harmony default-y="36" font-size="10" font-weight="bold">
				<root>
					<root-step>E</root-step>
				</root>
				<kind halign="center" text="6">major-sixth</kind>
			</harmony>
			<note default-x="224">
				<pitch>
					<step>C</step>
					<alter>1</alter>
					<octave>4</octave>
				</pitch>
				<duration>8</duration>
				<voice>2</voice>
				<type size="cue">quarter</type>
				<accidental>sharp</accidental>
				<stem default-y="-77">down</stem>
			</note>
			<barline location="right">
				<ending number="2" type="discontinue" />
			</barline>
		</measure>
		<!--=======================================================-->
		<measure number="42" width="133">
			<harmony default-y="36" font-size="10" font-weight="bold">
				<root>
					<root-step>F</root-step>
				</root>
				<kind halign="center" text="6">major-sixth</kind>
			</harmony>
			<note default-x="17">
				<pitch>
					<step>F</step>
					<octave>4</octave>
				</pitch>
				<duration>24</duration>
				<tie type="stop" />
				<voice>1</voice>
				<type>half</type>
				<dot />
				<stem default-y="-4">up</stem>
				<notations>
					<tied type="stop" />
				</notations>
				<lyric name="verse" number="1">
					<extend type="stop" />
				</lyric>
			</note>
			<note default-x="70">
				<rest />
				<duration>8</duration>
				<voice>1</voice>
				<type>quarter</type>
			</note>
			<backup>
				<duration>32</duration>
			</backup>
			<note default-x="17">
				<pitch>
					<step>D</step>
					<octave>4</octave>
				</pitch>
				<duration>24</duration>
				<voice>2</voice>
				<type size="cue">half</type>
				<dot />
				<stem default-y="-71.5">down</stem>
			</note>
			<forward>
				<duration>8</duration>
				<voice>2</voice>
			</forward>
			<barline location="right">
				<bar-style>light-heavy</bar-style>
			</barline>
		</measure>
	</part>
	<!--=========================================================-->
</score-partwise>